999
dxfrw 0.6.3
  0
SECTION
  2
HEADER
  9
$ACADVER
  1
AC1021
  9
$DWGCODEPAGE
  3
ANSI_1252
  9
$INSBASE
 10
0
 20
0
 30
0
  9
$EXTMIN
 10
-24.42642200127129
 20
-164.0181564157111
 30
0
  9
$EXTMAX
 10
290.2780919309167
 20
5.478156415710882
 30
0
  9
$LIMMIN
 10
0
 20
0
  9
$LIMMAX
 10
12
 20
9
  9
$ORTHOMODE
 70
    0
  9
$REGENMODE
 70
    1
  9
$FILLMODE
 70
    1
  9
$QTEXTMODE
 70
    0
  9
$MIRRTEXT
 70
    0
  9
$LTSCALE
 40
1
  9
$ATTMODE
 70
    1
  9
$TEXTSIZE
 40
0.2
  9
$TRACEWID
 40
0.05
  9
$TEXTSTYLE
  7
STANDARD
  9
$CLAYER
  8
0
  9
$CELTYPE
  6
BYLAYER
  9
$CECOLOR
 62
  256
  9
$CELTSCALE
 40
1
  9
$DISPSILH
 70
    0
  9
$DIMSCALE
 40
1
  9
$DIMASZ
 40
2.5
  9
$DIMEXO
 40
0.625
  9
$DIMDLI
 40
5
  9
$DIMRND
 40
0
  9
$DIMDLE
 40
0
  9
$DIMEXE
 40
1.25
  9
$DIMTP
 40
0
  9
$DIMTM
 40
0
  9
$DIMTXT
 40
2.5
  9
$DIMCEN
 40
0.09
  9
$DIMTSZ
 40
0
  9
$DIMTOL
 70
    0
  9
$DIMLIM
 70
    0
  9
$DIMTIH
 70
    1
  9
$DIMTOH
 70
    1
  9
$DIMSE1
 70
    0
  9
$DIMSE2
 70
    0
  9
$DIMTAD
 70
    0
  9
$DIMZIN
 70
    8
  9
$DIMBLK
  1

  9
$DIMASO
 70
    1
  9
$DIMSHO
 70
    1
  9
$DIMPOST
  1

  9
$DIMAPOST
  1

  9
$DIMALT
 70
    0
  9
$DIMALTD
 70
    2
  9
$DIMALTF
 40
25.4
  9
$DIMLFAC
 40
1
  9
$DIMTOFL
 70
    0
  9
$DIMTVP
 40
0
  9
$DIMTIX
 70
    0
  9
$DIMSOXD
 70
    0
  9
$DIMSAH
 70
    0
  9
$DIMBLK1
  1

  9
$DIMBLK2
  1

  9
$DIMSTYLE
  2
STANDARD
  9
$DIMCLRD
 70
    0
  9
$DIMCLRE
 70
    0
  9
$DIMCLRT
 70
    0
  9
$DIMTFAC
 40
1
  9
$DIMGAP
 40
0.625
  9
$DIMJUST
 70
    0
  9
$DIMSD1
 70
    0
  9
$DIMSD2
 70
    0
  9
$DIMTOLJ
 70
    0
  9
$DIMTZIN
 70
    8
  9
$DIMALTZ
 70
    0
  9
$DIMALTTZ
 70
    0
  9
$DIMUPT
 70
    0
  9
$DIMDEC
 70
    4
  9
$DIMTDEC
 70
    2
  9
$DIMALTU
 70
    2
  9
$DIMALTTD
 70
    3
  9
$DIMTXSTY
  7
STANDARD
  9
$DIMAUNIT
 70
    0
  9
$DIMADEC
 70
    0
  9
$DIMALTRND
 40
0
  9
$DIMAZIN
 70
    0
  9
$DIMDSEP
 70
   44
  9
$DIMATFIT
 70
    3
  9
$DIMFRAC
 70
    0
  9
$DIMLDRBLK
  1
STANDARD
  9
$DIMLUNIT
 70
    2
  9
$DIMLWD
 70
   -2
  9
$DIMLWE
 70
   -2
  9
$DIMTMOVE
 70
    0
  9
$DIMFXL
 40
1
  9
$DIMFXLON
 70
    0
  9
$DIMJOGANG
 40
0.7854
  9
$DIMTFILL
 70
    0
  9
$DIMTFILLCLR
 70
    0
  9
$DIMARCSYM
 70
    0
  9
$DIMLTYPE
  6

  9
$DIMLTEX1
  6

  9
$DIMLTEX2
  6

  9
$LUNITS
 70
    2
  9
$LUPREC
 70
    4
  9
$SKETCHINC
 40
0.1
  9
$FILLETRAD
 40
0.5
  9
$AUNITS
 70
    0
  9
$AUPREC
 70
    0
  9
$MENU
  1
.
  9
$ELEVATION
 40
0
  9
$PELEVATION
 40
0
  9
$THICKNESS
 40
0
  9
$LIMCHECK
 70
    0
  9
$CHAMFERA
 40
0
  9
$CHAMFERB
 40
0
  9
$CHAMFERC
 40
0
  9
$CHAMFERD
 40
0
  9
$SKPOLY
 70
    0
  9
$USRTIMER
 70
    1
  9
$ANGBASE
 50
0
  9
$ANGDIR
 70
    0
  9
$PDMODE
 70
    0
  9
$PDSIZE
 40
0
  9
$PLINEWID
 40
0
  9
$SPLFRAME
 70
    0
  9
$SPLINETYPE
 70
    6
  9
$SPLINESEGS
 70
    8
  9
$HANDSEED
  5
20000
  9
$SURFTAB1
 70
    6
  9
$SURFTAB2
 70
    6
  9
$SURFTYPE
 70
    6
  9
$SURFU
 70
    6
  9
$SURFV
 70
    6
  9
$UCSBASE
  2

  9
$UCSNAME
  2

  9
$UCSORG
 10
0
 20
0
 30
0
  9
$UCSXDIR
 10
1
 20
0
 30
0
  9
$UCSYDIR
 10
0
 20
1
 30
0
  9
$UCSORTHOREF
  2

  9
$UCSORTHOVIEW
 70
    0
  9
$UCSORGTOP
 10
0
 20
0
 30
0
  9
$UCSORGBOTTOM
 10
0
 20
0
 30
0
  9
$UCSORGLEFT
 10
0
 20
0
 30
0
  9
$UCSORGRIGHT
 10
0
 20
0
 30
0
  9
$UCSORGFRONT
 10
0
 20
0
 30
0
  9
$UCSORGBACK
 10
0
 20
0
 30
0
  9
$PUCSBASE
  2

  9
$PUCSNAME
  2

  9
$PUCSORG
 10
0
 20
0
 30
0
  9
$PUCSXDIR
 10
1
 20
0
 30
0
  9
$PUCSYDIR
 10
0
 20
1
 30
0
  9
$PUCSORTHOREF
  2

  9
$PUCSORTHOVIEW
 70
    0
  9
$PUCSORGTOP
 10
0
 20
0
 30
0
  9
$PUCSORGBOTTOM
 10
0
 20
0
 30
0
  9
$PUCSORGLEFT
 10
0
 20
0
 30
0
  9
$PUCSORGRIGHT
 10
0
 20
0
 30
0
  9
$PUCSORGFRONT
 10
0
 20
0
 30
0
  9
$PUCSORGBACK
 10
0
 20
0
 30
0
  9
$USERI1
 70
    0
  9
$USERI2
 70
    0
  9
$USERI3
 70
    0
  9
$USERI4
 70
    0
  9
$USERI5
 70
    0
  9
$USERR1
 40
0
  9
$USERR2
 40
0
  9
$USERR3
 40
0
  9
$USERR4
 40
0
  9
$USERR5
 40
0
  9
$WORLDVIEW
 70
    1
  9
$SHADEDGE
 70
    3
  9
$SHADEDIF
 70
   70
  9
$TILEMODE
 70
    1
  9
$MAXACTVP
 70
   64
  9
$PINSBASE
 10
0
 20
0
 30
0
  9
$PLIMCHECK
 70
    0
  9
$PEXTMIN
 10
0
 20
0
 30
0
  9
$PEXTMAX
 10
0
 20
0
 30
0
  9
$GRIDMODE
 70
    1
  9
$SNAPSTYLE
 70
    0
  9
$PLIMMIN
 10
0
 20
0
  9
$PLIMMAX
 10
297
 20
210
  9
$UNITMODE
 70
    0
  9
$VISRETAIN
 70
    1
  9
$PLINEGEN
 70
    0
  9
$PSLTSCALE
 70
    1
  9
$TREEDEPTH
 70
 3020
  9
$CMLSTYLE
  2
Standard
  9
$CMLJUST
 70
    0
  9
$CMLSCALE
 40
20
  9
$PROXYGRAPHICS
 70
    1
  9
$MEASUREMENT
 70
    1
  9
$CELWEIGHT
370
   -1
  9
$ENDCAPS
280
    0
  9
$JOINSTYLE
280
    0
  9
$LWDISPLAY
290
    0
  9
$INSUNITS
 70
    4
  9
$HYPERLINKBASE
  1

  9
$STYLESHEET
  1

  9
$XEDIT
290
    1
  9
$CEPSNTYPE
380
    0
  9
$PSTYLEMODE
290
    1
  9
$EXTNAMES
290
    1
  9
$PSVPSCALE
 40
1
  9
$OLESTARTUP
290
    0
  9
$SORTENTS
280
  127
  9
$INDEXCTL
280
    0
  9
$HIDETEXT
280
    1
  9
$XCLIPFRAME
290
    0
  9
$HALOGAP
280
    0
  9
$OBSCOLOR
 70
  257
  9
$OBSLTYPE
280
    0
  9
$INTERSECTIONDISPLAY
280
    0
  9
$INTERSECTIONCOLOR
 70
  257
  9
$DIMASSOC
280
    1
  9
$PROJECTNAME
  1

  9
$CAMERADISPLAY
290
    0
  9
$LENSLENGTH
 40
50
  9
$CAMERAHEIGHT
 40
0
  9
$STEPSPERSEC
 40
2
  9
$STEPSIZE
 40
50
  9
$3DDWFPREC
 40
2
  9
$PSOLWIDTH
 40
5
  9
$PSOLHEIGHT
 40
80
  9
$LOFTANG1
 40
1.570796326794897
  9
$LOFTANG2
 40
1.570796326794897
  9
$LOFTMAG1
 40
0
  9
$LOFTMAG2
 40
0
  9
$LOFTPARAM
 70
    7
  9
$LOFTNORMALS
280
    1
  9
$LATITUDE
 40
1
  9
$LONGITUDE
 40
1
  9
$NORTHDIRECTION
 40
0
  9
$TIMEZONE
 70
-8000
  9
$LIGHTGLYPHDISPLAY
280
    1
  9
$TILEMODELIGHTSYNCH
280
    1
  9
$SOLIDHIST
280
    1
  9
$SHOWHIST
280
    1
  9
$DWFFRAME
280
    2
  9
$DGNFRAME
280
    0
  9
$REALWORLDSCALE
290
    1
  9
$INTERFERECOLOR
 62
    1
  9
$CSHADOW
280
    0
  9
$SHADOWPLANELOCATION
 40
0
  0
ENDSEC
  0
SECTION
  2
CLASSES
  0
ENDSEC
  0
SECTION
  2
TABLES
  0
TABLE
  2
VPORT
  5
8
330
0
100
AcDbSymbolTable
 70
    1
  0
VPORT
  5
31
330
2
100
AcDbSymbolTableRecord
100
AcDbViewportTableRecord
  2
*ACTIVE
 70
    0
 10
0
 20
0
 11
1
 21
1
 12
153.623325628532
 22
0.9318572611782705
 13
0
 23
0
 14
10
 24
10
 15
10
 25
10
 16
0
 26
0
 36
1
 17
0
 27
0
 37
0
 40
224.4444774780806
 41
1.845788849347568
 42
50
 43
0
 44
0
 50
0
 51
0
 71
    0
 72
  100
 73
    1
 74
    3
 75
    0
 76
    1
 77
    0
 78
    0
281
    0
 65
    1
110
0
120
0
130
0
111
1
121
0
131
0
112
0
122
1
132
0
 79
    0
146
0
348
10020
 60
    7
 61
    5
292
1
282
    1
141
0
142
0
 63
  250
421
3358443
  0
ENDTAB
  0
TABLE
  2
LTYPE
  5
5
330
0
100
AcDbSymbolTable
 70
    4
  0
LTYPE
  5
14
330
5
100
AcDbSymbolTableRecord
100
AcDbLinetypeTableRecord
  2
ByBlock
 70
    0
  3

 72
   65
 73
    0
 40
0
  0
LTYPE
  5
15
330
5
100
AcDbSymbolTableRecord
100
AcDbLinetypeTableRecord
  2
ByLayer
 70
    0
  3

 72
   65
 73
    0
 40
0
  0
LTYPE
  5
16
330
5
100
AcDbSymbolTableRecord
100
AcDbLinetypeTableRecord
  2
Continuous
 70
    0
  3
Solid line
 72
   65
 73
    0
 40
0
  0
LTYPE
  5
32
330
5
100
AcDbSymbolTableRecord
100
AcDbLinetypeTableRecord
  2
DOT
 70
    0
  3
Dot . . . . . . . . . . . . . . . . . . . . . .
 72
   65
 73
    2
 40
6.35
 49
0
 74
    0
 49
-6.35
 74
    0
  0
LTYPE
  5
33
330
5
100
AcDbSymbolTableRecord
100
AcDbLinetypeTableRecord
  2
DOTTINY
 70
    0
  3
Dot (.15x) .....................................
 72
   65
 73
    2
 40
0.9525
 49
0
 74
    0
 49
-0.9525
 74
    0
  0
LTYPE
  5
34
330
5
100
AcDbSymbolTableRecord
100
AcDbLinetypeTableRecord
  2
DOT2
 70
    0
  3
Dot (.5x) .....................................
 72
   65
 73
    2
 40
3.175
 49
0
 74
    0
 49
-3.175
 74
    0
  0
LTYPE
  5
35
330
5
100
AcDbSymbolTableRecord
100
AcDbLinetypeTableRecord
  2
DOTX2
 70
    0
  3
Dot (2x) .  .  .  .  .  .  .  .  .  .  .  .  .
 72
   65
 73
    2
 40
12.7
 49
0
 74
    0
 49
-12.7
 74
    0
  0
LTYPE
  5
36
330
5
100
AcDbSymbolTableRecord
100
AcDbLinetypeTableRecord
  2
DASHED
 70
    0
  3
Dashed _ _ _ _ _ _ _ _ _ _ _ _ _ _ _ _ _
 72
   65
 73
    2
 40
19.05
 49
12.7
 74
    0
 49
-6.35
 74
    0
  0
LTYPE
  5
37
330
5
100
AcDbSymbolTableRecord
100
AcDbLinetypeTableRecord
  2
DASHEDTINY
 70
    0
  3
Dashed (.15x) _ _ _ _ _ _ _ _ _ _ _ _ _ _ _ _ _
 72
   65
 73
    2
 40
2.8575
 49
1.905
 74
    0
 49
-0.9525
 74
    0
  0
LTYPE
  5
38
330
5
100
AcDbSymbolTableRecord
100
AcDbLinetypeTableRecord
  2
DASHED2
 70
    0
  3
Dashed (.5x) _ _ _ _ _ _ _ _ _ _ _ _ _ _ _ _ _
 72
   65
 73
    2
 40
9.524999999999999
 49
6.35
 74
    0
 49
-3.175
 74
    0
  0
LTYPE
  5
39
330
5
100
AcDbSymbolTableRecord
100
AcDbLinetypeTableRecord
  2
DASHEDX2
 70
    0
  3
Dashed (2x) ____  ____  ____  ____  ____  ___
 72
   65
 73
    2
 40
38.09999999999999
 49
25.4
 74
    0
 49
-12.7
 74
    0
  0
LTYPE
  5
3A
330
5
100
AcDbSymbolTableRecord
100
AcDbLinetypeTableRecord
  2
DASHDOT
 70
    0
  3
Dash dot __ . __ . __ . __ . __ . __ . __ . __
 72
   65
 73
    4
 40
25.4
 49
12.7
 74
    0
 49
-6.35
 74
    0
 49
0
 74
    0
 49
-6.35
 74
    0
  0
LTYPE
  5
3B
330
5
100
AcDbSymbolTableRecord
100
AcDbLinetypeTableRecord
  2
DASHDOTTINY
 70
    0
  3
Dash dot (.15x) _._._._._._._._._._._._._._._.
 72
   65
 73
    4
 40
3.81
 49
1.905
 74
    0
 49
-0.9525
 74
    0
 49
0
 74
    0
 49
-0.9525
 74
    0
  0
LTYPE
  5
3C
330
5
100
AcDbSymbolTableRecord
100
AcDbLinetypeTableRecord
  2
DASHDOT2
 70
    0
  3
Dash dot (.5x) _._._._._._._._._._._._._._._.
 72
   65
 73
    4
 40
12.7
 49
6.35
 74
    0
 49
-3.175
 74
    0
 49
0
 74
    0
 49
-3.175
 74
    0
  0
LTYPE
  5
3D
330
5
100
AcDbSymbolTableRecord
100
AcDbLinetypeTableRecord
  2
DASHDOTX2
 70
    0
  3
Dash dot (2x) ____  .  ____  .  ____  .  ___
 72
   65
 73
    4
 40
50.8
 49
25.4
 74
    0
 49
-12.7
 74
    0
 49
0
 74
    0
 49
-12.7
 74
    0
  0
LTYPE
  5
3E
330
5
100
AcDbSymbolTableRecord
100
AcDbLinetypeTableRecord
  2
DIVIDE
 70
    0
  3
Divide ____ . . ____ . . ____ . . ____ . . ____
 72
   65
 73
    6
 40
31.75
 49
12.7
 74
    0
 49
-6.35
 74
    0
 49
0
 74
    0
 49
-6.35
 74
    0
 49
0
 74
    0
 49
-6.35
 74
    0
  0
LTYPE
  5
3F
330
5
100
AcDbSymbolTableRecord
100
AcDbLinetypeTableRecord
  2
DIVIDETINY
 70
    0
  3
Divide (.15x) __..__..__..__..__..__..__..__.._
 72
   65
 73
    6
 40
4.7625
 49
1.905
 74
    0
 49
-0.9525
 74
    0
 49
0
 74
    0
 49
-0.9525
 74
    0
 49
0
 74
    0
 49
-0.9525
 74
    0
  0
LTYPE
  5
40
330
5
100
AcDbSymbolTableRecord
100
AcDbLinetypeTableRecord
  2
DIVIDE2
 70
    0
  3
Divide (.5x) __..__..__..__..__..__..__..__.._
 72
   65
 73
    6
 40
15.875
 49
6.35
 74
    0
 49
-3.175
 74
    0
 49
0
 74
    0
 49
-3.175
 74
    0
 49
0
 74
    0
 49
-3.175
 74
    0
  0
LTYPE
  5
41
330
5
100
AcDbSymbolTableRecord
100
AcDbLinetypeTableRecord
  2
DIVIDEX2
 70
    0
  3
Divide (2x) ________  .  .  ________  .  .  _
 72
   65
 73
    6
 40
63.5
 49
25.4
 74
    0
 49
-12.7
 74
    0
 49
0
 74
    0
 49
-12.7
 74
    0
 49
0
 74
    0
 49
-12.7
 74
    0
  0
LTYPE
  5
42
330
5
100
AcDbSymbolTableRecord
100
AcDbLinetypeTableRecord
  2
BORDER
 70
    0
  3
Border __ __ . __ __ . __ __ . __ __ . __ __ .
 72
   65
 73
    6
 40
44.45
 49
12.7
 74
    0
 49
-6.35
 74
    0
 49
12.7
 74
    0
 49
-6.35
 74
    0
 49
0
 74
    0
 49
-6.35
 74
    0
  0
LTYPE
  5
43
330
5
100
AcDbSymbolTableRecord
100
AcDbLinetypeTableRecord
  2
BORDERTINY
 70
    0
  3
Border (.15x) __.__.__.__.__.__.__.__.__.__.__.
 72
   65
 73
    6
 40
6.6675
 49
1.905
 74
    0
 49
-0.9525
 74
    0
 49
1.905
 74
    0
 49
-0.9525
 74
    0
 49
0
 74
    0
 49
-0.9525
 74
    0
  0
LTYPE
  5
44
330
5
100
AcDbSymbolTableRecord
100
AcDbLinetypeTableRecord
  2
BORDER2
 70
    0
  3
Border (.5x) __.__.__.__.__.__.__.__.__.__.__.
 72
   65
 73
    6
 40
22.225
 49
6.35
 74
    0
 49
-3.175
 74
    0
 49
6.35
 74
    0
 49
-3.175
 74
    0
 49
0
 74
    0
 49
-3.175
 74
    0
  0
LTYPE
  5
45
330
5
100
AcDbSymbolTableRecord
100
AcDbLinetypeTableRecord
  2
BORDERX2
 70
    0
  3
Border (2x) ____  ____  .  ____  ____  .  ___
 72
   65
 73
    6
 40
88.89999999999999
 49
25.4
 74
    0
 49
-12.7
 74
    0
 49
25.4
 74
    0
 49
-12.7
 74
    0
 49
0
 74
    0
 49
-12.7
 74
    0
  0
LTYPE
  5
46
330
5
100
AcDbSymbolTableRecord
100
AcDbLinetypeTableRecord
  2
CENTER
 70
    0
  3
Center ____ _ ____ _ ____ _ ____ _ ____ _ ____
 72
   65
 73
    4
 40
50.8
 49
31.75
 74
    0
 49
-6.35
 74
    0
 49
6.35
 74
    0
 49
-6.35
 74
    0
  0
LTYPE
  5
47
330
5
100
AcDbSymbolTableRecord
100
AcDbLinetypeTableRecord
  2
CENTERTINY
 70
    0
  3
Center (.15x) ___ _ ___ _ ___ _ ___ _ ___ _ ___
 72
   65
 73
    4
 40
7.62
 49
4.7625
 74
    0
 49
-0.9525
 74
    0
 49
0.9525
 74
    0
 49
-0.9525
 74
    0
  0
LTYPE
  5
48
330
5
100
AcDbSymbolTableRecord
100
AcDbLinetypeTableRecord
  2
CENTER2
 70
    0
  3
Center (.5x) ___ _ ___ _ ___ _ ___ _ ___ _ ___
 72
   65
 73
    4
 40
28.575
 49
19.05
 74
    0
 49
-3.175
 74
    0
 49
3.175
 74
    0
 49
-3.175
 74
    0
  0
LTYPE
  5
49
330
5
100
AcDbSymbolTableRecord
100
AcDbLinetypeTableRecord
  2
CENTERX2
 70
    0
  3
Center (2x) ________  __  ________  __  _____
 72
   65
 73
    4
 40
101.6
 49
63.5
 74
    0
 49
-12.7
 74
    0
 49
12.7
 74
    0
 49
-12.7
 74
    0
  0
ENDTAB
  0
TABLE
  2
LAYER
  5
2
330
0
100
AcDbSymbolTable
 70
    1
  0
LAYER
  5
10
330
2
100
AcDbSymbolTableRecord
100
AcDbLayerTableRecord
  2
0
 70
    0
 62
  256
  6
CONTINUOUS
370
   -3
390
F
  0
ENDTAB
  0
TABLE
  2
STYLE
  5
3
330
0
100
AcDbSymbolTable
 70
    3
  0
STYLE
  5
4A
330
2
100
AcDbSymbolTableRecord
100
AcDbTextStyleTableRecord
  2
Standard
 70
    0
 40
0
 41
1
 50
0
 71
    0
 42
1
  3
txt
  4

  0
ENDTAB
  0
TABLE
  2
VIEW
  5
6
330
0
100
AcDbSymbolTable
 70
    0
  0
ENDTAB
  0
TABLE
  2
UCS
  5
7
330
0
100
AcDbSymbolTable
 70
    0
  0
ENDTAB
  0
TABLE
  2
APPID
  5
9
330
0
100
AcDbSymbolTable
 70
    1
  0
APPID
  5
12
330
9
100
AcDbSymbolTableRecord
100
AcDbRegAppTableRecord
  2
ACAD
 70
    0
  0
APPID
  5
4B
330
9
100
AcDbSymbolTableRecord
100
AcDbRegAppTableRecord
  2
LibreCad
 70
    0
  0
ENDTAB
  0
TABLE
  2
DIMSTYLE
  5
A
330
0
100
AcDbSymbolTable
 70
    1
100
AcDbDimStyleTable
 71
    1
  0
DIMSTYLE
105
4C
330
A
100
AcDbSymbolTableRecord
100
AcDbDimStyleTableRecord
  2
Standard
 70
    0
 40
1
 41
2.5
 42
0.625
 43
0.38
 44
1.25
 45
0
 46
0
 47
0
 48
0
 49
1
140
2.5
141
0.09
142
0
143
25.4
144
1
145
0
146
1
147
0.625
148
0
 71
    0
 72
    0
 73
    1
 74
    1
 75
    0
 76
    0
 77
    0
 78
    8
 79
    0
170
    0
171
    2
172
    0
173
    0
174
    0
175
    0
176
    0
177
    0
178
    0
179
    0
271
    4
272
    4
273
    2
274
    2
275
    0
276
    0
277
    2
278
    0
279
    0
280
    0
281
    0
282
    0
283
    1
284
    0
285
    0
286
    0
288
    0
289
    3
340
standard
341

371
   -2
372
   -2
  0
ENDTAB
  0
TABLE
  2
BLOCK_RECORD
  5
1
330
0
100
AcDbSymbolTable
 70
    2
  0
BLOCK_RECORD
  5
1F
330
1
100
AcDbSymbolTableRecord
100
AcDbBlockTableRecord
  2
*Model_Space
 70
    0
280
    1
281
    0
  0
BLOCK_RECORD
  5
1E
330
1
100
AcDbSymbolTableRecord
100
AcDbBlockTableRecord
  2
*Paper_Space
 70
    0
280
    1
281
    0
  0
ENDTAB
  0
ENDSEC
  0
SECTION
  2
BLOCKS
  0
BLOCK
  5
20
330
1F
100
AcDbEntity
  8
0
100
AcDbBlockBegin
  2
*Model_Space
 70
    0
 10
0
 20
0
 30
0
  3
*Model_Space
  1

  0
ENDBLK
  5
21
330
1F
100
AcDbEntity
  8
0
100
AcDbBlockEnd
  0
BLOCK
  5
1C
330
1B
100
AcDbEntity
  8
0
100
AcDbBlockBegin
  2
*Paper_Space
 70
    0
 10
0
 20
0
 30
0
  3
*Paper_Space
  1

  0
ENDBLK
  5
1D
330
1F
100
AcDbEntity
  8
0
100
AcDbBlockEnd
  0
ENDSEC
  0
SECTION
  2
ENTITIES
  0
CIRCLE
  5
4D
100
AcDbEntity
  8
0
  6
ByLayer
 62
  256
370
   -1
100
AcDbCircle
 10
7.000000000000002
 20
-6
 40
1
  0
CIRCLE
  5
4E
100
AcDbEntity
  8
0
  6
ByLayer
 62
  256
370
   -1
100
AcDbCircle
 10
18.84455543968168
 20
-4.121887533637249
 40
1
  0
CIRCLE
  5
4F
100
AcDbEntity
  8
0
  6
ByLayer
 62
  256
370
   -1
100
AcDbCircle
 10
150.7067189314878
 20
-4.121887533637273
 40
1
  0
CIRCLE
  5
50
100
AcDbEntity
  8
0
  6
ByLayer
 62
  256
370
   -1
100
AcDbCircle
 10
162.5586512025334
 20
-6.001169695141176
 40
1
  0
CIRCLE
  5
51
100
AcDbEntity
  8
0
  6
ByLayer
 62
  256
370
   -1
100
AcDbCircle
 10
7.000000000000002
 20
-17
 40
1
  0
CIRCLE
  5
52
100
AcDbEntity
  8
0
  6
ByLayer
 62
  256
370
   -1
100
AcDbCircle
 10
18.84455543968168
 20
-15.12188753363725
 40
1
  0
CIRCLE
  5
53
100
AcDbEntity
  8
0
  6
ByLayer
 62
  256
370
   -1
100
AcDbCircle
 10
150.7067189314878
 20
-15.12188753363727
 40
1
  0
CIRCLE
  5
54
100
AcDbEntity
  8
0
  6
ByLayer
 62
  256
370
   -1
100
AcDbCircle
 10
162.5586512025334
 20
-17.00116969514118
 40
1
  0
CIRCLE
  5
55
100
AcDbEntity
  8
0
  6
ByLayer
 62
  256
370
   -1
100
AcDbCircle
 10
14.76074008417798
 20
-40.2407399550202
 40
1
  0
CIRCLE
  5
56
100
AcDbEntity
  8
0
  6
ByLayer
 62
  256
370
   -1
100
AcDbCircle
 10
14.7592600449798
 20
-31.76074008417798
 40
1
  0
CIRCLE
  5
57
100
AcDbEntity
  8
0
  6
ByLayer
 62
  256
370
   -1
100
AcDbCircle
 10
23.2407399550202
 20
-40.23925991582202
 40
1
  0
CIRCLE
  5
58
100
AcDbEntity
  8
0
  6
ByLayer
 62
  256
370
   -1
100
AcDbCircle
 10
23.23925991582202
 20
-31.7592600449798
 40
1
  0
CIRCLE
  5
59
100
AcDbEntity
  8
0
  6
ByLayer
 62
  256
370
   -1
100
AcDbCircle
 10
19
 20
-36
 40
2.5
  0
CIRCLE
  5
5A
100
AcDbEntity
  8
0
  6
ByLayer
 62
  256
370
   -1
100
AcDbCircle
 10
81.08397444258586
 20
-35.9891643022225
 40
1.5
  0
CIRCLE
  5
5B
100
AcDbEntity
  8
0
  6
ByLayer
 62
  256
370
   -1
100
AcDbCircle
 10
90.09251469769457
 20
-35.98759201532404
 40
1.5
  0
CIRCLE
  5
5C
100
AcDbEntity
  8
0
  6
ByLayer
 62
  256
370
   -1
100
AcDbCircle
 10
14.76074008417798
 20
-68.2407399550202
 40
1
  0
CIRCLE
  5
5D
100
AcDbEntity
  8
0
  6
ByLayer
 62
  256
370
   -1
100
AcDbCircle
 10
14.7592600449798
 20
-59.76074008417798
 40
1
  0
CIRCLE
  5
5E
100
AcDbEntity
  8
0
  6
ByLayer
 62
  256
370
   -1
100
AcDbCircle
 10
23.2407399550202
 20
-68.23925991582202
 40
1
  0
CIRCLE
  5
5F
100
AcDbEntity
  8
0
  6
ByLayer
 62
  256
370
   -1
100
AcDbCircle
 10
23.23925991582202
 20
-59.7592600449798
 40
1
  0
CIRCLE
  5
60
100
AcDbEntity
  8
0
  6
ByLayer
 62
  256
370
   -1
100
AcDbCircle
 10
19
 20
-64
 40
2.5
  0
CIRCLE
  5
61
100
AcDbEntity
  8
0
  6
ByLayer
 62
  256
370
   -1
100
AcDbCircle
 10
81.08397444258586
 20
-63.9891643022225
 40
1.5
  0
CIRCLE
  5
62
100
AcDbEntity
  8
0
  6
ByLayer
 62
  256
370
   -1
100
AcDbCircle
 10
90.09251469769457
 20
-63.98759201532404
 40
1.5
  0
CIRCLE
  5
63
100
AcDbEntity
  8
0
  6
ByLayer
 62
  256
370
   -1
100
AcDbCircle
 10
111.3317746135166
 20
-73.74685206030385
 40
1
  0
CIRCLE
  5
64
100
AcDbEntity
  8
0
  6
ByLayer
 62
  256
370
   -1
100
AcDbCircle
 10
111.3332546527148
 20
-82.22685193114607
 40
1
  0
CIRCLE
  5
65
100
AcDbEntity
  8
0
  6
ByLayer
 62
  256
370
   -1
100
AcDbCircle
 10
102.8517747426743
 20
-73.74833209950204
 40
1
  0
CIRCLE
  5
66
100
AcDbEntity
  8
0
  6
ByLayer
 62
  256
370
   -1
100
AcDbCircle
 10
102.8532547818726
 20
-82.22833197034426
 40
1
  0
CIRCLE
  5
67
100
AcDbEntity
  8
0
  6
ByLayer
 62
  256
370
   -1
100
AcDbCircle
 10
107.0925146976946
 20
-77.98759201532404
 40
2.5
  0
CIRCLE
  5
68
100
AcDbEntity
  8
0
  6
ByLayer
 62
  256
370
   -1
100
AcDbCircle
 10
45.0085402551087
 20
-77.99842771310155
 40
1.5
  0
CIRCLE
  5
69
100
AcDbEntity
  8
0
  6
ByLayer
 62
  256
370
   -1
100
AcDbCircle
 10
35.99999999999997
 20
-78
 40
1.5
  0
CIRCLE
  5
6A
100
AcDbEntity
  8
0
  6
ByLayer
 62
  256
370
   -1
100
AcDbCircle
 10
111.3317746135166
 20
-45.74685206030385
 40
1
  0
CIRCLE
  5
6B
100
AcDbEntity
  8
0
  6
ByLayer
 62
  256
370
   -1
100
AcDbCircle
 10
111.3332546527148
 20
-54.22685193114607
 40
1
  0
CIRCLE
  5
6C
100
AcDbEntity
  8
0
  6
ByLayer
 62
  256
370
   -1
100
AcDbCircle
 10
102.8517747426743
 20
-45.74833209950204
 40
1
  0
CIRCLE
  5
6D
100
AcDbEntity
  8
0
  6
ByLayer
 62
  256
370
   -1
100
AcDbCircle
 10
102.8532547818726
 20
-54.22833197034426
 40
1
  0
CIRCLE
  5
6E
100
AcDbEntity
  8
0
  6
ByLayer
 62
  256
370
   -1
100
AcDbCircle
 10
107.0925146976946
 20
-49.98759201532405
 40
2.5
  0
CIRCLE
  5
6F
100
AcDbEntity
  8
0
  6
ByLayer
 62
  256
370
   -1
100
AcDbCircle
 10
45.0085402551087
 20
-49.99842771310155
 40
1.5
  0
CIRCLE
  5
70
100
AcDbEntity
  8
0
  6
ByLayer
 62
  256
370
   -1
100
AcDbCircle
 10
35.99999999999997
 20
-50
 40
1.5
  0
CIRCLE
  5
71
100
AcDbEntity
  8
0
  6
ByLayer
 62
  256
370
   -1
100
AcDbCircle
 10
6.259999999999813
 20
-134.2400000000002
 40
1.5
  0
CIRCLE
  5
72
100
AcDbEntity
  8
0
  6
ByLayer
 62
  256
370
   -1
100
AcDbCircle
 10
6.25999999999965
 20
-91.00000000000023
 40
1.5
  0
CIRCLE
  5
73
100
AcDbEntity
  8
0
  6
ByLayer
 62
  256
370
   -1
100
AcDbCircle
 10
77.0000000000001
 20
-134.2400000000002
 40
1.5
  0
CIRCLE
  5
74
100
AcDbEntity
  8
0
  6
ByLayer
 62
  256
370
   -1
100
AcDbCircle
 10
77
 20
-90.99999999999994
 40
1.5
  0
CIRCLE
  5
75
100
AcDbEntity
  8
0
  6
ByLayer
 62
  256
370
   -1
100
AcDbCircle
 10
62.6299999999999
 20
-122.6200000000002
 40
1
  0
CIRCLE
  5
76
100
AcDbEntity
  8
0
  6
ByLayer
 62
  256
370
   -1
100
AcDbCircle
 10
62.6299999999999
 20
-102.6200000000002
 40
1
  0
CIRCLE
  5
77
100
AcDbEntity
  8
0
  6
ByLayer
 62
  256
370
   -1
100
AcDbCircle
 10
42.6299999999999
 20
-102.6200000000002
 40
1
  0
CIRCLE
  5
78
100
AcDbEntity
  8
0
  6
ByLayer
 62
  256
370
   -1
100
AcDbCircle
 10
42.6299999999999
 20
-122.6200000000002
 40
1
  0
CIRCLE
  5
79
100
AcDbEntity
  8
0
  6
ByLayer
 62
  256
370
   -1
100
AcDbCircle
 10
52.62999999999991
 20
-112.6200000000002
 40
5.119751269282875
  0
CIRCLE
  5
7A
100
AcDbEntity
  8
0
  6
ByLayer
 62
  256
370
   -1
100
AcDbCircle
 10
27.1299999999999
 20
-112.6200000000002
 40
6.74876303678197
  0
CIRCLE
  5
7B
100
AcDbEntity
  8
0
  6
ByLayer
 62
  256
370
   -1
100
AcDbCircle
 10
81.6299999999999
 20
-112.6200000000002
 40
1.5
  0
CIRCLE
  5
7C
100
AcDbEntity
  8
0
  6
ByLayer
 62
  256
370
   -1
100
AcDbCircle
 10
11.55381509981488
 20
-126.9510136720552
 40
1.5
  0
CIRCLE
  5
7D
100
AcDbEntity
  8
0
  6
ByLayer
 62
  256
370
   -1
100
AcDbCircle
 10
11.55381509981491
 20
-98.28898632794505
 40
1.5
  0
CIRCLE
  5
7E
100
AcDbEntity
  8
0
  6
ByLayer
 62
  256
370
   -1
100
AcDbCircle
 10
71.70618490018489
 20
-98.28898632794527
 40
1.5
  0
CIRCLE
  5
7F
100
AcDbEntity
  8
0
  6
ByLayer
 62
  256
370
   -1
100
AcDbCircle
 10
71.70618490018489
 20
-126.9510136720551
 40
1.5
  0
CIRCLE
  5
80
100
AcDbEntity
  8
0
  6
ByLayer
 62
  256
370
   -1
100
AcDbCircle
 10
159.076184900185
 20
-111.3310136720551
 40
1.5
  0
LWPOLYLINE
  5
81
100
AcDbEntity
  8
0
  6
ByLayer
 62
  256
370
   -1
100
AcDbPolyline
 90
    6
 70
    1
 43
0
 10
108.8061849001849
 20
-116.8510136720551
 10
108.8061849001849
 20
-119.8510136720551
 42
0.414213562373095
 10
110.8061849001849
 20
-121.8510136720551
 10
130.8061849001849
 20
-117.8510136720551
 42
0.9999999999999999
 10
130.8061849001849
 20
-114.8510136720551
 10
110.8061849001849
 20
-114.8510136720551
 42
0.414213562373095
  0
LWPOLYLINE
  5
82
100
AcDbEntity
  8
0
  6
ByLayer
 62
  256
370
   -1
100
AcDbPolyline
 90
    6
 70
    1
 43
0
 10
108.8061849001849
 20
-105.811013672055
 10
108.8061849001849
 20
-102.811013672055
 42
-0.414213562373095
 10
110.8061849001849
 20
-100.8110136720551
 10
130.8061849001849
 20
-104.811013672055
 42
-0.9999999999999999
 10
130.8061849001849
 20
-107.811013672055
 10
110.8061849001849
 20
-107.811013672055
 42
-0.414213562373095
  0
CIRCLE
  5
83
100
AcDbEntity
  8
0
  6
ByLayer
 62
  256
370
   -1
100
AcDbCircle
 10
89
 20
-125.6620273441101
 40
1.5
  0
CIRCLE
  5
84
100
AcDbEntity
  8
0
  6
ByLayer
 62
  256
370
   -1
100
AcDbCircle
 10
89
 20
-97
 40
1.5
  0
LWPOLYLINE
  5
85
100
AcDbEntity
  8
0
  6
ByLayer
 62
  256
370
   -1
100
AcDbPolyline
 90
    4
 70
    1
 43
0
 10
163.9548087287647
 20
-9.060943766818493
 42
0.9999999999999999
 10
163.9548087287647
 20
-1.060943766818491
 10
4.922277719840841
 20
-1.060943766818626
 42
0.9999999999999999
 10
4.922277719840841
 20
-9.060943766818626
  0
LWPOLYLINE
  5
86
100
AcDbEntity
  8
0
  6
ByLayer
 62
  256
370
   -1
100
AcDbPolyline
 90
    4
 70
    1
 43
0
 10
163.9548087287647
 20
-20.06094376681849
 42
0.9999999999999999
 10
163.9548087287647
 20
-12.06094376681849
 10
4.922277719840841
 20
-12.06094376681862
 42
0.9999999999999999
 10
4.922277719840841
 20
-20.06094376681862
  0
LWPOLYLINE
  5
87
100
AcDbEntity
  8
0
  6
ByLayer
 62
  256
370
   -1
100
AcDbPolyline
 90
  113
 70
    1
 43
0
 10
90.09177467809548
 20
-31.74759207990293
 42
-0.9999999999999981
 10
90.09325471729365
 20
-40.22759195074517
 10
80.64355189505287
 20
-40.23676745419391
 10
72.13242472569951
 20
-40.24346536615874
 10
64.55987320923364
 20
-40.24768568663963
 10
57.92589734565524
 20
-40.24942841563661
 10
52.23049713496425
 20
-40.24869355314967
 10
47.47367257716076
 20
-40.24548109917882
 10
43.65542367224469
 20
-40.23979105372403
 10
40.7757504202161
 20
-40.23162341678534
 10
38.47361165841723
 20
-40.26340928495446
 10
36.38796622419036
 20
-40.37757975482316
 10
34.5188141175355
 20
-40.57413482639144
 10
32.86615533845264
 20
-40.8530744996593
 10
31.42998988694179
 20
-41.21439877462673
 10
30.21031776300294
 20
-41.65810765129373
 10
29.20713896663609
 20
-42.18420112966032
 10
28.42045349784125
 20
-42.79267920972648
 10
27.74989069129906
 20
-43.42081453719705
 10
27.09507988169018
 20
-44.0058797577769
 10
26.45602106901458
 20
-44.547874871466
 10
25.83271425327229
 20
-45.04679987826438
 10
25.2251594344633
 20
-45.50265477817202
 10
24.63335661258761
 20
-45.91543957118893
 10
24.05730578764522
 20
-46.28515425731509
 10
23.49700695963612
 20
-46.61179883655052
 10
22.93462544678556
 20
-46.89578585912999
 10
22.35232656731877
 20
-47.13752787528826
 10
21.75011032123574
 20
-47.33702488502531
 10
21.12797670853649
 20
-47.49427688834118
 10
20.48592572922099
 20
-47.60928388523584
 10
19.82395738328927
 20
-47.68204587570931
 10
19.14207167074131
 20
-47.71256285976156
 10
18.44026859157711
 20
-47.70083483739262
 10
17.71286140117056
 20
-47.63568269401166
 10
16.95416335489558
 20
-47.50592731502788
 10
16.16417445275213
 20
-47.31156870044124
 10
15.34289469474023
 20
-47.05260685025177
 10
14.49032408085987
 20
-46.72904176445947
 10
13.60646261111105
 20
-46.34087344306432
 10
12.69131028549379
 20
-45.88810188606636
 10
11.74486710400807
 20
-45.37072709346555
 10
10.78830749731013
 20
-44.82530154755784
 10
9.842805896056197
 20
-44.28837773063916
 10
8.908362300246285
 20
-43.75995564270951
 10
7.984976709880378
 20
-43.2400352837689
 10
7.072649124958481
 20
-42.72861665381733
 10
6.171379545480601
 20
-42.22569975285478
 10
5.281167971446727
 20
-41.73128458088126
 10
4.402014402856867
 20
-41.24537113789678
 10
3.582982330560249
 20
-40.74200679886282
 10
2.873135245406068
 20
-40.19523893874091
 10
2.272473147394344
 20
-39.60506755753104
 10
1.780996036525064
 20
-38.9714926552332
 10
1.39870391279824
 20
-38.2945142318474
 10
1.125596776213868
 20
-37.57413228737363
 10
0.9616746267719449
 20
-36.8103468218119
 10
0.9069374644724775
 20
-36.00315783516221
 10
0.9613928613328326
 20
-35.19594979081556
 10
1.125048389370402
 20
-34.43210715216297
 10
1.397904048585193
 20
-33.71162991920443
 10
1.779959838977181
 20
-33.03451809193996
 10
2.271215760546387
 20
-32.40077167036954
 10
2.871671813292803
 20
-31.81039065449317
 10
3.581327997216437
 20
-31.26337504431086
 10
4.400184312317275
 20
-30.7597248398226
 10
5.279168211560286
 20
-30.27350454395983
 10
6.169207147910416
 20
-29.778778659654
 10
7.070301121367663
 20
-29.27554718690509
 10
7.982450131932037
 20
-28.7638101257131
 10
8.905654179603527
 20
-28.24356747607805
 10
9.83991326438214
 20
-27.71481923799992
 10
10.78522738626787
 20
-27.17756541147872
 10
11.74159654526073
 20
-26.63180599651444
 10
12.68785907121755
 20
-26.11410086444662
 10
13.60285329399517
 20
-25.66100988661477
 10
14.48657921359361
 20
-25.27253306301889
 10
15.33903683001286
 20
-24.94867039365899
 10
16.16022614325292
 20
-24.68942187853505
 10
16.95014715331379
 20
-24.4947875176471
 10
17.70879986019546
 20
-24.36476731099511
 10
18.43618426389795
 20
-24.29936125857909
 10
19.13798320645384
 20
-24.287388261441
 10
19.81987952989572
 20
-24.31766722062277
 10
20.4818732342236
 20
-24.3901981361244
 10
21.12396431943747
 20
-24.50498100794589
 10
21.74615278553733
 20
-24.66201583608724
 10
22.34843863252319
 20
-24.86130262054846
 10
22.93082186039504
 20
-25.10284136132954
 10
23.49330246915288
 20
-25.38663205843048
 10
24.05371528349213
 20
-25.71308103658269
 10
24.6298951281082
 20
-26.08259462051755
 10
25.22184200300108
 20
-26.49517281023508
 10
25.82955590817078
 20
-26.95081560573527
 10
26.45303684361729
 20
-27.44952300701811
 10
27.09228480934062
 20
-27.99129501408362
 10
27.74729980534077
 20
-28.57613162693179
 10
28.41808183161773
 20
-29.20403284556262
 10
29.20497965139911
 20
-29.81223628353159
 10
30.20834202791249
 20
-30.33797955439417
 10
31.42816896115788
 20
-30.78126265815039
 10
32.86446045113528
 20
-31.14208559480022
 10
34.51721649784469
 20
-31.42044836434367
 10
36.38643710128611
 20
-31.61635096678075
 10
38.47212226145954
 20
-31.72979340211145
 10
40.77427197836498
 20
-31.76077567033576
 10
43.65394220391077
 20
-31.75160283832249
 10
47.47218889000528
 20
-31.7445799729404
 10
52.22901203664853
 20
-31.73970707418951
 10
57.92441164384049
 20
-31.73698414206981
 10
64.55838771158116
 20
-31.7364111765813
 10
72.13094023987054
 20
-31.737988177724
 10
80.64206922870866
 20
-31.74171514549787
  0
LWPOLYLINE
  5
88
100
AcDbEntity
  8
0
  6
ByLayer
 62
  256
370
   -1
100
AcDbPolyline
 90
  113
 70
    1
 43
0
 10
36.00074001959908
 20
-54.23999993542111
 42
-0.9999999999999999
 10
35.99925998040092
 20
-45.76000006457888
 10
45.44896280264169
 20
-45.75082456113013
 10
53.96008997199505
 20
-45.7441266491653
 10
61.53264148846091
 20
-45.73990632868441
 10
68.16661735203931
 20
-45.73816359968743
 10
73.8620175627303
 20
-45.73889846217436
 10
78.6188421205338
 20
-45.74211091614522
 10
82.43709102544986
 20
-45.74780096160001
 10
85.31676427747846
 20
-45.7559685985387
 10
87.61890303927734
 20
-45.72418273036958
 10
89.70454847350419
 20
-45.61001226050088
 10
91.57370058015906
 20
-45.4134571889326
 10
93.22635935924191
 20
-45.13451751566474
 10
94.66252481075279
 20
-44.77319324069732
 10
95.88219693469162
 20
-44.32948436403032
 10
96.88537573105847
 20
-43.80339088566373
 10
97.67206119985329
 20
-43.19491280559757
 10
98.34262400639548
 20
-42.56677747812699
 10
98.99743481600441
 20
-41.98171225754716
 10
99.63649362867997
 20
-41.43971714385805
 10
100.2598004444223
 20
-40.94079213705967
 10
100.8673552632312
 20
-40.48493723715204
 10
101.459158085107
 20
-40.07215244413513
 10
102.0352089100494
 20
-39.70243775800897
 10
102.5955077380584
 20
-39.37579317877353
 10
103.157889250909
 20
-39.09180615619407
 10
103.7401881303758
 20
-38.8500641400358
 10
104.3424043764588
 20
-38.65056713029874
 10
104.9645379891581
 20
-38.49331512698288
 10
105.6065889684736
 20
-38.37830813008821
 10
106.2685573144053
 20
-38.30554613961475
 10
106.9504430269533
 20
-38.27502915556249
 10
107.6522461061175
 20
-38.28675717793143
 10
108.379653296524
 20
-38.35190932131239
 10
109.138351342799
 20
-38.48166470029618
 10
109.9283402449425
 20
-38.67602331488281
 10
110.7496200029543
 20
-38.93498516507228
 10
111.6021906168347
 20
-39.25855025086457
 10
112.4860520865835
 20
-39.64671857225973
 10
113.4012044122008
 20
-40.0994901292577
 10
114.3476475936865
 20
-40.61686492185851
 10
115.3042072003844
 20
-41.16229046776621
 10
116.2497088016384
 20
-41.6992142846849
 10
117.1841523974483
 20
-42.22763637261454
 10
118.1075379878142
 20
-42.74755673155515
 10
119.0198655727361
 20
-43.25897536150673
 10
119.921135152214
 20
-43.76189226246927
 10
120.8113467262478
 20
-44.25630743444279
 10
121.6905002948377
 20
-44.74222087742729
 10
122.5095323671343
 20
-45.24558521646124
 10
123.2193794522885
 20
-45.79235307658314
 10
123.8200415503002
 20
-46.38252445779301
 10
124.3115186611695
 20
-47.01609936009086
 10
124.6938107848963
 20
-47.69307778347665
 10
124.9669179214807
 20
-48.41345972795042
 10
125.1308400709226
 20
-49.17724519351216
 10
125.1855772332221
 20
-49.98443418016186
 10
125.1311218363617
 20
-50.79164222450849
 10
124.9674663083241
 20
-51.55548486316108
 10
124.6946106491094
 20
-52.27596209611963
 10
124.3125548587174
 20
-52.9530739233841
 10
123.8212989371482
 20
-53.58682034495452
 10
123.2208428844017
 20
-54.17720136083089
 10
122.5111867004781
 20
-54.72421697101319
 10
121.6923303853773
 20
-55.22786717550146
 10
120.8133464861342
 20
-55.71408747136422
 10
119.9233075497841
 20
-56.20881335567006
 10
119.0222135763269
 20
-56.71204482841897
 10
118.1100645657625
 20
-57.22378188961095
 10
117.186860518091
 20
-57.744024539246
 10
116.2526014333124
 20
-58.27277277732414
 10
115.3072873114267
 20
-58.81002660384533
 10
114.3509181524338
 20
-59.35578601880961
 10
113.404655626477
 20
-59.87349115087744
 10
112.4896614036994
 20
-60.32658212870928
 10
111.6059354841009
 20
-60.71505895230516
 10
110.7534778676817
 20
-61.03892162166507
 10
109.9322885544416
 20
-61.298170136789
 10
109.1423675443807
 20
-61.49280449767696
 10
108.3837148374991
 20
-61.62282470432895
 10
107.6563304337966
 20
-61.68823075674496
 10
106.9545314912407
 20
-61.70020375388306
 10
106.2726351677988
 20
-61.66992479470129
 10
105.610641463471
 20
-61.59739387919966
 10
104.968550378257
 20
-61.48261100737817
 10
104.3463619121572
 20
-61.3255761792368
 10
103.7440760651714
 20
-61.1262893947756
 10
103.1616928372995
 20
-60.88475065399452
 10
102.5992122285417
 20
-60.60095995689358
 10
102.0387994142024
 20
-60.27451097874138
 10
101.4626195695863
 20
-59.9049973948065
 10
100.8706726946935
 20
-59.49241920508898
 10
100.2629587895238
 20
-59.03677640958878
 10
99.63947785407723
 20
-58.53806900830594
 10
99.00022988835391
 20
-57.99629700124044
 10
98.34521489235377
 20
-57.41146038839227
 10
97.67443286607684
 20
-56.78355916976145
 10
96.88753504629543
 20
-56.17535573179246
 10
95.88417266978203
 20
-55.64961246092989
 10
94.66434573653666
 20
-55.20632935717367
 10
93.22805424655925
 20
-54.84550642052382
 10
91.57529819984987
 20
-54.56714365098037
 10
89.70607759640845
 20
-54.3712410485433
 10
87.62039243623502
 20
-54.25779861321259
 10
85.31824271932956
 20
-54.22681634498828
 10
82.43857249378377
 20
-54.23598917700154
 10
78.62032580768928
 20
-54.24301204238364
 10
73.86350266104603
 20
-54.24788494113453
 10
68.16810305385408
 20
-54.25060787325422
 10
61.53412698611339
 20
-54.25118083874274
 10
53.96157445782401
 20
-54.24960383760005
 10
45.45044546898589
 20
-54.24587686982618
  0
LWPOLYLINE
  5
89
100
AcDbEntity
  8
0
  6
ByLayer
 62
  256
370
   -1
100
AcDbPolyline
 90
  113
 70
    1
 43
0
 10
90.09177467809548
 20
-59.74759207990293
 42
-0.9999999999999981
 10
90.09325471729365
 20
-68.22759195074516
 10
80.64355189505287
 20
-68.23676745419391
 10
72.13242472569951
 20
-68.24346536615874
 10
64.55987320923364
 20
-68.24768568663963
 10
57.92589734565524
 20
-68.24942841563661
 10
52.23049713496425
 20
-68.24869355314968
 10
47.47367257716076
 20
-68.24548109917882
 10
43.65542367224469
 20
-68.23979105372403
 10
40.7757504202161
 20
-68.23162341678534
 10
38.47361165841723
 20
-68.26340928495446
 10
36.38796622419036
 20
-68.37757975482316
 10
34.5188141175355
 20
-68.57413482639144
 10
32.86615533845264
 20
-68.8530744996593
 10
31.42998988694179
 20
-69.21439877462673
 10
30.21031776300294
 20
-69.65810765129373
 10
29.20713896663609
 20
-70.18420112966032
 10
28.42045349784125
 20
-70.79267920972649
 10
27.74989069129906
 20
-71.42081453719706
 10
27.09507988169018
 20
-72.0058797577769
 10
26.45602106901458
 20
-72.54787487146601
 10
25.83271425327229
 20
-73.04679987826438
 10
25.2251594344633
 20
-73.50265477817202
 10
24.63335661258761
 20
-73.91543957118893
 10
24.05730578764522
 20
-74.28515425731509
 10
23.49700695963612
 20
-74.61179883655052
 10
22.93462544678556
 20
-74.89578585912999
 10
22.35232656731877
 20
-75.13752787528826
 10
21.75011032123574
 20
-75.33702488502531
 10
21.12797670853649
 20
-75.49427688834118
 10
20.48592572922099
 20
-75.60928388523584
 10
19.82395738328927
 20
-75.68204587570931
 10
19.14207167074131
 20
-75.71256285976156
 10
18.44026859157711
 20
-75.70083483739262
 10
17.71286140117056
 20
-75.63568269401166
 10
16.95416335489558
 20
-75.50592731502788
 10
16.16417445275213
 20
-75.31156870044124
 10
15.34289469474023
 20
-75.05260685025178
 10
14.49032408085987
 20
-74.72904176445948
 10
13.60646261111105
 20
-74.34087344306432
 10
12.69131028549379
 20
-73.88810188606635
 10
11.74486710400807
 20
-73.37072709346555
 10
10.78830749731013
 20
-72.82530154755784
 10
9.842805896056197
 20
-72.28837773063916
 10
8.908362300246285
 20
-71.75995564270951
 10
7.984976709880378
 20
-71.2400352837689
 10
7.072649124958481
 20
-70.72861665381733
 10
6.171379545480601
 20
-70.22569975285478
 10
5.281167971446727
 20
-69.73128458088127
 10
4.402014402856867
 20
-69.24537113789677
 10
3.582982330560249
 20
-68.74200679886282
 10
2.873135245406068
 20
-68.19523893874091
 10
2.272473147394344
 20
-67.60506755753104
 10
1.780996036525064
 20
-66.97149265523319
 10
1.39870391279824
 20
-66.2945142318474
 10
1.125596776213868
 20
-65.57413228737363
 10
0.9616746267719449
 20
-64.81034682181189
 10
0.9069374644724775
 20
-64.0031578351622
 10
0.9613928613328326
 20
-63.19594979081556
 10
1.125048389370402
 20
-62.43210715216297
 10
1.397904048585193
 20
-61.71162991920443
 10
1.779959838977181
 20
-61.03451809193996
 10
2.271215760546387
 20
-60.40077167036954
 10
2.871671813292803
 20
-59.81039065449316
 10
3.581327997216437
 20
-59.26337504431086
 10
4.400184312317275
 20
-58.7597248398226
 10
5.279168211560286
 20
-58.27350454395983
 10
6.169207147910416
 20
-57.77877865965399
 10
7.070301121367663
 20
-57.27554718690509
 10
7.982450131932037
 20
-56.76381012571311
 10
8.905654179603527
 20
-56.24356747607805
 10
9.83991326438214
 20
-55.71481923799992
 10
10.78522738626787
 20
-55.17756541147872
 10
11.74159654526073
 20
-54.63180599651444
 10
12.68785907121755
 20
-54.11410086444662
 10
13.60285329399517
 20
-53.66100988661477
 10
14.48657921359361
 20
-53.27253306301889
 10
15.33903683001286
 20
-52.94867039365899
 10
16.16022614325292
 20
-52.68942187853506
 10
16.95014715331379
 20
-52.4947875176471
 10
17.70879986019546
 20
-52.36476731099511
 10
18.43618426389795
 20
-52.2993612585791
 10
19.13798320645384
 20
-52.287388261441
 10
19.81987952989572
 20
-52.31766722062277
 10
20.4818732342236
 20
-52.3901981361244
 10
21.12396431943747
 20
-52.50498100794589
 10
21.74615278553733
 20
-52.66201583608724
 10
22.34843863252319
 20
-52.86130262054846
 10
22.93082186039504
 20
-53.10284136132954
 10
23.49330246915288
 20
-53.38663205843048
 10
24.05371528349213
 20
-53.71308103658269
 10
24.6298951281082
 20
-54.08259462051755
 10
25.22184200300108
 20
-54.49517281023508
 10
25.82955590817078
 20
-54.95081560573527
 10
26.45303684361729
 20
-55.44952300701812
 10
27.09228480934062
 20
-55.99129501408362
 10
27.74729980534077
 20
-56.57613162693178
 10
28.41808183161773
 20
-57.20403284556262
 10
29.20497965139911
 20
-57.81223628353159
 10
30.20834202791249
 20
-58.33797955439417
 10
31.42816896115788
 20
-58.78126265815039
 10
32.86446045113528
 20
-59.14208559480022
 10
34.51721649784469
 20
-59.42044836434367
 10
36.38643710128611
 20
-59.61635096678075
 10
38.47212226145954
 20
-59.72979340211145
 10
40.77427197836498
 20
-59.76077567033576
 10
43.65394220391077
 20
-59.75160283832249
 10
47.47218889000528
 20
-59.7445799729404
 10
52.22901203664853
 20
-59.73970707418951
 10
57.92441164384049
 20
-59.73698414206982
 10
64.55838771158116
 20
-59.7364111765813
 10
72.13094023987054
 20
-59.73798817772399
 10
80.64206922870866
 20
-59.74171514549787
  0
LWPOLYLINE
  5
8A
100
AcDbEntity
  8
0
  6
ByLayer
 62
  256
370
   -1
100
AcDbPolyline
 90
  113
 70
    1
 43
0
 10
36.00074001959908
 20
-82.23999993542112
 42
-0.9999999999999999
 10
35.99925998040092
 20
-73.76000006457888
 10
45.44896280264169
 20
-73.75082456113013
 10
53.96008997199505
 20
-73.74412664916531
 10
61.53264148846091
 20
-73.73990632868441
 10
68.16661735203931
 20
-73.73816359968743
 10
73.8620175627303
 20
-73.73889846217438
 10
78.6188421205338
 20
-73.74211091614522
 10
82.43709102544986
 20
-73.74780096160001
 10
85.31676427747846
 20
-73.7559685985387
 10
87.61890303927734
 20
-73.72418273036958
 10
89.70454847350419
 20
-73.61001226050088
 10
91.57370058015906
 20
-73.4134571889326
 10
93.22635935924191
 20
-73.13451751566474
 10
94.66252481075273
 20
-72.77319324069732
 10
95.88219693469162
 20
-72.32948436403032
 10
96.88537573105847
 20
-71.80339088566373
 10
97.67206119985329
 20
-71.19491280559757
 10
98.34262400639548
 20
-70.56677747812699
 10
98.99743481600436
 20
-69.98171225754716
 10
99.63649362867997
 20
-69.43971714385805
 10
100.2598004444223
 20
-68.94079213705967
 10
100.8673552632312
 20
-68.48493723715204
 10
101.4591580851069
 20
-68.07215244413513
 10
102.0352089100493
 20
-67.70243775800897
 10
102.5955077380584
 20
-67.37579317877353
 10
103.157889250909
 20
-67.09180615619407
 10
103.7401881303757
 20
-66.8500641400358
 10
104.3424043764588
 20
-66.65056713029874
 10
104.9645379891581
 20
-66.49331512698286
 10
105.6065889684736
 20
-66.37830813008821
 10
106.2685573144053
 20
-66.30554613961475
 10
106.9504430269533
 20
-66.27502915556249
 10
107.6522461061174
 20
-66.28675717793143
 10
108.379653296524
 20
-66.35190932131239
 10
109.138351342799
 20
-66.48166470029618
 10
109.9283402449424
 20
-66.67602331488281
 10
110.7496200029543
 20
-66.93498516507228
 10
111.6021906168347
 20
-67.25855025086457
 10
112.4860520865835
 20
-67.64671857225973
 10
113.4012044122008
 20
-68.09949012925769
 10
114.3476475936864
 20
-68.61686492185849
 10
115.3042072003844
 20
-69.16229046776621
 10
116.2497088016384
 20
-69.69921428468489
 10
117.1841523974483
 20
-70.22763637261454
 10
118.1075379878141
 20
-70.74755673155515
 10
119.0198655727361
 20
-71.25897536150673
 10
119.921135152214
 20
-71.76189226246927
 10
120.8113467262478
 20
-72.25630743444279
 10
121.6905002948377
 20
-72.74222087742727
 10
122.5095323671343
 20
-73.24558521646124
 10
123.2193794522885
 20
-73.79235307658314
 10
123.8200415503002
 20
-74.38252445779301
 10
124.3115186611695
 20
-75.01609936009085
 10
124.6938107848963
 20
-75.69307778347665
 10
124.9669179214807
 20
-76.41345972795042
 10
125.1308400709226
 20
-77.17724519351215
 10
125.1855772332221
 20
-77.98443418016184
 10
125.1311218363617
 20
-78.79164222450849
 10
124.9674663083241
 20
-79.55548486316108
 10
124.6946106491094
 20
-80.27596209611961
 10
124.3125548587174
 20
-80.9530739233841
 10
123.8212989371482
 20
-81.58682034495452
 10
123.2208428844017
 20
-82.17720136083089
 10
122.5111867004781
 20
-82.72421697101319
 10
121.6923303853773
 20
-83.22786717550146
 10
120.8133464861342
 20
-83.71408747136422
 10
119.9233075497841
 20
-84.20881335567006
 10
119.0222135763269
 20
-84.71204482841897
 10
118.1100645657625
 20
-85.22378188961095
 10
117.186860518091
 20
-85.744024539246
 10
116.2526014333124
 20
-86.27277277732414
 10
115.3072873114267
 20
-86.81002660384533
 10
114.3509181524338
 20
-87.35578601880961
 10
113.404655626477
 20
-87.87349115087743
 10
112.4896614036994
 20
-88.32658212870928
 10
111.6059354841009
 20
-88.71505895230516
 10
110.7534778676817
 20
-89.03892162166507
 10
109.9322885544416
 20
-89.298170136789
 10
109.1423675443807
 20
-89.49280449767696
 10
108.3837148374991
 20
-89.62282470432895
 10
107.6563304337966
 20
-89.68823075674496
 10
106.9545314912407
 20
-89.70020375388306
 10
106.2726351677988
 20
-89.66992479470129
 10
105.610641463471
 20
-89.59739387919966
 10
104.968550378257
 20
-89.48261100737817
 10
104.3463619121572
 20
-89.3255761792368
 10
103.7440760651714
 20
-89.1262893947756
 10
103.1616928372995
 20
-88.88475065399452
 10
102.5992122285417
 20
-88.60095995689358
 10
102.0387994142024
 20
-88.27451097874136
 10
101.4626195695863
 20
-87.9049973948065
 10
100.8706726946935
 20
-87.49241920508898
 10
100.2629587895238
 20
-87.03677640958878
 10
99.63947785407723
 20
-86.53806900830594
 10
99.00022988835391
 20
-85.99629700124044
 10
98.34521489235377
 20
-85.41146038839227
 10
97.67443286607684
 20
-84.78355916976143
 10
96.88753504629543
 20
-84.17535573179246
 10
95.88417266978203
 20
-83.64961246092987
 10
94.66434573653666
 20
-83.20632935717366
 10
93.22805424655925
 20
-82.84550642052382
 10
91.57529819984987
 20
-82.56714365098037
 10
89.70607759640845
 20
-82.3712410485433
 10
87.62039243623502
 20
-82.2577986132126
 10
85.31824271932956
 20
-82.22681634498828
 10
82.43857249378377
 20
-82.23598917700156
 10
78.62032580768928
 20
-82.24301204238364
 10
73.86350266104603
 20
-82.24788494113453
 10
68.16810305385408
 20
-82.25060787325422
 10
61.53412698611339
 20
-82.25118083874274
 10
53.96157445782401
 20
-82.24960383760005
 10
45.45044546898589
 20
-82.24587686982618
  0
LWPOLYLINE
  5
8B
100
AcDbEntity
  8
0
  6
ByLayer
 62
  256
370
   -1
100
AcDbPolyline
 90
  208
 70
    1
 43
0
 10
81.6299999999999
 20
-108.6200000000002
 10
81.607976517308
 20
-108.6149114976714
 10
81.5445925755092
 20
-108.5982722102985
 10
81.4438779340192
 20
-108.5680214673013
 10
81.3098623522534
 20
-108.5220985980997
 10
81.1465755896274
 20
-108.4584429321137
 10
80.9580474055568
 20
-108.374993798763
 10
80.748307559457
 20
-108.2696905274678
 10
80.52138581074369
 20
-108.1404724476478
 10
80.2813119188324
 20
-107.9852788887229
 10
80.0321156431386
 20
-107.8020491801131
 10
79.7778267430779
 20
-107.5887226512383
 10
79.5224749780658
 20
-107.3432386315184
 10
79.2700901075178
 20
-107.0635364503733
 10
79.0247018908496
 20
-106.7475554372229
 10
78.79034008747659
 20
-106.3932349214871
 10
78.5710344568144
 20
-105.9985142325858
 10
78.3708147582785
 20
-105.561332699939
 10
78.1937107512845
 20
-105.0796296529665
 10
78.0437521952479
 20
-104.5513444210882
 10
77.9249688495843
 20
-103.9744163337241
 10
77.8413904737092
 20
-103.346784720294
 10
77.7970468270382
 20
-102.6663889102179
 10
77.7959676689868
 20
-101.9311682329157
 10
77.84218275897049
 20
-101.1390620178072
 10
77.9397218564049
 20
-100.2880095943125
 10
78.0926147207055
 20
-99.37595029185131
 10
78.304891111288
 20
-98.40082343984366
 10
78.5805807875677
 20
-97.36056836770943
 10
78.9237135089603
 20
-96.25312440486852
 10
79.33831903488129
 20
-95.07643088074084
 10
79.82842712474614
 20
-93.82842712474613
 42
0.9999999999999997
 10
74.1715728752548
 20
-88.17157287525288
 10
74.11990730765871
 20
-88.21916869508476
 10
73.9657894056391
 20
-88.35556976125955
 10
73.7105373703493
 20
-88.57119648379589
 10
73.3554694029423
 20
-88.8564692727125
 10
72.9019037045714
 20
-89.20180853802805
 10
72.3511584763897
 20
-89.59763468976124
 10
71.7045519195504
 20
-90.03436813793074
 10
70.9634022352067
 20
-90.50242929255521
 10
70.12902762451171
 20
-90.99223856365337
 10
69.2027462886186
 20
-91.49421636124389
 10
68.1858764286806
 20
-91.99878309534543
 10
67.0797362458507
 20
-92.49635917597671
 10
65.8856439412824
 20
-92.97736501315637
 10
64.6049336718057
 20
-93.43224927372056
 10
63.2408702311871
 20
-93.85487969941178
 10
61.80046799732526
 20
-94.24576438406373
 10
60.29117215140174
 20
-94.60617435558008
 10
58.72042787459837
 20
-94.93738064186449
 10
57.09568034809688
 20
-95.24065427082066
 10
55.42437475307902
 20
-95.51726627035231
 10
53.71395627072653
 20
-95.76848766836309
 10
51.97187008222113
 20
-95.99558949275671
 10
50.20556136874465
 20
-96.19984277143685
 10
48.42247531147876
 20
-96.3825185323072
 10
46.63005709160525
 20
-96.54488780327142
 10
44.83575189030586
 20
-96.68822161223324
 10
43.04700488876234
 20
-96.8137909870963
 10
41.27122584148358
 20
-96.92282846246158
 10
39.51500968950258
 20
-97.01568122696746
 10
37.78413656037652
 20
-97.09181112328957
 10
36.08435115498972
 20
-97.15064150080092
 10
34.42139817422644
 20
-97.19159570887446
 10
32.80102231897104
 20
-97.21409709688319
 10
31.22896829010777
 20
-97.21756901420009
 10
29.71098078852094
 20
-97.20143481019809
 10
28.25280451509488
 20
-97.16511783425021
 10
26.86018417071388
 20
-97.10804143572939
 10
25.53886445626222
 20
-97.02962896400864
 10
24.29459007262423
 20
-96.9293037684609
 10
23.13310572068419
 20
-96.80648919845918
 10
22.06015610132642
 20
-96.66060860337643
 10
21.07978783837741
 20
-96.49048458150443
 10
20.1812679960865
 20
-96.28971097172463
 10
19.34625373781435
 20
-96.04918935807315
 10
18.55633933517875
 20
-95.75979907454608
 10
17.7931190597975
 20
-95.41241945513949
 10
17.03818718328836
 20
-94.99792983384945
 10
16.27313797726911
 20
-94.50720954467204
 10
15.47956571335757
 20
-93.93113792160332
 10
14.6390646631715
 20
-93.26059429863938
 10
13.73322909832868
 20
-92.48645800977629
 10
12.74365329044693
 20
-91.59960838901014
 10
11.65193151114401
 20
-90.590924770337
 10
10.4396580320377
 20
-89.45128648775291
 10
9.088427124745856
 20
-88.17157287525404
 42
0.9999999999999999
 10
3.431572875253451
 20
-93.82842712474641
 10
3.45936175247234
 20
-93.886458902952
 10
3.539023200499763
 20
-94.05803111677729
 10
3.664999443891972
 20
-94.33935908503489
 10
3.83173270720517
 20
-94.72665812653753
 10
4.033665214995594
 20
-95.21614356009789
 10
4.265239191819468
 20
-95.80403070452863
 10
4.52089686223303
 20
-96.48653487864244
 10
4.795080450792497
 20
-97.25987140125198
 10
5.082232182054099
 20
-98.12025559116995
 10
5.37679428057406
 20
-99.06390276720902
 10
5.673208970908604
 20
-100.0870282481818
 10
5.965918477613968
 20
-101.1858473529011
 10
6.249365025246391
 20
-102.3565754001795
 10
6.517990838362067
 20
-103.5954277088297
 10
6.766238141517263
 20
-104.8986195976644
 10
6.988549159268167
 20
-106.2623663854963
 10
7.179366116171039
 20
-107.682883391138
 10
7.33313123678208
 20
-109.1563859334022
 10
7.444286745657543
 20
-110.6790893311016
 10
7.50727486735363
 20
-112.2472089030489
 10
7.516537826426571
 20
-113.8569599680567
 10
7.46651784743262
 20
-115.5045578449377
 10
7.351657154927977
 20
-117.1862178525047
 10
7.166397973468904
 20
-118.8981553095702
 10
6.905182527611579
 20
-120.636585534947
 10
6.562453041912249
 20
-122.3977238474477
 10
6.132651740927173
 20
-124.177785565885
 10
5.610220849212517
 20
-125.9729860090716
 10
4.989602591324569
 20
-127.7795404958202
 10
4.265239191819511
 20
-129.5936643449435
 10
3.431572875253614
 20
-131.411572875254
 42
0.9999999999999997
 10
9.088427124744882
 20
-137.0684271247475
 10
10.43965803203678
 20
-135.7887135122481
 10
11.65193151114309
 20
-134.6490752296637
 10
12.743653290446
 20
-133.6403916109903
 10
13.73322909832776
 20
-132.7535419902238
 10
14.63906466317057
 20
-131.9794057013605
 10
15.47956571335663
 20
-131.3088620783964
 10
16.27313797726818
 20
-130.7327904553276
 10
17.03818718328741
 20
-130.24207016615
 10
17.79311905979656
 20
-129.8275805448599
 10
18.55633933517782
 20
-129.4802009254533
 10
19.34625373781342
 20
-129.1908106419262
 10
20.18126799608557
 20
-128.9502890282747
 10
21.07978783837647
 20
-128.7495154184949
 10
22.06015610132548
 20
-128.5793913966229
 10
23.13310572068326
 20
-128.4335108015401
 10
24.2945900726233
 20
-128.3106962315384
 10
25.53886445626129
 20
-128.2103710359907
 10
26.86018417071294
 20
-128.1319585642699
 10
28.25280451509396
 20
-128.0748821657491
 10
29.71098078852002
 20
-128.0385651898013
 10
31.22896829010683
 20
-128.0224309857992
 10
32.8010223189701
 20
-128.0259029031161
 10
34.42139817422552
 20
-128.0484042911249
 10
36.08435115498877
 20
-128.0893584991984
 10
37.78413656037559
 20
-128.1481888767098
 10
39.51500968950165
 20
-128.2243187730319
 10
41.27122584148266
 20
-128.3171715375377
 10
43.04700488876141
 20
-128.426209012903
 10
44.83575189030493
 20
-128.5517783877661
 10
46.63005709160433
 20
-128.6951121967279
 10
48.42247531147784
 20
-128.8574814676921
 10
50.20556136874372
 20
-129.0401572285625
 10
51.97187008222022
 20
-129.2444105072426
 10
53.71395627072559
 20
-129.4715123316362
 10
55.42437475307807
 20
-129.722733729647
 10
57.09568034809598
 20
-129.9993457291786
 10
58.72042787459745
 20
-130.3026193581348
 10
60.29117215140083
 20
-130.6338256444192
 10
61.80046799732435
 20
-130.9942356159356
 10
63.24087023118621
 20
-131.3851203005875
 10
64.6049336718047
 20
-131.8077507262788
 10
65.8856439412815
 20
-132.2626349868429
 10
67.0797362458498
 20
-132.7436408240226
 10
68.18587642867961
 20
-133.2412169046539
 10
69.2027462886177
 20
-133.7457836387554
 10
70.1290276245108
 20
-134.2477614363459
 10
70.96340223520581
 20
-134.737570707444
 10
71.7045519195495
 20
-135.2056318620686
 10
72.3511584763888
 20
-135.642365310238
 10
72.9019037045705
 20
-136.0381914619712
 10
73.3554694029414
 20
-136.3835307272868
 10
73.7105373703484
 20
-136.6688035162034
 10
73.9657894056382
 20
-136.8844302387398
 10
74.1199073076578
 20
-137.0208313049145
 10
74.17157287525384
 20
-137.0684271247464
 42
0.9999999999999974
 10
79.8284271247463
 20
-131.411572875254
 10
79.33831903488129
 20
-130.1635691192595
 10
78.9237135089603
 20
-128.9868755951318
 10
78.5805807875677
 20
-127.8794316322909
 10
78.304891111288
 20
-126.8391765601567
 10
78.0926147207055
 20
-125.864049708149
 10
77.9397218564049
 20
-124.9519904056879
 10
77.84218275897049
 20
-124.1009379821931
 10
77.7959676689868
 20
-123.3088317670847
 10
77.7970468270382
 20
-122.5736110897824
 10
77.8413904737092
 20
-121.8932152797064
 10
77.9249688495843
 20
-121.2655836662763
 10
78.0437521952479
 20
-120.6886555789121
 10
78.1937107512845
 20
-120.1603703470339
 10
78.3708147582785
 20
-119.6786673000614
 10
78.5710344568144
 20
-119.2414857674145
 10
78.79034008747659
 20
-118.8467650785132
 10
79.0247018908496
 20
-118.4924445627774
 10
79.2700901075178
 20
-118.176463549627
 10
79.5224749780658
 20
-117.8967613684819
 10
79.7778267430779
 20
-117.651277348762
 10
80.0321156431386
 20
-117.4379508198872
 10
80.2813119188324
 20
-117.2547211112774
 10
80.52138581074369
 20
-117.0995275523526
 10
80.748307559457
 20
-116.9703094725325
 10
80.9580474055568
 20
-116.8650062012373
 10
81.1465755896274
 20
-116.7815570678867
 10
81.3098623522534
 20
-116.7179014019006
 10
81.4438779340192
 20
-116.671978532699
 10
81.5445925755092
 20
-116.6417277897018
 10
81.607976517308
 20
-116.6250885023289
 10
81.6299999999999
 20
-116.6200000000002
 42
0.9999999999999999
  0
LWPOLYLINE
  5
8C
100
AcDbEntity
  8
0
  6
ByLayer
 62
  256
370
   -1
100
AcDbPolyline
 90
  104
 70
    1
 43
0
 10
88.29526918943611
 20
-101.4444746016424
 10
90.01636050165223
 20
-101.6799935346014
 10
91.56109258409134
 20
-101.9583782155581
 10
92.93899836809271
 20
-102.2773115770531
 10
94.15961078499561
 20
-102.6344765516271
 10
95.23246276613935
 20
-103.0275560718208
 10
96.16708724286326
 20
-103.4542330701749
 10
96.97301714650658
 20
-103.9121904792299
 10
97.65978540840865
 20
-104.3991112315266
 10
98.23692495990878
 20
-104.9126782596056
 10
98.7139687323463
 20
-105.4505744960076
 10
99.10044965706038
 20
-106.0104828732733
 10
99.4059006653905
 20
-106.5900863239433
 10
99.6398546886758
 20
-107.1870677805583
 10
99.81184465825567
 20
-107.799110175659
 10
99.9314035054694
 20
-108.423896441786
 10
100.0080641616563
 20
-109.05910951148
 10
100.0513595581556
 20
-109.7024323172817
 10
100.0708226263067
 20
-110.3515477917317
 10
100.0759862974488
 20
-111.0041388673708
 10
100.0759862974488
 20
-111.6578884767394
 10
100.0708226263067
 20
-112.3104795523785
 10
100.0513595581556
 20
-112.9595950268285
 10
100.0080641616563
 20
-113.6029178326301
 10
99.9314035054694
 20
-114.2381309023242
 10
99.81184465825569
 20
-114.8629171684512
 10
99.63985468867583
 20
-115.4749595635518
 10
99.4059006653905
 20
-116.0719410201669
 10
99.10044965706044
 20
-116.6515444708369
 10
98.7139687323463
 20
-117.2114528481026
 10
98.23692495990881
 20
-117.7493490845046
 10
97.65978540840865
 20
-118.2629161125836
 10
96.97301714650661
 20
-118.7498368648803
 10
96.16708724286326
 20
-119.2077942739353
 10
95.23246276613935
 20
-119.6344712722894
 10
94.15961078499561
 20
-120.0275507924831
 10
92.93899836809277
 20
-120.3847157670571
 10
91.5610925840914
 20
-120.7036491285521
 10
90.01636050165229
 20
-120.9820338095088
 10
88.2952691894361
 20
-121.2175527424679
 42
0.9999999999999983
 10
90.07618490018507
 20
-131.0810136720551
 10
92.9152638166363
 20
-130.6296441309185
 10
95.81274963450079
 20
-130.1485172805274
 10
98.75837079525402
 20
-129.6406541675067
 10
101.7418557403717
 20
-129.1090758384811
 10
104.7529329113293
 20
-128.5568033400756
 10
107.7813307496027
 20
-127.9868577189148
 10
110.8167776966672
 20
-127.4022600216237
 10
113.8490021939986
 20
-126.806031294827
 10
116.8677326830725
 20
-126.2011925851496
 10
119.8626976053644
 20
-125.5907649392163
 10
122.8236254023501
 20
-124.9777694036518
 10
125.7402445155051
 20
-124.3652270250811
 10
128.602283386305
 20
-123.756158850129
 10
131.3994704562254
 20
-123.1535859254202
 10
134.121534166742
 20
-122.5605292975795
 10
136.7582029593304
 20
-121.9800100132319
 10
139.2992052754661
 20
-121.4150491190021
 10
141.7342695566248
 20
-120.868667661515
 10
144.0531242442822
 20
-120.3438866873953
 10
146.2454977799137
 20
-119.8437272432679
 10
148.3011186049952
 20
-119.3712103757576
 10
150.209715161002
 20
-118.9293571314892
 10
151.9610158894099
 20
-118.5211885570875
 10
153.5447492316945
 20
-118.1497256991774
 10
154.9506436293314
 20
-117.8179896043837
 10
156.1684275237961
 20
-117.5290013193311
 10
157.1878293565644
 20
-117.2857818906446
 10
157.9985775691118
 20
-117.0913523649489
 10
158.590400602914
 20
-116.9487337888689
 10
158.9530268994465
 20
-116.8609472090294
 10
159.076184900185
 20
-116.8310136720551
 42
0.9999999999999999
 10
159.076184900185
 20
-105.8310136720551
 10
158.9530268994465
 20
-105.8010801350809
 10
158.590400602914
 20
-105.7132935552413
 10
157.9985775691118
 20
-105.5706749791613
 10
157.1878293565644
 20
-105.3762454534656
 10
156.1684275237961
 20
-105.1330260247791
 10
154.9506436293314
 20
-104.8440377397265
 10
153.5447492316945
 20
-104.5123016449328
 10
151.9610158894099
 20
-104.1408387870227
 10
150.209715161002
 20
-103.732670212621
 10
148.3011186049952
 20
-103.2908169683526
 10
146.2454977799137
 20
-102.8183001008423
 10
144.0531242442822
 20
-102.3181406567149
 10
141.7342695566248
 20
-101.7933596825952
 10
139.2992052754661
 20
-101.246978225108
 10
136.7582029593304
 20
-100.6820173308782
 10
134.121534166742
 20
-100.1014980465306
 10
131.3994704562254
 20
-99.50844141868998
 10
128.602283386305
 20
-98.90586849398119
 10
125.7402445155051
 20
-98.29680031902902
 10
122.8236254023501
 20
-97.68425794045831
 10
119.8626976053644
 20
-97.07126240489387
 10
116.8677326830725
 20
-96.46083475896057
 10
113.8490021939986
 20
-95.85599604928314
 10
110.8167776966672
 20
-95.25976732248645
 10
107.7813307496027
 20
-94.67516962519531
 10
104.7529329113293
 20
-94.1052240040346
 10
101.7418557403717
 20
-93.55295150562904
 10
98.758370795254
 20
-93.0213731766035
 10
95.81274963450079
 20
-92.5135100635828
 10
92.9152638166363
 20
-92.03238321319176
 10
90.07618490018503
 20
-91.58101367205521
 42
1.000000000000001
  0
ENDSEC
  0
SECTION
  2
OBJECTS
  0
DICTIONARY
  5
C
330
0
100
AcDbDictionary
281
    1
  3
ACAD_GROUP
350
D
  0
DICTIONARY
  5
D
330
C
100
AcDbDictionary
281
    1
  0
ENDSEC
  0
EOF
