999
dxflib 3.17.0.0
  0
SECTION
  2
HEADER
  9
$ACADVER
  1
AC1015
  9
$HANDSEED
  5
FFFF
  9
$ANGBASE
 50
0.0
  9
$ANGDIR
 70
0
  9
$ATTMODE
 70
1
  9
$AUNITS
 70
0
  9
$AUPREC
 70
0
  9
$CECOLOR
 62
256
  9
$CELTSCALE
 40
1.0
  9
$CHAMFERA
 40
0.0
  9
$CHAMFERB
 40
0.0
  9
$CHAMFERC
 40
0.0
  9
$CHAMFERD
 40
0.0
  9
$CMLJUST
 70
0
  9
$CMLSCALE
 40
1.0
  9
$DIMADEC
 70
0
  9
$DIMALT
 70
0
  9
$DIMALTD
 70
2
  9
$DIMALTF
 40
25.3999999999999986
  9
$DIMALTRND
 40
0.0
  9
$DIMALTTD
 70
2
  9
$DIMALTTZ
 70
0
  9
$DIMALTU
 70
2
  9
$DIMALTZ
 70
0
  9
$DIMAPOST
  1

  9
$DIMASZ
 40
2.5
  9
$DIMATFIT
 70
3
  9
$DIMAUNIT
 70
0
  9
$DIMAZIN
 70
2
  9
$DIMBLK
  1

  9
$DIMBLK1
  1

  9
$DIMBLK2
  1

  9
$DIMCEN
 40
0.09
  9
$DIMCLRD
 70
0
  9
$DIMCLRE
 70
0
  9
$DIMDEC
 70
4
  9
$DIMDLE
 40
0.0
  9
$DIMDLI
 40
5.0
  9
$DIMDSEP
 70
46
  9
$DIMEXE
 40
1.25
  9
$DIMEXO
 40
0.625
  9
$DIMFRAC
 70
0
  9
$DIMGAP
 40
0.625
  9
$DIMJUST
 70
0
  9
$DIMLDRBLK
  1

  9
$DIMLFAC
 40
1.0
  9
$DIMLIM
 70
0
  9
$DIMLUNIT
 70
2
  9
$DIMLWD
 70
-2
  9
$DIMLWE
 70
-2
  9
$DIMPOST
  1

  9
$DIMRND
 40
0.0
  9
$DIMSAH
 70
0
  9
$DIMSCALE
 40
1.0
  9
$DIMSD1
 70
0
  9
$DIMSD2
 70
0
  9
$DIMSE1
 70
0
  9
$DIMSE2
 70
0
  9
$DIMSOXD
 70
0
  9
$DIMTAD
 70
0
  9
$DIMTDEC
 70
4
  9
$DIMTFAC
 40
1.0
  9
$DIMTIH
 70
1
  9
$DIMTIX
 70
0
  9
$DIMTM
 40
0.0
  9
$DIMTOFL
 70
0
  9
$DIMTOH
 70
1
  9
$DIMTOL
 70
0
  9
$DIMTOLJ
 70
1
  9
$DIMTP
 40
0.0
  9
$DIMTSZ
 40
0.0
  9
$DIMTVP
 40
0.0
  9
$DIMTXSTY
  7
Standard
  9
$DIMTXT
 40
2.5
  9
$DIMTZIN
 70
0
  9
$DIMUPT
 70
0
  9
$DIMZIN
 70
8
  9
$DISPSILH
 70
0
  9
$DWGCODEPAGE
  3
ANSI_1252
  9
$ELEVATION
 40
0.0
  9
$EXTMAX
 10
194.0400000000001057
 20
63.0000000000001421
 30
0.0
  9
$EXTMIN
 10
-63.0000000000001705
 20
-221.540000000000191
 30
0.0
  9
$FILLETRAD
 40
0.5
  9
$FILLMODE
 70
1
  9
$INSBASE
 10
0.0
 20
0.0
 30
0.0
  9
$INSUNITS
 70
4
  9
$LIMCHECK
 70
0
  9
$LIMMAX
 10
12.0
 20
9.0
  9
$LIMMIN
 10
0.0
 20
0.0
  9
$LTSCALE
 40
1.0
  9
$LUNITS
 70
2
  9
$LUPREC
 70
4
  9
$MAXACTVP
 70
64
  9
$MEASUREMENT
 70
1
  9
$MIRRTEXT
 70
0
  9
$ORTHOMODE
 70
0
  9
$PDMODE
 70
0
  9
$PDSIZE
 40
0.0
  9
$PELEVATION
 40
0.0
  9
$PEXTMAX
 10
0.0
 20
0.0
 30
0.0
  9
$PEXTMIN
 10
0.0
 20
0.0
 30
0.0
  9
$PINSBASE
 10
0.0
 20
0.0
 30
0.0
  9
$PLIMCHECK
 70
0
  9
$PLIMMAX
 10
277.0
 20
202.5
  9
$PLIMMIN
 10
-20.0
 20
-7.5
  9
$PLINEGEN
 70
0
  9
$PLINEWID
 40
0.0
  9
$PROXYGRAPHICS
 70
1
  9
$PSLTSCALE
 70
1
  9
$PUCSNAME
  2

  9
$PUCSORG
 10
0.0
 20
0.0
 30
0.0
  9
$PUCSXDIR
 10
1.0
 20
0.0
 30
0.0
  9
$PUCSYDIR
 10
0.0
 20
1.0
 30
0.0
  9
$QTEXTMODE
 70
0
  9
$REGENMODE
 70
1
  9
$SHADEDGE
 70
3
  9
$SHADEDIF
 70
70
  9
$SKETCHINC
 40
0.1
  9
$SKPOLY
 70
0
  9
$SPLFRAME
 70
0
  9
$SPLINESEGS
 70
8
  9
$SPLINETYPE
 70
6
  9
$SURFTAB1
 70
6
  9
$SURFTAB2
 70
6
  9
$SURFTYPE
 70
6
  9
$SURFU
 70
6
  9
$SURFV
 70
6
  9
$TEXTSIZE
 40
0.2
  9
$TEXTSTYLE
  7
Standard
  9
$THICKNESS
 40
0.0
  9
$TILEMODE
 70
1
  9
$TRACEWID
 40
0.05
  9
$TREEDEPTH
 70
3020
  9
$UCSNAME
  2

  9
$UCSORG
 10
0.0
 20
0.0
 30
0.0
  9
$UCSXDIR
 10
1.0
 20
0.0
 30
0.0
  9
$UCSYDIR
 10
0.0
 20
1.0
 30
0.0
  9
$UNITMODE
 70
0
  9
$USERI1
 70
0
  9
$USERI2
 70
0
  9
$USERI3
 70
0
  9
$USERI4
 70
0
  9
$USERI5
 70
0
  9
$USERR1
 40
0.0
  9
$USERR2
 40
0.0
  9
$USERR3
 40
0.0
  9
$USERR4
 40
0.0
  9
$USERR5
 40
0.0
  9
$USRTIMER
 70
1
  9
$VISRETAIN
 70
1
  0
ENDSEC
  0
SECTION
  2
TABLES
  0
TABLE
  2
VPORT
  5
8
100
AcDbSymbolTable
 70
1
  0
VPORT
  5
30
100
AcDbSymbolTableRecord
100
AcDbViewportTableRecord
  2
*Active
 70
0
 10
0.0
 20
0.0
 11
1.0
 21
1.0
 12
286.3055555555554861
 22
148.5
 13
0.0
 23
0.0
 14
10.0
 24
10.0
 15
10.0
 25
10.0
 16
0.0
 26
0.0
 36
1.0
 17
0.0
 27
0.0
 37
0.0
 40
297.0
 41
1.92798353909465
 42
50.0
 43
0.0
 44
0.0
 50
0.0
 51
0.0
 71
0
 72
100
 73
1
 74
3
 75
1
 76
1
 77
0
 78
0
281
0
 65
1
110
0.0
120
0.0
130
0.0
111
1.0
121
0.0
131
0.0
112
0.0
122
1.0
132
0.0
 79
0
146
0.0
  0
ENDTAB
  0
TABLE
  2
LTYPE
  5
5
100
AcDbSymbolTable
 70
50
  0
LTYPE
  5
16
100
AcDbSymbolTableRecord
100
AcDbLinetypeTableRecord
  2
Continuous
 70
0
  3
Solid line
 72
65
 73
0
 40
0.0
  0
LTYPE
  5
31
100
AcDbSymbolTableRecord
100
AcDbLinetypeTableRecord
  2
HIDDENX2
 70
0
  3
Hidden (2x) ____ ____ ____ ____ ____ ____ ____ 
 72
65
 73
2
 40
19.0499999999999972
 49
12.6999999999999993
 74
0
 49
-6.3499999999999996
 74
0
  0
LTYPE
  5
32
100
AcDbSymbolTableRecord
100
AcDbLinetypeTableRecord
  2
DIVIDEX2
 70
0
  3
Divide (2x) ________  .  .  ________  .  .  _
 72
65
 73
6
 40
63.5
 49
25.3999999999999986
 74
0
 49
-12.6499999999999986
 74
0
 49
0.1
 74
0
 49
-12.5999999999999979
 74
0
 49
0.1
 74
0
 49
-12.6499999999999986
 74
0
  0
LTYPE
  5
33
100
AcDbSymbolTableRecord
100
AcDbLinetypeTableRecord
  2
BORDER
 70
0
  3
Border __ __ . __ __ . __ __ . __ __ . __ __ .
 72
65
 73
6
 40
44.4499999999999957
 49
12.6999999999999993
 74
0
 49
-6.3499999999999996
 74
0
 49
12.6999999999999993
 74
0
 49
-6.2999999999999998
 74
0
 49
0.1
 74
0
 49
-6.2999999999999998
 74
0
  0
LTYPE
  5
34
100
AcDbSymbolTableRecord
100
AcDbLinetypeTableRecord
  2
DIVIDE2
 70
0
  3
Divide (.5x) __..__..__..__..__..__..__..__.._
 72
65
 73
6
 40
15.8749999999999982
 49
6.3499999999999996
 74
0
 49
-3.125
 74
0
 49
0.1
 74
0
 49
-3.0750000000000002
 74
0
 49
0.1
 74
0
 49
-3.125
 74
0
  0
LTYPE
  5
35
100
AcDbSymbolTableRecord
100
AcDbLinetypeTableRecord
  2
GAS_LINE
 70
0
  3
Gas line ----GAS----GAS----GAS----GAS----GAS----GAS--
 72
65
 73
2
 40
17.7800000000000011
 49
12.6999999999999993
 74
0
 49
-5.0800000000000001
 74
0
  0
LTYPE
  5
36
100
AcDbSymbolTableRecord
100
AcDbLinetypeTableRecord
  2
CENTER2
 70
0
  3
Center (.5x) ___ _ ___ _ ___ _ ___ _ ___ _ ___
 72
65
 73
4
 40
28.5750000000000028
 49
19.0500000000000007
 74
0
 49
-3.1749999999999998
 74
0
 49
3.1749999999999998
 74
0
 49
-3.1749999999999998
 74
0
  0
LTYPE
  5
37
100
AcDbSymbolTableRecord
100
AcDbLinetypeTableRecord
  2
HIDDEN
 70
0
  3
Hidden __ __ __ __ __ __ __ __ __ __ __ __ __ __
 72
65
 73
2
 40
9.5249999999999986
 49
6.3499999999999996
 74
0
 49
-3.1749999999999998
 74
0
  0
LTYPE
  5
38
100
AcDbSymbolTableRecord
100
AcDbLinetypeTableRecord
  2
PHANTOMX2
 70
0
  3
Phantom (2x) ____________    ____    ____   _
 72
65
 73
6
 40
127.0000000000000142
 49
63.5
 74
0
 49
-12.6999999999999993
 74
0
 49
12.6999999999999993
 74
0
 49
-12.6999999999999993
 74
0
 49
12.6999999999999993
 74
0
 49
-12.6999999999999993
 74
0
  0
LTYPE
  5
39
100
AcDbSymbolTableRecord
100
AcDbLinetypeTableRecord
  2
DRAINAGE2
 70
0
  3
Drainage reversed----<----<----<----
 72
65
 73
1
 40
5.0800000000000001
 49
5.0800000000000001
 74
0
  0
LTYPE
  5
3A
100
AcDbSymbolTableRecord
100
AcDbLinetypeTableRecord
  2
ACAD_ISO07W100
 70
0
  3
ISO dot . . . . . . . . . . . . . . . . . . . . 
 72
65
 73
2
 40
3.0
 49
0.1
 74
0
 49
-2.8999999999999999
 74
0
  0
LTYPE
  5
3B
100
AcDbSymbolTableRecord
100
AcDbLinetypeTableRecord
  2
ZIGZAG
 70
0
  3
Zig zag /\/\/\/\/\/\/\/\/\/\/\/\/\/\/\/\/\/\/\/\/\/\/\/
 72
65
 73
2
 40
5.0825399999999998
 49
0.00254
 74
0
 49
-5.0800000000000001
 74
0
  0
LTYPE
  5
3C
100
AcDbSymbolTableRecord
100
AcDbLinetypeTableRecord
  2
FENCELINE2
 70
0
  3
Fenceline square ----[]-----[]----[]-----[]----[]---
 72
65
 73
2
 40
8.8900000000000006
 49
6.3499999999999996
 74
0
 49
-2.54
 74
0
  0
LTYPE
  5
3D
100
AcDbSymbolTableRecord
100
AcDbLinetypeTableRecord
  2
DOTX2
 70
0
  3
Dot (2x) .  .  .  .  .  .  .  .  .  .  .  .  .  .
 72
65
 73
2
 40
12.6999999999999993
 49
0.1
 74
0
 49
-12.5999999999999996
 74
0
  0
LTYPE
  5
3E
100
AcDbSymbolTableRecord
100
AcDbLinetypeTableRecord
  2
DASHED
 70
0
  3
Dashed __ __ __ __ __ __ __ __ __ __ __ __ __ _
 72
65
 73
2
 40
19.0499999999999972
 49
12.6999999999999993
 74
0
 49
-6.3499999999999996
 74
0
  0
LTYPE
  5
3F
100
AcDbSymbolTableRecord
100
AcDbLinetypeTableRecord
  2
ACAD_ISO03W100
 70
0
  3
ISO dash space __    __    __    __    __    __
 72
65
 73
2
 40
30.0
 49
12.0
 74
0
 49
-18.0
 74
0
  0
LTYPE
  5
14
100
AcDbSymbolTableRecord
100
AcDbLinetypeTableRecord
  2
ByBlock
 70
0
  3

 72
65
 73
0
 40
0.0
  0
LTYPE
  5
40
100
AcDbSymbolTableRecord
100
AcDbLinetypeTableRecord
  2
ACAD_ISO14W100
 70
0
  3
ISO dash triple-dot __ . . . __ . . . __ . . . _
 72
65
 73
8
 40
24.0000000000000036
 49
12.0
 74
0
 49
-2.9500000000000002
 74
0
 49
0.1
 74
0
 49
-2.9000000000000004
 74
0
 49
0.1
 74
0
 49
-2.9000000000000004
 74
0
 49
0.1
 74
0
 49
-2.9500000000000002
 74
0
  0
LTYPE
  5
41
100
AcDbSymbolTableRecord
100
AcDbLinetypeTableRecord
  2
DASHDOT2
 70
0
  3
Dash dot (.5x) _._._._._._._._._._._._._._._.
 72
65
 73
4
 40
12.6999999999999993
 49
6.3499999999999996
 74
0
 49
-3.125
 74
0
 49
0.1
 74
0
 49
-3.125
 74
0
  0
LTYPE
  5
42
100
AcDbSymbolTableRecord
100
AcDbLinetypeTableRecord
  2
HIDDEN2
 70
0
  3
Hidden (.5x) _ _ _ _ _ _ _ _ _ _ _ _ _ _ _ _ _ 
 72
65
 73
2
 40
4.7624999999999993
 49
3.1749999999999998
 74
0
 49
-1.5874999999999999
 74
0
  0
LTYPE
  5
43
100
AcDbSymbolTableRecord
100
AcDbLinetypeTableRecord
  2
ACAD_ISO04W100
 70
0
  3
ISO long-dash dot ____ . ____ . ____ . ____ . _
 72
65
 73
4
 40
30.0
 49
24.0
 74
0
 49
-2.9500000000000002
 74
0
 49
0.1
 74
0
 49
-2.9500000000000002
 74
0
  0
LTYPE
  5
44
100
AcDbSymbolTableRecord
100
AcDbLinetypeTableRecord
  2
ACAD_ISO05W100
 70
0
  3
ISO long-dash double-dot ____ .. ____ .. ____ . 
 72
65
 73
6
 40
33.0000000000000071
 49
24.0
 74
0
 49
-2.9500000000000002
 74
0
 49
0.1
 74
0
 49
-2.9000000000000004
 74
0
 49
0.1
 74
0
 49
-2.9500000000000002
 74
0
  0
LTYPE
  5
45
100
AcDbSymbolTableRecord
100
AcDbLinetypeTableRecord
  2
PHANTOM
 70
0
  3
Phantom ______  __  __  ______  __  __  ______ 
 72
65
 73
6
 40
63.5000000000000071
 49
31.75
 74
0
 49
-6.3499999999999996
 74
0
 49
6.3499999999999996
 74
0
 49
-6.3499999999999996
 74
0
 49
6.3499999999999996
 74
0
 49
-6.3499999999999996
 74
0
  0
LTYPE
  5
46
100
AcDbSymbolTableRecord
100
AcDbLinetypeTableRecord
  2
ACAD_ISO06W100
 70
0
  3
ISO long-dash triple-dot ____ ... ____ ... ____
 72
65
 73
8
 40
36.0000000000000071
 49
24.0
 74
0
 49
-2.9500000000000002
 74
0
 49
0.1
 74
0
 49
-2.9000000000000004
 74
0
 49
0.1
 74
0
 49
-2.9000000000000004
 74
0
 49
0.1
 74
0
 49
-2.9500000000000002
 74
0
  0
LTYPE
  5
47
100
AcDbSymbolTableRecord
100
AcDbLinetypeTableRecord
  2
ACAD_ISO10W100
 70
0
  3
ISO dash dot __ . __ . __ . __ . __ . __ . __ . 
 72
65
 73
4
 40
18.0
 49
12.0
 74
0
 49
-2.9500000000000002
 74
0
 49
0.1
 74
0
 49
-2.9500000000000002
 74
0
  0
LTYPE
  5
48
100
AcDbSymbolTableRecord
100
AcDbLinetypeTableRecord
  2
CENTERX2
 70
0
  3
Center (2x) ________  __  ________  __  _____
 72
65
 73
4
 40
101.6000000000000085
 49
63.5
 74
0
 49
-12.6999999999999993
 74
0
 49
12.6999999999999993
 74
0
 49
-12.6999999999999993
 74
0
  0
LTYPE
  5
49
100
AcDbSymbolTableRecord
100
AcDbLinetypeTableRecord
  2
DIVIDE
 70
0
  3
Divide ____ . . ____ . . ____ . . ____ . . ____
 72
65
 73
6
 40
31.7500000000000036
 49
12.6999999999999993
 74
0
 49
-6.2999999999999998
 74
0
 49
0.1
 74
0
 49
-6.25
 74
0
 49
0.1
 74
0
 49
-6.2999999999999998
 74
0
  0
LTYPE
  5
4A
100
AcDbSymbolTableRecord
100
AcDbLinetypeTableRecord
  2
DRAINAGE
 70
0
  3
Drainage ---->---->---->----
 72
65
 73
1
 40
5.0800000000000001
 49
5.0800000000000001
 74
0
  0
LTYPE
  5
4B
100
AcDbSymbolTableRecord
100
AcDbLinetypeTableRecord
  2
ACAD_ISO11W100
 70
0
  3
ISO double-dash dot __ __ . __ __ . __ __ . __ _
 72
65
 73
6
 40
33.0
 49
12.0
 74
0
 49
-3.0
 74
0
 49
12.0
 74
0
 49
-2.9500000000000002
 74
0
 49
0.1
 74
0
 49
-2.9500000000000002
 74
0
  0
LTYPE
  5
4C
100
AcDbSymbolTableRecord
100
AcDbLinetypeTableRecord
  2
DOT
 70
0
  3
Dot . . . . . . . . . . . . . . . . . . . . . . . .
 72
65
 73
2
 40
6.3499999999999996
 49
0.1
 74
0
 49
-6.25
 74
0
  0
LTYPE
  5
4D
100
AcDbSymbolTableRecord
100
AcDbLinetypeTableRecord
  2
DASHDOT
 70
0
  3
Dash dot __ . __ . __ . __ . __ . __ . __ . __
 72
65
 73
4
 40
25.4000000000000021
 49
12.6999999999999993
 74
0
 49
-6.2999999999999998
 74
0
 49
0.1
 74
0
 49
-6.2999999999999998
 74
0
  0
LTYPE
  5
15
100
AcDbSymbolTableRecord
100
AcDbLinetypeTableRecord
  2
ByLayer
 70
0
  3

 72
65
 73
0
 40
0.0
  0
LTYPE
  5
4E
100
AcDbSymbolTableRecord
100
AcDbLinetypeTableRecord
  2
ACAD_ISO12W100
 70
0
  3
ISO dash double-dot __ . . __ . . __ . . __ . . 
 72
65
 73
6
 40
21.0
 49
12.0
 74
0
 49
-2.9500000000000002
 74
0
 49
0.1
 74
0
 49
-2.9000000000000004
 74
0
 49
0.1
 74
0
 49
-2.9500000000000002
 74
0
  0
LTYPE
  5
4F
100
AcDbSymbolTableRecord
100
AcDbLinetypeTableRecord
  2
FENCELINE1
 70
0
  3
Fenceline circle ----0-----0----0-----0----0-----0--
 72
65
 73
2
 40
8.8900000000000006
 49
6.3499999999999996
 74
0
 49
-2.54
 74
0
  0
LTYPE
  5
50
100
AcDbSymbolTableRecord
100
AcDbLinetypeTableRecord
  2
DASHDOTX2
 70
0
  3
Dash dot (2x) ____  .  ____  .  ____  .  ___
 72
65
 73
4
 40
50.7999999999999972
 49
25.3999999999999986
 74
0
 49
-12.6499999999999986
 74
0
 49
0.1
 74
0
 49
-12.6499999999999986
 74
0
  0
LTYPE
  5
51
100
AcDbSymbolTableRecord
100
AcDbLinetypeTableRecord
  2
HOT_WATER_SUPPLY
 70
0
  3
Hot water supply ---- HW ---- HW ---- HW ----
 72
65
 73
2
 40
17.7800000000000011
 49
12.6999999999999993
 74
0
 49
-5.0800000000000001
 74
0
  0
LTYPE
  5
52
100
AcDbSymbolTableRecord
100
AcDbLinetypeTableRecord
  2
DOT2
 70
0
  3
Dot (.5x) ........................................
 72
65
 73
2
 40
3.1749999999999998
 49
0.1
 74
0
 49
-3.0749999999999997
 74
0
  0
LTYPE
  5
53
100
AcDbSymbolTableRecord
100
AcDbLinetypeTableRecord
  2
DASHEDX2
 70
0
  3
Dashed (2x) ____  ____  ____  ____  ____  ___
 72
65
 73
2
 40
38.0999999999999943
 49
25.3999999999999986
 74
0
 49
-12.6999999999999993
 74
0
  0
LTYPE
  5
54
100
AcDbSymbolTableRecord
100
AcDbLinetypeTableRecord
  2
TRACKS
 70
0
  3
Tracks -|-|-|-|-|-|-|-|-|-|-|-|-|-|-|-|-|-|-|-|-|-|-|-|-
 72
65
 73
1
 40
3.8100000000000001
 49
3.8100000000000001
 74
0
  0
LTYPE
  5
55
100
AcDbSymbolTableRecord
100
AcDbLinetypeTableRecord
  2
ACAD_ISO02W100
 70
0
  3
ISO dash __ __ __ __ __ __ __ __ __ __ __ __ __
 72
65
 73
2
 40
15.0
 49
12.0
 74
0
 49
-3.0
 74
0
  0
LTYPE
  5
56
100
AcDbSymbolTableRecord
100
AcDbLinetypeTableRecord
  2
PHANTOM2
 70
0
  3
Phantom (.5x) ___ _ _ ___ _ _ ___ _ _ ___ _ _
 72
65
 73
6
 40
31.7500000000000036
 49
15.875
 74
0
 49
-3.1749999999999998
 74
0
 49
3.1749999999999998
 74
0
 49
-3.1749999999999998
 74
0
 49
3.1749999999999998
 74
0
 49
-3.1749999999999998
 74
0
  0
LTYPE
  5
57
100
AcDbSymbolTableRecord
100
AcDbLinetypeTableRecord
  2
DASHED2
 70
0
  3
Dashed (.5x) _ _ _ _ _ _ _ _ _ _ _ _ _ _ _ _ _ 
 72
65
 73
2
 40
9.5249999999999986
 49
6.3499999999999996
 74
0
 49
-3.1749999999999998
 74
0
  0
LTYPE
  5
58
100
AcDbSymbolTableRecord
100
AcDbLinetypeTableRecord
  2
BORDERX2
 70
0
  3
Border (2x) ____  ____  .  ____  ____  .  ___
 72
65
 73
6
 40
88.8999999999999773
 49
25.3999999999999986
 74
0
 49
-12.6999999999999993
 74
0
 49
25.3999999999999986
 74
0
 49
-12.6499999999999986
 74
0
 49
0.1
 74
0
 49
-12.6499999999999986
 74
0
  0
LTYPE
  5
59
100
AcDbSymbolTableRecord
100
AcDbLinetypeTableRecord
  2
ACAD_ISO08W100
 70
0
  3
ISO long-dash short-dash ____ __ ____ __ ____ _
 72
65
 73
4
 40
36.0
 49
24.0
 74
0
 49
-3.0
 74
0
 49
6.0
 74
0
 49
-3.0
 74
0
  0
LTYPE
  5
5A
100
AcDbSymbolTableRecord
100
AcDbLinetypeTableRecord
  2
CENTER
 70
0
  3
Center ____ _ ____ _ ____ _ ____ _ ____ _ ____
 72
65
 73
4
 40
50.8000000000000043
 49
31.75
 74
0
 49
-6.3499999999999996
 74
0
 49
6.3499999999999996
 74
0
 49
-6.3499999999999996
 74
0
  0
LTYPE
  5
5B
100
AcDbSymbolTableRecord
100
AcDbLinetypeTableRecord
  2
ACAD_ISO09W100
 70
0
  3
ISO long-dash double-short-dash ____ __ __ ____
 72
65
 73
6
 40
45.0
 49
24.0
 74
0
 49
-3.0
 74
0
 49
6.0
 74
0
 49
-3.0
 74
0
 49
6.0
 74
0
 49
-3.0
 74
0
  0
LTYPE
  5
5C
100
AcDbSymbolTableRecord
100
AcDbLinetypeTableRecord
  2
ACAD_ISO15W100
 70
0
  3
ISO double-dash triple-dot __ __ . . . __ __ . .
 72
65
 73
10
 40
39.0000000000000071
 49
12.0
 74
0
 49
-3.0
 74
0
 49
12.0
 74
0
 49
-2.9500000000000002
 74
0
 49
0.1
 74
0
 49
-2.9000000000000004
 74
0
 49
0.1
 74
0
 49
-2.9000000000000004
 74
0
 49
0.1
 74
0
 49
-2.9500000000000002
 74
0
  0
LTYPE
  5
5D
100
AcDbSymbolTableRecord
100
AcDbLinetypeTableRecord
  2
BORDER2
 70
0
  3
Border (.5x) __.__.__.__.__.__.__.__.__.__.__.
 72
65
 73
6
 40
22.2250000000000014
 49
6.3499999999999996
 74
0
 49
-3.1749999999999998
 74
0
 49
6.3499999999999996
 74
0
 49
-3.125
 74
0
 49
0.1
 74
0
 49
-3.125
 74
0
  0
LTYPE
  5
5E
100
AcDbSymbolTableRecord
100
AcDbLinetypeTableRecord
  2
ACAD_ISO13W100
 70
0
  3
ISO double-dash double-dot __ __ . . __ __ . . _
 72
65
 73
8
 40
36.0000000000000071
 49
12.0
 74
0
 49
-3.0
 74
0
 49
12.0
 74
0
 49
-2.9500000000000002
 74
0
 49
0.1
 74
0
 49
-2.9000000000000004
 74
0
 49
0.1
 74
0
 49
-2.9500000000000002
 74
0
  0
LTYPE
  5
5F
100
AcDbSymbolTableRecord
100
AcDbLinetypeTableRecord
  2
BATTING
 70
0
  3
Batting SSSSSSSSSSSSSSSSSSSSSSSSSSSSSSSSSSSSSSSSSSSSSSS
 72
65
 73
2
 40
2.5425400000000002
 49
0.00254
 74
0
 49
-2.54
 74
0
  0
ENDTAB
  0
TABLE
  2
LAYER
  5
2
100
AcDbSymbolTable
 70
10
  0
LAYER
  5
60
100
AcDbSymbolTableRecord
100
AcDbLayerTableRecord
  2
Defpoints
 70
0
 62
7
420
16777215
  6
Continuous
290
0
370
-3
390
F
  0
LAYER
  5
61
100
AcDbSymbolTableRecord
100
AcDbLayerTableRecord
  2
props
 70
0
 62
2
420
16776960
  6
Continuous
370
25
390
F
  0
LAYER
  5
62
100
AcDbSymbolTableRecord
100
AcDbLayerTableRecord
  2
motors
 70
0
 62
5
420
255
  6
Continuous
370
25
390
F
  0
LAYER
  5
63
100
AcDbSymbolTableRecord
100
AcDbLayerTableRecord
  2
references
 70
1
 62
1
420
16711680
  6
ACAD_ISO02W100
370
25
390
F
  0
LAYER
  5
64
100
AcDbSymbolTableRecord
100
AcDbLayerTableRecord
  2
reinforcement
 70
0
 62
6
420
16711935
  6
Continuous
370
25
390
F
  0
LAYER
  5
65
100
AcDbSymbolTableRecord
100
AcDbLayerTableRecord
  2
arms
 70
0
 62
7
420
16777215
  6
Continuous
370
25
390
F
  0
LAYER
  5
66
100
AcDbSymbolTableRecord
100
AcDbLayerTableRecord
  2
bottom plate
 70
0
 62
4
420
65535
  6
Continuous
370
25
390
F
  0
LAYER
  5
67
100
AcDbSymbolTableRecord
100
AcDbLayerTableRecord
  2
meassures
 70
1
 62
30
420
16744192
  6
Continuous
370
25
390
F
  0
LAYER
  5
68
100
AcDbSymbolTableRecord
100
AcDbLayerTableRecord
  2
top plate
 70
0
 62
3
420
65280
  6
Continuous
370
25
390
F
  0
LAYER
  5
10
100
AcDbSymbolTableRecord
100
AcDbLayerTableRecord
  2
0
 70
0
 62
7
420
16777215
  6
Continuous
370
25
390
F
  0
ENDTAB
  0
TABLE
  2
STYLE
  5
3
100
AcDbSymbolTable
 70
1
  0
STYLE
  5
69
100
AcDbSymbolTableRecord
100
AcDbTextStyleTableRecord
  2
Standard
 70
0
 40
0.0
 41
1.0
 50
0.0
 71
0
 42
2.5
  3

  4

1001
ACAD
1000
txt
1071
0
  0
ENDTAB
  0
TABLE
  2
VIEW
  5
6
100
AcDbSymbolTable
 70
0
  0
ENDTAB
  0
TABLE
  2
UCS
  5
7
100
AcDbSymbolTable
 70
0
  0
ENDTAB
  0
TABLE
  2
APPID
  5
9
100
AcDbSymbolTable
 70
1
  0
APPID
  5
12
100
AcDbSymbolTableRecord
100
AcDbRegAppTableRecord
  2
ACAD
 70
0
  0
APPID
  5
6A
100
AcDbSymbolTableRecord
100
AcDbRegAppTableRecord
  2
QCAD
 70
0
  0
ENDTAB
  0
TABLE
  2
DIMSTYLE
  5
A
100
AcDbSymbolTable
 70
1
100
AcDbDimStyleTable
 71
0
  0
DIMSTYLE
105
27
100
AcDbSymbolTableRecord
100
AcDbDimStyleTableRecord
  2
Standard
 41
2.5
 42
0.625
 43
3.75
 44
1.25
 70
0
 73
0
 74
0
 77
1
 78
8
140
2.5
141
2.5
143
0.03937007874016
147
0.625
171
3
172
1
271
2
272
2
274
3
278
44
283
0
284
8
340
69
  0
ENDTAB
  0
TABLE
  2
BLOCK_RECORD
  5
1
100
AcDbSymbolTable
 70
1
  0
BLOCK_RECORD
  5
1F
100
AcDbSymbolTableRecord
100
AcDbBlockTableRecord
  2
*Model_Space
340
22
  0
BLOCK_RECORD
  5
1B
100
AcDbSymbolTableRecord
100
AcDbBlockTableRecord
  2
*Paper_Space
340
1E
  0
BLOCK_RECORD
  5
23
100
AcDbSymbolTableRecord
100
AcDbBlockTableRecord
  2
*Paper_Space0
340
26
  0
ENDTAB
  0
ENDSEC
  0
SECTION
  2
BLOCKS
  0
BLOCK
  5
20
100
AcDbEntity
  8
0
100
AcDbBlockBegin
  2
*Model_Space
 70
0
 10
0.0
 20
0.0
 30
0.0
  3
*Model_Space
  1

  0
ENDBLK
  5
21
100
AcDbEntity
  8
0
100
AcDbBlockEnd
  0
BLOCK
  5
1C
100
AcDbEntity
 67
1
  8
0
100
AcDbBlockBegin
  2
*Paper_Space
 70
0
 10
0.0
 20
0.0
 30
0.0
  3
*Paper_Space
  1

  0
ENDBLK
  5
1D
100
AcDbEntity
 67
1
  8
0
100
AcDbBlockEnd
  0
BLOCK
  5
24
100
AcDbEntity
  8
0
100
AcDbBlockBegin
  2
*Paper_Space0
 70
0
 10
0.0
 20
0.0
 30
0.0
  3
*Paper_Space0
  1

  0
ENDBLK
  5
25
100
AcDbEntity
  8
0
100
AcDbBlockEnd
  0
ENDSEC
  0
SECTION
  2
ENTITIES
  0
CIRCLE
  5
6B
100
AcDbEntity
  8
props
 62
256
370
-1
 48
1.0
  6
ByLayer
100
AcDbCircle
 10
-0.0000000000001563
 20
-0.0000000000000568
 30
0.0
 40
63.0
  0
CIRCLE
  5
6C
100
AcDbEntity
  8
props
 62
256
370
-1
 48
1.0
  6
ByLayer
100
AcDbCircle
 10
131.0399999999999068
 20
0.0000000000001421
 30
0.0
 40
63.0
  0
CIRCLE
  5
6D
100
AcDbEntity
  8
props
 62
256
370
-1
 48
1.0
  6
ByLayer
100
AcDbCircle
 10
131.0400000000001057
 20
-158.539999999999992
 30
0.0
 40
63.0
  0
CIRCLE
  5
6E
100
AcDbEntity
  8
props
 62
256
370
-1
 48
1.0
  6
ByLayer
100
AcDbCircle
 10
-0.0000000000001421
 20
-158.540000000000191
 30
0.0
 40
63.0
  0
LINE
  5
6F
100
AcDbEntity
  8
references
 62
256
370
-1
 48
1.0
  6
ByLayer
100
AcDbLine
 10
-5.9962655044620163
 20
0.0000000000000711
 30
0.0
 11
-0.0000000000000426
 21
5.9962655044620314
 31
0.0
  0
LINE
  5
70
100
AcDbEntity
  8
references
 62
256
370
-1
 48
1.0
  6
ByLayer
100
AcDbLine
 10
131.0399999999997931
 20
5.9962655044620732
 30
0.0
 11
137.0362655044617952
 21
0.0000000000001705
 31
0.0
  0
LINE
  5
71
100
AcDbEntity
  8
references
 62
256
370
-1
 48
1.0
  6
ByLayer
100
AcDbLine
 10
137.0362655044619089
 20
-158.540000000000191
 30
0.0
 11
131.039999999999992
 21
-164.5362655044621931
 31
0.0
  0
LINE
  5
72
100
AcDbEntity
  8
references
 62
256
370
-1
 48
1.0
  6
ByLayer
100
AcDbLine
 10
-0.0000000000002558
 20
-164.5362655044621079
 30
0.0
 11
-5.9962655044620874
 21
-158.540000000000191
 31
0.0
  0
LINE
  5
73
100
AcDbEntity
  8
references
 62
256
370
-1
 48
1.0
  6
ByLayer
100
AcDbLine
 10
-0.0000000000000142
 20
-5.9962655044618174
 30
0.0
 11
-5.9962655044620163
 21
0.0000000000000711
 31
0.0
  0
LINE
  5
74
100
AcDbEntity
  8
references
 62
256
370
-1
 48
1.0
  6
ByLayer
100
AcDbLine
 10
125.0437344955380041
 20
0.0000000000001137
 30
0.0
 11
131.0399999999997931
 21
5.9962655044620732
 31
0.0
  0
LINE
  5
75
100
AcDbEntity
  8
references
 62
256
370
-1
 48
1.0
  6
ByLayer
100
AcDbLine
 10
131.0399999999999068
 20
-152.5437344955383878
 30
0.0
 11
137.0362655044619089
 21
-158.540000000000191
 31
0.0
  0
LINE
  5
76
100
AcDbEntity
  8
references
 62
256
370
-1
 48
1.0
  6
ByLayer
100
AcDbLine
 10
5.9962655044616682
 20
-158.540000000000191
 30
0.0
 11
-0.0000000000002558
 21
-164.5362655044621079
 31
0.0
  0
LINE
  5
77
100
AcDbEntity
  8
references
 62
256
370
-1
 48
1.0
  6
ByLayer
100
AcDbLine
 10
5.9962655044617748
 20
-0.0000000000000284
 30
0.0
 11
-0.0000000000000426
 21
5.9962655044620314
 31
0.0
  0
LINE
  5
78
100
AcDbEntity
  8
references
 62
256
370
-1
 48
1.0
  6
ByLayer
100
AcDbLine
 10
131.0399999999999068
 20
-5.9962655044618032
 30
0.0
 11
137.0362655044617952
 21
0.0000000000001705
 31
0.0
  0
LINE
  5
79
100
AcDbEntity
  8
references
 62
256
370
-1
 48
1.0
  6
ByLayer
100
AcDbLine
 10
125.0437344955381036
 20
-158.540000000000191
 30
0.0
 11
131.039999999999992
 21
-164.5362655044621931
 31
0.0
  0
LINE
  5
7A
100
AcDbEntity
  8
references
 62
256
370
-1
 48
1.0
  6
ByLayer
100
AcDbLine
 10
-0.0000000000002558
 20
-152.5437344955381889
 30
0.0
 11
-5.9962655044620874
 21
-158.540000000000191
 31
0.0
  0
LINE
  5
7B
100
AcDbEntity
  8
references
 62
256
370
-1
 48
1.0
  6
ByLayer
100
AcDbLine
 10
-0.0000000000000142
 20
-5.9962655044618174
 30
0.0
 11
5.9962655044617748
 21
-0.0000000000000284
 31
0.0
  0
LINE
  5
7C
100
AcDbEntity
  8
references
 62
256
370
-1
 48
1.0
  6
ByLayer
100
AcDbLine
 10
125.0437344955380041
 20
0.0000000000001137
 30
0.0
 11
131.0399999999999068
 21
-5.9962655044618032
 31
0.0
  0
LINE
  5
7D
100
AcDbEntity
  8
references
 62
256
370
-1
 48
1.0
  6
ByLayer
100
AcDbLine
 10
131.0399999999999068
 20
-152.5437344955383878
 30
0.0
 11
125.0437344955381036
 21
-158.540000000000191
 31
0.0
  0
LINE
  5
7E
100
AcDbEntity
  8
references
 62
256
370
-1
 48
1.0
  6
ByLayer
100
AcDbLine
 10
5.9962655044616682
 20
-158.540000000000191
 30
0.0
 11
-0.0000000000002558
 21
-152.5437344955381889
 31
0.0
  0
CIRCLE
  5
7F
100
AcDbEntity
  8
arms
 62
256
370
-1
 48
1.0
  6
ByLayer
100
AcDbCircle
 10
-5.9962655044620163
 20
0.0000000000000711
 30
0.0
 40
1.0
  0
CIRCLE
  5
80
100
AcDbEntity
  8
arms
 62
256
370
-1
 48
1.0
  6
ByLayer
100
AcDbCircle
 10
131.0399999999999068
 20
5.996265504461789
 30
0.0
 40
1.0
  0
CIRCLE
  5
81
100
AcDbEntity
  8
arms
 62
256
370
-1
 48
1.0
  6
ByLayer
100
AcDbCircle
 10
0.0000000000000142
 20
-164.5362655044621079
 30
0.0
 40
1.0
  0
CIRCLE
  5
82
100
AcDbEntity
  8
arms
 62
256
370
-1
 48
1.0
  6
ByLayer
100
AcDbCircle
 10
137.0362655044619089
 20
-158.540000000000191
 30
0.0
 40
1.0
  0
CIRCLE
  5
83
100
AcDbEntity
  8
arms
 62
256
370
-1
 48
1.0
  6
ByLayer
100
AcDbCircle
 10
-0.0000000000000426
 20
5.9962655044620314
 30
0.0
 40
1.0
  0
CIRCLE
  5
84
100
AcDbEntity
  8
arms
 62
256
370
-1
 48
1.0
  6
ByLayer
100
AcDbCircle
 10
137.0362655044617952
 20
-0.0000000000000995
 30
0.0
 40
1.0
  0
CIRCLE
  5
85
100
AcDbEntity
  8
arms
 62
256
370
-1
 48
1.0
  6
ByLayer
100
AcDbCircle
 10
-5.9962655044621016
 20
-158.5399999999999068
 30
0.0
 40
1.0
  0
CIRCLE
  5
86
100
AcDbEntity
  8
arms
 62
256
370
-1
 48
1.0
  6
ByLayer
100
AcDbCircle
 10
131.039999999999992
 20
-164.5362655044621931
 30
0.0
 40
1.0
  0
CIRCLE
  5
87
100
AcDbEntity
  8
arms
 62
256
370
-1
 48
1.0
  6
ByLayer
100
AcDbCircle
 10
-0.0000000000000142
 20
-5.9962655044618174
 30
0.0
 40
1.0
  0
CIRCLE
  5
88
100
AcDbEntity
  8
arms
 62
256
370
-1
 48
1.0
  6
ByLayer
100
AcDbCircle
 10
125.0437344955380041
 20
-0.0000000000001137
 30
0.0
 40
1.0
  0
CIRCLE
  5
89
100
AcDbEntity
  8
arms
 62
256
370
-1
 48
1.0
  6
ByLayer
100
AcDbCircle
 10
5.9962655044617961
 20
-158.539999999999992
 30
0.0
 40
1.0
  0
CIRCLE
  5
8A
100
AcDbEntity
  8
arms
 62
256
370
-1
 48
1.0
  6
ByLayer
100
AcDbCircle
 10
131.0399999999999068
 20
-152.5437344955383878
 30
0.0
 40
1.0
  0
CIRCLE
  5
8B
100
AcDbEntity
  8
arms
 62
256
370
-1
 48
1.0
  6
ByLayer
100
AcDbCircle
 10
5.9962655044617748
 20
-0.0000000000000284
 30
0.0
 40
1.0
  0
CIRCLE
  5
8C
100
AcDbEntity
  8
arms
 62
256
370
-1
 48
1.0
  6
ByLayer
100
AcDbCircle
 10
131.0399999999999068
 20
-5.9962655044620732
 30
0.0
 40
1.0
  0
CIRCLE
  5
8D
100
AcDbEntity
  8
arms
 62
256
370
-1
 48
1.0
  6
ByLayer
100
AcDbCircle
 10
-0.0000000000001137
 20
-152.5437344955381036
 30
0.0
 40
1.0
  0
CIRCLE
  5
8E
100
AcDbEntity
  8
arms
 62
256
370
-1
 48
1.0
  6
ByLayer
100
AcDbCircle
 10
125.0437344955380041
 20
-158.5400000000003047
 30
0.0
 40
1.0
  0
LINE
  5
8F
100
AcDbEntity
  8
references
 62
256
370
-1
 48
1.0
  6
ByLayer
100
AcDbLine
 10
-0.0000000000000142
 20
-5.9962655044618174
 30
0.0
 11
-0.0000000000000568
 21
6.0037344955381258
 31
0.0
  0
LINE
  5
90
100
AcDbEntity
  8
references
 62
256
370
-1
 48
1.0
  6
ByLayer
100
AcDbLine
 10
125.0437344955380041
 20
0.0000000000001137
 30
0.0
 11
137.0437344955379899
 21
0.0000000000001137
 31
0.0
  0
LINE
  5
91
100
AcDbEntity
  8
references
 62
256
370
-1
 48
1.0
  6
ByLayer
100
AcDbLine
 10
131.0399999999999068
 20
-152.5437344955383878
 30
0.0
 11
131.040000000000191
 21
-164.5437344955381036
 31
0.0
  0
LINE
  5
92
100
AcDbEntity
  8
references
 62
256
370
-1
 48
1.0
  6
ByLayer
100
AcDbLine
 10
5.9962655044616682
 20
-158.540000000000191
 30
0.0
 11
-6.0037344955381684
 21
-158.5400000000003899
 31
0.0
  0
LINE
  5
93
100
AcDbEntity
  8
references
 62
256
370
-1
 48
1.0
  6
ByLayer
100
AcDbLine
 10
-5.9962655044620163
 20
0.0000000000000711
 30
0.0
 11
6.0037344955380476
 21
0.0000000000000711
 31
0.0
  0
LINE
  5
94
100
AcDbEntity
  8
references
 62
256
370
-1
 48
1.0
  6
ByLayer
100
AcDbLine
 10
131.0399999999997931
 20
5.9962655044620732
 30
0.0
 11
131.0399999999999068
 21
-6.0037344955379979
 31
0.0
  0
LINE
  5
95
100
AcDbEntity
  8
references
 62
256
370
-1
 48
1.0
  6
ByLayer
100
AcDbLine
 10
137.0362655044619089
 20
-158.540000000000191
 30
0.0
 11
125.0362655044619942
 21
-158.540000000000191
 31
0.0
  0
LINE
  5
96
100
AcDbEntity
  8
references
 62
256
370
-1
 48
1.0
  6
ByLayer
100
AcDbLine
 10
-0.0000000000002558
 20
-164.5362655044621079
 30
0.0
 11
-0.0000000000002416
 21
-152.5362655044621079
 31
0.0
  0
CIRCLE
  5
97
100
AcDbEntity
  8
arms
 62
256
370
-1
 48
1.0
  6
ByLayer
100
AcDbCircle
 10
-0.0000000000001563
 20
-0.0000000000000568
 30
0.0
 40
2.5
  0
CIRCLE
  5
98
100
AcDbEntity
  8
arms
 62
256
370
-1
 48
1.0
  6
ByLayer
100
AcDbCircle
 10
131.0399999999999068
 20
-0.0000000000001421
 30
0.0
 40
2.5
  0
CIRCLE
  5
99
100
AcDbEntity
  8
arms
 62
256
370
-1
 48
1.0
  6
ByLayer
100
AcDbCircle
 10
-0.0000000000001421
 20
-158.539999999999992
 30
0.0
 40
2.5
  0
CIRCLE
  5
9A
100
AcDbEntity
  8
arms
 62
256
370
-1
 48
1.0
  6
ByLayer
100
AcDbCircle
 10
131.0400000000001057
 20
-158.539999999999992
 30
0.0
 40
2.5
  0
LINE
  5
9B
100
AcDbEntity
  8
references
 62
256
370
-1
 48
1.0
  6
ByLayer
100
AcDbLine
 10
-0.0000000000001563
 20
-20.0000000000000213
 30
0.0
 11
-0.0000000000000568
 21
20.0000000000000391
 31
0.0
  0
LINE
  5
9C
100
AcDbEntity
  8
references
 62
256
370
-1
 48
1.0
  6
ByLayer
100
AcDbLine
 10
111.0399999999999068
 20
0.0000000000001137
 30
0.0
 11
151.0399999999999068
 21
0.0000000000000853
 31
0.0
  0
LINE
  5
9D
100
AcDbEntity
  8
references
 62
256
370
-1
 48
1.0
  6
ByLayer
100
AcDbLine
 10
131.040000000000191
 20
-138.5400000000001057
 30
0.0
 11
131.0400000000001057
 21
-178.540000000000191
 31
0.0
  0
LINE
  5
9E
100
AcDbEntity
  8
references
 62
256
370
-1
 48
1.0
  6
ByLayer
100
AcDbLine
 10
19.9999999999998188
 20
-158.540000000000191
 30
0.0
 11
-20.0000000000002416
 21
-158.5400000000001057
 31
0.0
  0
LINE
  5
9F
100
AcDbEntity
  8
references
 62
256
370
-1
 48
1.0
  6
ByLayer
100
AcDbLine
 10
-20.0000000000002807
 20
-0.000000000000199
 30
0.0
 11
19.9999999999999112
 21
0.0000000000000284
 31
0.0
  0
LINE
  5
A0
100
AcDbEntity
  8
references
 62
256
370
-1
 48
1.0
  6
ByLayer
100
AcDbLine
 10
131.039999999999992
 20
20.0000000000000995
 30
0.0
 11
131.0399999999999068
 21
-19.9999999999998685
 31
0.0
  0
LINE
  5
A1
100
AcDbEntity
  8
references
 62
256
370
-1
 48
1.0
  6
ByLayer
100
AcDbLine
 10
151.0399999999997931
 20
-158.5400000000005036
 30
0.0
 11
111.0400000000001057
 21
-158.540000000000191
 31
0.0
  0
LINE
  5
A2
100
AcDbEntity
  8
references
 62
256
370
-1
 48
1.0
  6
ByLayer
100
AcDbLine
 10
-0.0000000000001563
 20
-178.5400000000003047
 30
0.0
 11
-0.0000000000000995
 21
-138.5400000000003899
 31
0.0
  0
LINE
  5
A3
100
AcDbEntity
  8
references
 62
256
370
-1
 48
1.0
  6
ByLayer
100
AcDbLine
 10
-20.0000000000002807
 20
-0.000000000000199
 30
0.0
 11
-13.0000000000010907
 21
-0.0000000000009663
 31
0.0
  0
LINE
  5
A4
100
AcDbEntity
  8
references
 62
256
370
-1
 48
1.0
  6
ByLayer
100
AcDbLine
 10
131.039999999999992
 20
20.0000000000000995
 30
0.0
 11
131.0399999999999068
 21
13.0000000000000906
 31
0.0
  0
LINE
  5
A5
100
AcDbEntity
  8
references
 62
256
370
-1
 48
1.0
  6
ByLayer
100
AcDbLine
 10
151.0399999999997931
 20
-158.5400000000005036
 30
0.0
 11
144.0400000000012994
 21
-158.5399999999989973
 31
0.0
  0
LINE
  5
A6
100
AcDbEntity
  8
references
 62
256
370
-1
 48
1.0
  6
ByLayer
100
AcDbLine
 10
-0.0000000000001563
 20
-178.5400000000003047
 30
0.0
 11
-0.0000000000001563
 21
-171.540000000000191
 31
0.0
  0
LINE
  5
A7
100
AcDbEntity
  8
references
 62
256
370
-1
 48
1.0
  6
ByLayer
100
AcDbLine
 10
12.9999999999999094
 20
0.0000000000000284
 30
0.0
 11
19.9999999999999112
 21
0.0000000000000284
 31
0.0
  0
LINE
  5
A8
100
AcDbEntity
  8
references
 62
256
370
-1
 48
1.0
  6
ByLayer
100
AcDbLine
 10
131.0399999999999068
 20
-12.9999999999999307
 30
0.0
 11
131.0399999999999068
 21
-19.9999999999998685
 31
0.0
  0
LINE
  5
A9
100
AcDbEntity
  8
references
 62
256
370
-1
 48
1.0
  6
ByLayer
100
AcDbLine
 10
118.0400000000000063
 20
-158.540000000000191
 30
0.0
 11
111.0400000000001057
 21
-158.540000000000191
 31
0.0
  0
LINE
  5
AA
100
AcDbEntity
  8
references
 62
256
370
-1
 48
1.0
  6
ByLayer
100
AcDbLine
 10
-0.0000000000001563
 20
-145.540000000000191
 30
0.0
 11
-0.0000000000000995
 21
-138.5400000000003899
 31
0.0
  0
LINE
  5
AB
100
AcDbEntity
  8
references
 62
256
370
-1
 48
1.0
  6
ByLayer
100
AcDbLine
 10
-0.0000000000000853
 20
13.0000000000000302
 30
0.0
 11
-0.0000000000000568
 21
20.0000000000000391
 31
0.0
  0
LINE
  5
AC
100
AcDbEntity
  8
references
 62
256
370
-1
 48
1.0
  6
ByLayer
100
AcDbLine
 10
144.0399999999999068
 20
0.0000000000000568
 30
0.0
 11
151.0399999999999068
 21
0.0000000000000853
 31
0.0
  0
LINE
  5
AD
100
AcDbEntity
  8
references
 62
256
370
-1
 48
1.0
  6
ByLayer
100
AcDbLine
 10
131.0399999999999068
 20
-171.5400000000003047
 30
0.0
 11
131.0400000000001057
 21
-178.540000000000191
 31
0.0
  0
LINE
  5
AE
100
AcDbEntity
  8
references
 62
256
370
-1
 48
1.0
  6
ByLayer
100
AcDbLine
 10
-13.0000000000002007
 20
-158.5400000000001057
 30
0.0
 11
-20.0000000000002416
 21
-158.5400000000001057
 31
0.0
  0
LINE
  5
AF
100
AcDbEntity
  8
references
 62
256
370
-1
 48
1.0
  6
ByLayer
100
AcDbLine
 10
-0.0000000000001563
 20
-20.0000000000000213
 30
0.0
 11
0.0000000000003268
 21
-12.9999999999995506
 31
0.0
  0
LINE
  5
B0
100
AcDbEntity
  8
references
 62
256
370
-1
 48
1.0
  6
ByLayer
100
AcDbLine
 10
111.0399999999999068
 20
0.0000000000001137
 30
0.0
 11
118.0399999999999068
 21
0.0000000000001279
 31
0.0
  0
LINE
  5
B1
100
AcDbEntity
  8
references
 62
256
370
-1
 48
1.0
  6
ByLayer
100
AcDbLine
 10
131.040000000000191
 20
-138.5400000000001057
 30
0.0
 11
131.0400000000009868
 21
-145.5399999999991962
 31
0.0
  0
LINE
  5
B2
100
AcDbEntity
  8
references
 62
256
370
-1
 48
1.0
  6
ByLayer
100
AcDbLine
 10
19.9999999999998188
 20
-158.540000000000191
 30
0.0
 11
12.9999999999998099
 21
-158.540000000000191
 31
0.0
  0
CIRCLE
  5
B3
100
AcDbEntity
  8
references
 62
256
370
-1
 48
1.0
  6
ByLayer
100
AcDbCircle
 10
-0.00000000000027
 20
-16.5000000000001492
 30
0.0
 40
3.5
  0
CIRCLE
  5
B4
100
AcDbEntity
  8
references
 62
256
370
-1
 48
1.0
  6
ByLayer
100
AcDbCircle
 10
114.5399999999999068
 20
0.0000000000000853
 30
0.0
 40
3.5
  0
CIRCLE
  5
B5
100
AcDbEntity
  8
references
 62
256
370
-1
 48
1.0
  6
ByLayer
100
AcDbCircle
 10
131.0399999999997931
 20
-142.0400000000005036
 30
0.0
 40
3.5
  0
CIRCLE
  5
B6
100
AcDbEntity
  8
references
 62
256
370
-1
 48
1.0
  6
ByLayer
100
AcDbCircle
 10
16.4999999999999112
 20
-158.5400000000003047
 30
0.0
 40
3.5
  0
CIRCLE
  5
B7
100
AcDbEntity
  8
references
 62
256
370
-1
 48
1.0
  6
ByLayer
100
AcDbCircle
 10
16.4999999999998614
 20
0.0000000000000142
 30
0.0
 40
3.5
  0
CIRCLE
  5
B8
100
AcDbEntity
  8
references
 62
256
370
-1
 48
1.0
  6
ByLayer
100
AcDbCircle
 10
131.0399999999999068
 20
-16.4999999999998899
 30
0.0
 40
3.5
  0
CIRCLE
  5
B9
100
AcDbEntity
  8
references
 62
256
370
-1
 48
1.0
  6
ByLayer
100
AcDbCircle
 10
114.5400000000000063
 20
-158.540000000000191
 30
0.0
 40
3.5
  0
CIRCLE
  5
BA
100
AcDbEntity
  8
references
 62
256
370
-1
 48
1.0
  6
ByLayer
100
AcDbCircle
 10
-0.0000000000002132
 20
-142.040000000000191
 30
0.0
 40
3.5
  0
CIRCLE
  5
BB
100
AcDbEntity
  8
references
 62
256
370
-1
 48
1.0
  6
ByLayer
100
AcDbCircle
 10
-0.0000000000001705
 20
16.4999999999999609
 30
0.0
 40
3.5
  0
CIRCLE
  5
BC
100
AcDbEntity
  8
references
 62
256
370
-1
 48
1.0
  6
ByLayer
100
AcDbCircle
 10
147.5399999999999068
 20
0.0000000000000853
 30
0.0
 40
3.5
  0
CIRCLE
  5
BD
100
AcDbEntity
  8
references
 62
256
370
-1
 48
1.0
  6
ByLayer
100
AcDbCircle
 10
131.040000000000191
 20
-175.0400000000001057
 30
0.0
 40
3.5
  0
CIRCLE
  5
BE
100
AcDbEntity
  8
references
 62
256
370
-1
 48
1.0
  6
ByLayer
100
AcDbCircle
 10
-16.50000000000027
 20
-158.540000000000191
 30
0.0
 40
3.5
  0
CIRCLE
  5
BF
100
AcDbEntity
  8
references
 62
256
370
-1
 48
1.0
  6
ByLayer
100
AcDbCircle
 10
-16.4999999999996696
 20
0.0000000000004405
 30
0.0
 40
3.5
  0
CIRCLE
  5
C0
100
AcDbEntity
  8
references
 62
256
370
-1
 48
1.0
  6
ByLayer
100
AcDbCircle
 10
131.0399999999999068
 20
16.5000000000001101
 30
0.0
 40
3.5
  0
CIRCLE
  5
C1
100
AcDbEntity
  8
references
 62
256
370
-1
 48
1.0
  6
ByLayer
100
AcDbCircle
 10
147.5399999999997931
 20
-158.5400000000003899
 30
0.0
 40
3.5
  0
CIRCLE
  5
C2
100
AcDbEntity
  8
references
 62
256
370
-1
 48
1.0
  6
ByLayer
100
AcDbCircle
 10
-0.0000000000002842
 20
-175.040000000000191
 30
0.0
 40
3.5
  0
LINE
  5
C3
100
AcDbEntity
  8
references
 62
256
370
-1
 48
1.0
  6
ByLayer
100
AcDbLine
 10
-7.0710678118657464
 20
-7.0710678118656318
 30
0.0
 11
7.0710678118653618
 21
7.0710678118654764
 31
0.0
  0
LINE
  5
C4
100
AcDbEntity
  8
references
 62
256
370
-1
 48
1.0
  6
ByLayer
100
AcDbLine
 10
123.9689321881344028
 20
7.0710678118655892
 30
0.0
 11
138.1110678118654107
 21
-7.0710678118653618
 31
0.0
  0
LINE
  5
C5
100
AcDbEntity
  8
references
 62
256
370
-1
 48
1.0
  6
ByLayer
100
AcDbLine
 10
138.1110678118658939
 20
-151.4689321881344028
 30
0.0
 11
123.9689321881345023
 21
-165.6110678118658086
 31
0.0
  0
LINE
  5
C6
100
AcDbEntity
  8
references
 62
256
370
-1
 48
1.0
  6
ByLayer
100
AcDbLine
 10
7.0710678118652837
 20
-165.6110678118656949
 30
0.0
 11
-7.0710678118657464
 21
-151.4689321881346871
 31
0.0
  0
LINE
  5
C7
100
AcDbEntity
  8
references
 62
256
370
-1
 48
1.0
  6
ByLayer
100
AcDbLine
 10
7.0710678118654036
 20
-7.0710678118654329
 30
0.0
 11
-7.0710678118657313
 21
7.071067811865376
 31
0.0
  0
LINE
  5
C8
100
AcDbEntity
  8
references
 62
256
370
-1
 48
1.0
  6
ByLayer
100
AcDbLine
 10
123.9689321881344028
 20
-7.0710678118653618
 30
0.0
 11
138.1110678118654107
 21
7.071067811865575
 31
0.0
  0
LINE
  5
C9
100
AcDbEntity
  8
references
 62
256
370
-1
 48
1.0
  6
ByLayer
100
AcDbLine
 10
123.9689321881347013
 20
-151.4689321881346871
 30
0.0
 11
138.111067811865496
 21
-165.6110678118658086
 31
0.0
  0
LINE
  5
CA
100
AcDbEntity
  8
references
 62
256
370
-1
 48
1.0
  6
ByLayer
100
AcDbLine
 10
7.0710678118652837
 20
-151.4689321881346871
 30
0.0
 11
-7.0710678118656887
 21
-165.6110678118656949
 31
0.0
  0
SPLINE
  5
CB
100
AcDbEntity
  8
arms
 62
256
370
-1
 48
1.0
  6
ByLayer
100
AcDbSpline
 70
8
 71
3
 72
9
 73
5
 74
0
 40
0.0
 40
0.0
 40
0.0
 40
0.0
 40
1.0
 40
2.0
 40
2.0
 40
2.0
 40
2.0
 10
-20.0000000000002807
 20
-0.000000000000199
 30
0.0
 10
-20.5060966544101611
 20
4.9497474683056737
 30
0.0
 10
1.4142135623728931
 20
-1.4142135623731631
 30
0.0
 10
-4.9497474683060148
 20
20.5060966544098306
 30
0.0
 10
-0.0000000000000284
 20
20.0
 30
0.0
  0
SPLINE
  5
CC
100
AcDbEntity
  8
arms
 62
256
370
-1
 48
1.0
  6
ByLayer
100
AcDbSpline
 70
8
 71
3
 72
9
 73
5
 74
0
 40
0.0
 40
0.0
 40
0.0
 40
0.0
 40
1.0
 40
2.0
 40
2.0
 40
2.0
 40
2.0
 10
131.0400000000001057
 20
19.9999999999997691
 30
0.0
 10
135.9897474683058078
 20
20.5060966544096992
 30
0.0
 10
129.6257864376268003
 20
-1.414213562373263
 30
0.0
 10
151.5460966544098085
 20
4.9497474683057021
 30
0.0
 10
151.0399999999997931
 20
-0.0000000000001137
 30
0.0
  0
SPLINE
  5
CD
100
AcDbEntity
  8
arms
 62
256
370
-1
 48
1.0
  6
ByLayer
100
AcDbSpline
 70
8
 71
3
 72
9
 73
5
 74
0
 40
0.0
 40
0.0
 40
0.0
 40
0.0
 40
1.0
 40
2.0
 40
2.0
 40
2.0
 40
2.0
 10
-0.0000000000002132
 20
-178.539999999999992
 30
0.0
 10
-4.9497474683060014
 20
-179.0460966544100074
 30
0.0
 10
1.414213562373035
 20
-157.1257864376269993
 30
0.0
 10
-20.5060966544100296
 20
-163.4897474683058931
 30
0.0
 10
-20.0000000000000888
 20
-158.5399999999999068
 30
0.0
  0
SPLINE
  5
CE
100
AcDbEntity
  8
arms
 62
256
370
-1
 48
1.0
  6
ByLayer
100
AcDbSpline
 70
8
 71
3
 72
9
 73
5
 74
0
 40
0.0
 40
0.0
 40
0.0
 40
0.0
 40
1.0
 40
2.0
 40
2.0
 40
2.0
 40
2.0
 10
151.0399999999999068
 20
-158.540000000000191
 30
0.0
 10
151.5460966544094106
 20
-163.48974746830649
 30
0.0
 10
129.6257864376269993
 20
-157.1257864376271129
 30
0.0
 10
135.9897474683058078
 20
-179.0460966544100927
 30
0.0
 10
131.0399999999997931
 20
-178.540000000000191
 30
0.0
  0
SPLINE
  5
CF
100
AcDbEntity
  8
arms
 62
256
370
-1
 48
1.0
  6
ByLayer
100
AcDbSpline
 70
8
 71
3
 72
9
 73
5
 74
0
 40
0.0
 40
0.0
 40
0.0
 40
0.0
 40
1.0
 40
2.0
 40
2.0
 40
2.0
 40
2.0
 10
0.0000000000010516
 20
-13.9999999999988205
 30
0.0
 10
-5.0000000000000568
 20
-13.9999999999999396
 30
0.0
 10
-1.000000000000171
 20
-1.0000000000000431
 30
0.0
 10
-20.5060966544099905
 20
-4.9497474683058016
 30
0.0
 10
-19.9999999999998401
 20
0.0000000000002132
 30
0.0
  0
SPLINE
  5
D0
100
AcDbEntity
  8
arms
 62
256
370
-1
 48
1.0
  6
ByLayer
100
AcDbSpline
 70
8
 71
3
 72
9
 73
5
 74
0
 40
0.0
 40
0.0
 40
0.0
 40
0.0
 40
1.0
 40
2.0
 40
2.0
 40
2.0
 40
2.0
 10
14.1171713243650405
 20
0.0361603583988028
 30
0.0
 10
13.8550341022016106
 20
4.8659975542876586
 30
0.0
 10
0.8171510277541216
 20
0.9912582163406256
 30
0.0
 10
4.9543876245719431
 20
20.4584507488172811
 30
0.0
 10
-0.0000000000000284
 20
20.0
 30
0.0
  0
SPLINE
  5
D1
100
AcDbEntity
  8
arms
 62
256
370
-1
 48
1.0
  6
ByLayer
100
AcDbSpline
 70
8
 71
3
 72
9
 73
5
 74
0
 40
0.0
 40
0.0
 40
0.0
 40
0.0
 40
1.0
 40
2.0
 40
2.0
 40
2.0
 40
2.0
 10
117.0399999999999068
 20
-0.0000000000001279
 30
0.0
 10
117.0399999999999068
 20
4.9999999999998721
 30
0.0
 10
130.0399999999999068
 20
0.9999999999997868
 30
0.0
 10
126.0902525316941052
 20
20.5060966544097205
 30
0.0
 10
131.0399999999997931
 20
19.9999999999998685
 30
0.0
  0
SPLINE
  5
D2
100
AcDbEntity
  8
arms
 62
256
370
-1
 48
1.0
  6
ByLayer
100
AcDbSpline
 70
8
 71
3
 72
9
 73
5
 74
0
 40
0.0
 40
0.0
 40
0.0
 40
0.0
 40
1.0
 40
2.0
 40
2.0
 40
2.0
 40
2.0
 10
131.0761603583987096
 20
-14.1171713243652892
 30
0.0
 10
135.9059975542874952
 20
-13.8550341022018699
 30
0.0
 10
132.0312582163404898
 20
-0.8171510277543916
 30
0.0
 10
151.4984507488171914
 20
-4.9543876245722913
 30
0.0
 10
151.0399999999997931
 20
-0.0000000000001137
 30
0.0
  0
SPLINE
  5
D3
100
AcDbEntity
  8
arms
 62
256
370
-1
 48
1.0
  6
ByLayer
100
AcDbSpline
 70
8
 71
3
 72
9
 73
5
 74
0
 40
0.0
 40
0.0
 40
0.0
 40
0.0
 40
1.0
 40
2.0
 40
2.0
 40
2.0
 40
2.0
 10
14.0000000000000409
 20
-158.5400000000001057
 30
0.0
 10
13.9999999999999591
 20
-163.5400000000001057
 30
0.0
 10
0.9999999999998721
 20
-159.539999999999992
 30
0.0
 10
4.9497474683057234
 20
-179.0460966544098937
 30
0.0
 10
-0.0000000000000568
 20
-178.5400000000001057
 30
0.0
  0
SPLINE
  5
D4
100
AcDbEntity
  8
arms
 62
256
370
-1
 48
1.0
  6
ByLayer
100
AcDbSpline
 70
8
 71
3
 72
9
 73
5
 74
0
 40
0.0
 40
0.0
 40
0.0
 40
0.0
 40
1.0
 40
2.0
 40
2.0
 40
2.0
 40
2.0
 10
-0.0361603583988739
 20
-144.4228286756348894
 30
0.0
 10
-4.8659975542877314
 20
-144.6849658977984063
 30
0.0
 10
-0.9912582163407393
 20
-157.7228489722457994
 30
0.0
 10
-20.4584507488173593
 20
-153.5856123754280134
 30
0.0
 10
-20.0000000000000888
 20
-158.5399999999999068
 30
0.0
  0
SPLINE
  5
D5
100
AcDbEntity
  8
arms
 62
256
370
-1
 48
1.0
  6
ByLayer
100
AcDbSpline
 70
8
 71
3
 72
9
 73
5
 74
0
 40
0.0
 40
0.0
 40
0.0
 40
0.0
 40
1.0
 40
2.0
 40
2.0
 40
2.0
 40
2.0
 10
131.0399999999989973
 20
-144.5400000000011005
 30
0.0
 10
136.039999999999992
 20
-144.5400000000001057
 30
0.0
 10
132.0399999999997931
 20
-157.540000000000191
 30
0.0
 10
151.5460966544098085
 20
-153.5902525316944036
 30
0.0
 10
151.0399999999999068
 20
-158.540000000000191
 30
0.0
  0
SPLINE
  5
D6
100
AcDbEntity
  8
arms
 62
256
370
-1
 48
1.0
  6
ByLayer
100
AcDbSpline
 70
8
 71
3
 72
9
 73
5
 74
0
 40
0.0
 40
0.0
 40
0.0
 40
0.0
 40
1.0
 40
2.0
 40
2.0
 40
2.0
 40
2.0
 10
116.9228286756349036
 20
-158.5761603583989086
 30
0.0
 10
117.1849658977981932
 20
-163.4059975542878078
 30
0.0
 10
130.2228489722457994
 20
-159.5312582163406034
 30
0.0
 10
126.0856123754278002
 20
-178.9984507488173904
 30
0.0
 10
131.0399999999997931
 20
-178.540000000000191
 30
0.0
  0
SPLINE
  5
D7
100
AcDbEntity
  8
arms
 62
256
370
-1
 48
1.0
  6
ByLayer
100
AcDbSpline
 70
8
 71
3
 72
9
 73
5
 74
0
 40
0.0
 40
0.0
 40
0.0
 40
0.0
 40
1.0
 40
2.0
 40
2.0
 40
2.0
 40
2.0
 10
12.1600976840527402
 20
-17.8169051875911713
 30
0.0
 10
8.9999999999997939
 20
-15.0000000000000906
 30
0.0
 10
5.9999999999998863
 20
-9.9999999999999858
 30
0.0
 10
1.710706462770041
 20
-14.0726023544537906
 30
0.0
 10
0.0000000000010516
 20
-13.9999999999988205
 30
0.0
  0
SPLINE
  5
D8
100
AcDbEntity
  8
arms
 62
256
370
-1
 48
1.0
  6
ByLayer
100
AcDbSpline
 70
8
 71
3
 72
9
 73
5
 74
0
 40
0.0
 40
0.0
 40
0.0
 40
0.0
 40
1.0
 40
2.0
 40
2.0
 40
2.0
 40
2.0
 10
17.8169051875911109
 20
-12.1600976840528308
 30
0.0
 10
15.0305342929018106
 20
-8.9730442728495348
 30
0.0
 10
10.0596292989311404
 20
-5.9250771567347726
 30
0.0
 10
14.1733112795466596
 20
-1.6751654460783669
 30
0.0
 10
14.1171713243650405
 20
0.0361603583988028
 30
0.0
  0
SPLINE
  5
D9
100
AcDbEntity
  8
arms
 62
256
370
-1
 48
1.0
  6
ByLayer
100
AcDbSpline
 70
8
 71
3
 72
9
 73
5
 74
0
 40
0.0
 40
0.0
 40
0.0
 40
0.0
 40
1.0
 40
2.0
 40
2.0
 40
2.0
 40
2.0
 10
113.2230948124087035
 20
-12.1600976840529995
 30
0.0
 10
116.0399999999999068
 20
-9.0000000000001705
 30
0.0
 10
121.0399999999999068
 20
-6.0000000000001563
 30
0.0
 10
116.9673976455465976
 20
-1.710706462770673
 30
0.0
 10
117.0399999999999068
 20
-0.0000000000001279
 30
0.0
  0
SPLINE
  5
DA
100
AcDbEntity
  8
arms
 62
256
370
-1
 48
1.0
  6
ByLayer
100
AcDbSpline
 70
8
 71
3
 72
9
 73
5
 74
0
 40
0.0
 40
0.0
 40
0.0
 40
0.0
 40
1.0
 40
2.0
 40
2.0
 40
2.0
 40
2.0
 10
118.8799023159470067
 20
-17.8169051875912992
 30
0.0
 10
122.0669557271504004
 20
-15.0305342929020807
 30
0.0
 10
125.1149228432650062
 20
-10.0596292989313305
 30
0.0
 10
129.3648345539216109
 20
-14.1733112795470202
 30
0.0
 10
131.0761603583987096
 20
-14.1171713243652892
 30
0.0
  0
SPLINE
  5
DB
100
AcDbEntity
  8
arms
 62
256
370
-1
 48
1.0
  6
ByLayer
100
AcDbSpline
 70
8
 71
3
 72
9
 73
5
 74
0
 40
0.0
 40
0.0
 40
0.0
 40
0.0
 40
1.0
 40
2.0
 40
2.0
 40
2.0
 40
2.0
 10
17.8169051875910505
 20
-146.3799023159473052
 30
0.0
 10
14.9999999999998703
 20
-149.539999999999992
 30
0.0
 10
9.9999999999998437
 20
-152.539999999999992
 30
0.0
 10
14.0726023544534709
 20
-156.8292935372296029
 30
0.0
 10
14.0000000000000409
 20
-158.5400000000001057
 30
0.0
  0
SPLINE
  5
DC
100
AcDbEntity
  8
arms
 62
256
370
-1
 48
1.0
  6
ByLayer
100
AcDbSpline
 70
8
 71
3
 72
9
 73
5
 74
0
 40
0.0
 40
0.0
 40
0.0
 40
0.0
 40
1.0
 40
2.0
 40
2.0
 40
2.0
 40
2.0
 10
12.1600976840527402
 20
-140.7230948124087888
 30
0.0
 10
8.9730442728494069
 20
-143.5094657070980873
 30
0.0
 10
5.9250771567347371
 20
-148.4803707010688925
 30
0.0
 10
1.6751654460783529
 20
-144.3666887204533111
 30
0.0
 10
-0.0361603583988739
 20
-144.4228286756348894
 30
0.0
  0
SPLINE
  5
DD
100
AcDbEntity
  8
arms
 62
256
370
-1
 48
1.0
  6
ByLayer
100
AcDbSpline
 70
8
 71
3
 72
9
 73
5
 74
0
 40
0.0
 40
0.0
 40
0.0
 40
0.0
 40
1.0
 40
2.0
 40
2.0
 40
2.0
 40
2.0
 10
118.8799023159472057
 20
-140.7230948124089878
 30
0.0
 10
122.0400000000000063
 20
-143.540000000000191
 30
0.0
 10
125.0399999999997931
 20
-148.5400000000003047
 30
0.0
 10
129.3292935372288071
 20
-144.4673976455474076
 30
0.0
 10
131.0399999999989973
 20
-144.5400000000011005
 30
0.0
  0
SPLINE
  5
DE
100
AcDbEntity
  8
arms
 62
256
370
-1
 48
1.0
  6
ByLayer
100
AcDbSpline
 70
8
 71
3
 72
9
 73
5
 74
0
 40
0.0
 40
0.0
 40
0.0
 40
0.0
 40
1.0
 40
2.0
 40
2.0
 40
2.0
 40
2.0
 10
113.2230948124089025
 20
-146.3799023159473052
 30
0.0
 10
116.0094657070979025
 20
-149.5669557271507131
 30
0.0
 10
120.9803707010689067
 20
-152.6149228432653047
 30
0.0
 10
116.8666887204531974
 20
-156.8648345539218099
 30
0.0
 10
116.9228286756349036
 20
-158.5761603583989086
 30
0.0
  0
LINE
  5
DF
100
AcDbEntity
  8
references
 62
256
370
-1
 48
1.0
  6
ByLayer
100
AcDbLine
 10
41.0715728752536506
 20
-46.7284271247462328
 30
0.0
 11
46.7284271247460765
 21
-41.071572875253807
 31
0.0
  0
LINE
  5
E0
100
AcDbEntity
  8
references
 62
256
370
-1
 48
1.0
  6
ByLayer
100
AcDbLine
 10
84.3115728752539439
 20
-117.4684271247464977
 30
0.0
 11
89.9684271247462988
 21
-111.8115728752540008
 31
0.0
  0
LINE
  5
E1
100
AcDbEntity
  8
references
 62
256
370
-1
 48
1.0
  6
ByLayer
100
AcDbLine
 10
77.7718672477688102
 20
-47.2718672477689381
 30
0.0
 11
83.7681327522307271
 21
-53.2681327522309402
 31
0.0
  0
LINE
  5
E2
100
AcDbEntity
  8
references
 62
256
370
-1
 48
1.0
  6
ByLayer
100
AcDbLine
 10
41.0715728752536791
 20
-111.8115728752540008
 30
0.0
 11
46.7284271247460978
 21
-117.4684271247464977
 31
0.0
  0
LINE
  5
E3
100
AcDbEntity
  8
references
 62
256
370
-1
 48
1.0
  6
ByLayer
100
AcDbLine
 10
84.3115728752537024
 20
-41.0715728752536293
 30
0.0
 11
89.9684271247460572
 21
-46.728427124746041
 31
0.0
  0
LINE
  5
E4
100
AcDbEntity
  8
references
 62
256
370
-1
 48
1.0
  6
ByLayer
100
AcDbLine
 10
83.7681327522310681
 20
-105.2718672477690944
 30
0.0
 11
77.7718672477690944
 21
-111.2681327522309971
 31
0.0
  0
LINE
  5
E5
100
AcDbEntity
  8
references
 62
256
370
-1
 48
1.0
  6
ByLayer
100
AcDbLine
 10
53.2681327522309473
 20
-47.2718672477691726
 30
0.0
 11
47.2718672477689807
 21
-53.2681327522310823
 31
0.0
  0
LINE
  5
E6
100
AcDbEntity
  8
references
 62
256
370
-1
 48
1.0
  6
ByLayer
100
AcDbLine
 10
53.2681327522309829
 20
-111.2681327522310966
 30
0.0
 11
47.2718672477690518
 21
-105.2718672477691939
 31
0.0
  0
LINE
  5
E7
100
AcDbEntity
  8
references
 62
256
370
-1
 48
1.0
  6
ByLayer
100
AcDbLine
 10
7.0710678118654036
 20
-7.0710678118654329
 30
0.0
 11
50.2699999999998681
 21
-50.2700000000000173
 31
0.0
  0
LINE
  5
E8
100
AcDbEntity
  8
references
 62
256
370
-1
 48
1.0
  6
ByLayer
100
AcDbLine
 10
123.9689321881344028
 20
-7.0710678118653618
 30
0.0
 11
80.7699999999997544
 21
-50.2700000000002234
 31
0.0
  0
LINE
  5
E9
100
AcDbEntity
  8
references
 62
256
370
-1
 48
1.0
  6
ByLayer
100
AcDbLine
 10
123.9689321881347013
 20
-151.4689321881346871
 30
0.0
 11
80.769999999999925
 21
-108.2700000000000955
 31
0.0
  0
LINE
  5
EA
100
AcDbEntity
  8
references
 62
256
370
-1
 48
1.0
  6
ByLayer
100
AcDbLine
 10
7.0710678118652837
 20
-151.4689321881346871
 30
0.0
 11
50.2699999999999818
 21
-108.2700000000000955
 31
0.0
  0
CIRCLE
  5
EB
100
AcDbEntity
  8
arms
 62
256
370
-1
 48
1.0
  6
ByLayer
100
AcDbCircle
 10
43.8999999999999133
 20
-43.8999999999999773
 30
0.0
 40
1.5
  0
CIRCLE
  5
EC
100
AcDbEntity
  8
arms
 62
256
370
-1
 48
1.0
  6
ByLayer
100
AcDbCircle
 10
87.1399999999998727
 20
-43.9000000000001123
 30
0.0
 40
1.5
  0
CIRCLE
  5
ED
100
AcDbEntity
  8
arms
 62
256
370
-1
 48
1.0
  6
ByLayer
100
AcDbCircle
 10
43.8999999999999631
 20
-114.6400000000000006
 30
0.0
 40
1.5
  0
CIRCLE
  5
EE
100
AcDbEntity
  8
arms
 62
256
370
-1
 48
1.0
  6
ByLayer
100
AcDbCircle
 10
87.140000000000029
 20
-114.6400000000001
 30
0.0
 40
1.5
  0
CIRCLE
  5
EF
100
AcDbEntity
  8
arms
 62
256
370
-1
 48
1.0
  6
ByLayer
100
AcDbCircle
 10
50.2699999999999108
 20
-50.2699999999999818
 30
0.0
 40
1.5
  0
CIRCLE
  5
F0
100
AcDbEntity
  8
arms
 62
256
370
-1
 48
1.0
  6
ByLayer
100
AcDbCircle
 10
50.2699999999999818
 20
-108.2700000000000955
 30
0.0
 40
1.5
  0
CIRCLE
  5
F1
100
AcDbEntity
  8
arms
 62
256
370
-1
 48
1.0
  6
ByLayer
100
AcDbCircle
 10
80.769999999999996
 20
-108.2700000000000955
 30
0.0
 40
1.5
  0
CIRCLE
  5
F2
100
AcDbEntity
  8
motors
 62
256
370
-1
 48
1.0
  6
ByLayer
100
AcDbCircle
 10
-0.0000000000001563
 20
-0.0000000000000568
 30
0.0
 40
10.0
  0
CIRCLE
  5
F3
100
AcDbEntity
  8
motors
 62
256
370
-1
 48
1.0
  6
ByLayer
100
AcDbCircle
 10
131.0399999999999068
 20
0.0000000000001421
 30
0.0
 40
10.0
  0
CIRCLE
  5
F4
100
AcDbEntity
  8
motors
 62
256
370
-1
 48
1.0
  6
ByLayer
100
AcDbCircle
 10
131.0400000000001057
 20
-158.539999999999992
 30
0.0
 40
10.0
  0
CIRCLE
  5
F5
100
AcDbEntity
  8
motors
 62
256
370
-1
 48
1.0
  6
ByLayer
100
AcDbCircle
 10
-0.0000000000001421
 20
-158.540000000000191
 30
0.0
 40
10.0
  0
ARC
  5
F6
100
AcDbEntity
  8
arms
 62
256
370
-1
 48
1.0
  6
ByLayer
100
AcDbCircle
 10
50.2699999999998681
 20
-50.2700000000000173
 30
0.0
 40
4.2400000000000064
100
AcDbArc
 50
224.999999999999801
 51
45.000000000000199
  0
ARC
  5
F7
100
AcDbEntity
  8
arms
 62
256
370
-1
 48
1.0
  6
ByLayer
100
AcDbCircle
 10
80.7699999999998681
 20
-50.2700000000001523
 30
0.0
 40
4.2400000000000064
100
AcDbArc
 50
134.9999999999996589
 51
315.0000000000002274
  0
ARC
  5
F8
100
AcDbEntity
  8
arms
 62
256
370
-1
 48
1.0
  6
ByLayer
100
AcDbCircle
 10
50.2699999999999818
 20
-108.2700000000000955
 30
0.0
 40
4.2400000000000064
100
AcDbArc
 50
315.0
 51
135.000000000000199
  0
ARC
  5
F9
100
AcDbEntity
  8
arms
 62
256
370
-1
 48
1.0
  6
ByLayer
100
AcDbCircle
 10
80.769999999999996
 20
-108.2700000000000955
 30
0.0
 40
4.2400000000000064
100
AcDbArc
 50
44.9999999999998366
 51
225.000000000000199
  0
CIRCLE
  5
FA
100
AcDbEntity
  8
references
 62
256
370
-1
 48
1.0
  6
ByLayer
100
AcDbCircle
 10
10.9999999999998597
 20
-11.0000000000000302
 30
0.0
 40
4.0
  0
CIRCLE
  5
FB
100
AcDbEntity
  8
references
 62
256
370
-1
 48
1.0
  6
ByLayer
100
AcDbCircle
 10
120.0399999999999068
 20
-10.9999999999998899
 30
0.0
 40
4.0
  0
CIRCLE
  5
FC
100
AcDbEntity
  8
references
 62
256
370
-1
 48
1.0
  6
ByLayer
100
AcDbCircle
 10
120.0400000000000063
 20
-147.540000000000191
 30
0.0
 40
4.0
  0
CIRCLE
  5
FD
100
AcDbEntity
  8
references
 62
256
370
-1
 48
1.0
  6
ByLayer
100
AcDbCircle
 10
10.9999999999998295
 20
-147.5400000000003047
 30
0.0
 40
4.0
  0
LINE
  5
FE
100
AcDbEntity
  8
arms
 62
256
370
-1
 48
1.0
  6
ByLayer
100
AcDbLine
 10
12.1600976840527402
 20
-17.8169051875911713
 30
0.0
 11
47.2718672477689097
 21
-53.2681327522309687
 31
0.0
  0
LINE
  5
FF
100
AcDbEntity
  8
arms
 62
256
370
-1
 48
1.0
  6
ByLayer
100
AcDbLine
 10
113.2230948124087035
 20
-12.1600976840529995
 30
0.0
 11
77.7718672477688955
 21
-47.2718672477691371
 31
0.0
  0
LINE
  5
100
100
AcDbEntity
  8
arms
 62
256
370
-1
 48
1.0
  6
ByLayer
100
AcDbLine
 10
17.8169051875910505
 20
-146.3799023159473052
 30
0.0
 11
53.2681327522309331
 21
-111.2681327522310966
 31
0.0
  0
LINE
  5
101
100
AcDbEntity
  8
arms
 62
256
370
-1
 48
1.0
  6
ByLayer
100
AcDbLine
 10
118.8799023159472057
 20
-140.7230948124089878
 30
0.0
 11
83.7681327522310113
 21
-105.2718672477690944
 31
0.0
  0
LINE
  5
102
100
AcDbEntity
  8
arms
 62
256
370
-1
 48
1.0
  6
ByLayer
100
AcDbLine
 10
53.2681327522308408
 20
-47.2718672477690376
 30
0.0
 11
17.8169051875911109
 21
-12.1600976840528308
 31
0.0
  0
LINE
  5
103
100
AcDbEntity
  8
arms
 62
256
370
-1
 48
1.0
  6
ByLayer
100
AcDbLine
 10
83.7681327522308408
 20
-53.2681327522310681
 30
0.0
 11
118.8799023159470067
 21
-17.8169051875912992
 31
0.0
  0
LINE
  5
104
100
AcDbEntity
  8
arms
 62
256
370
-1
 48
1.0
  6
ByLayer
100
AcDbLine
 10
47.2718672477690518
 20
-105.2718672477691939
 30
0.0
 11
12.1600976840527402
 21
-140.7230948124087888
 31
0.0
  0
LINE
  5
105
100
AcDbEntity
  8
arms
 62
256
370
-1
 48
1.0
  6
ByLayer
100
AcDbLine
 10
77.7718672477690802
 20
-111.2681327522310966
 30
0.0
 11
113.2230948124089025
 21
-146.3799023159473052
 31
0.0
  0
DIMENSION
  5
106
100
AcDbEntity
  8
meassures
 62
256
370
-1
 48
1.0
  6
ByLayer
100
AcDbDimension
 10
9.4999999999999432
 20
9.5000000000000711
 30
0.0
 11
32.7758252147247546
 21
-11.1241747852751107
 31
0.0
 70
1
 71
8
 72
1
 74
0
 75
0
 41
1.0
 42
0.0
  1

  3
Standard
100
AcDbAlignedDimension
 13
-0.0000000000001563
 23
-0.0000000000000568
 33
0.0
 14
43.8999999999999133
 24
-43.8999999999999773
 34
0.0
1001
ACAD
1000
DSTYLE
1002
{
1070
144
1040
1.0
1070
40
1040
1.0
1002
}
  0
DIMENSION
  5
107
100
AcDbEntity
  8
meassures
 62
256
370
-1
 48
1.0
  6
ByLayer
100
AcDbDimension
 10
53.3999999999999275
 20
-34.3999999999999844
 30
0.0
 11
64.9750633646225566
 21
-43.3234129351730815
 31
0.0
 70
1
 71
8
 72
1
 74
0
 75
0
 41
1.0
 42
0.0
  1

  3
Standard
100
AcDbAlignedDimension
 13
43.8999999999999133
 23
-43.8999999999999773
 33
0.0
 14
50.2699999999999108
 24
-50.2699999999999818
 34
0.0
1001
ACAD
1000
DSTYLE
1002
{
1070
144
1040
1.0
1070
40
1040
1.0
1002
}
  0
LINE
  5
108
100
AcDbEntity
  8
references
 62
256
370
-1
 48
1.0
  6
ByLayer
100
AcDbLine
 10
50.2700000000000031
 20
-50.270000000000131
 30
0.0
 11
80.7699999999999818
 21
-50.2700000000001168
 31
0.0
  0
LINE
  5
109
100
AcDbEntity
  8
references
 62
256
370
-1
 48
1.0
  6
ByLayer
100
AcDbLine
 10
50.2699999999999818
 20
-108.2700000000000955
 30
0.0
 11
50.2699999999999818
 21
-50.2700000000001168
 31
0.0
  0
LINE
  5
10A
100
AcDbEntity
  8
references
 62
256
370
-1
 48
1.0
  6
ByLayer
100
AcDbLine
 10
80.769999999999996
 20
-108.2700000000000955
 30
0.0
 11
80.7699999999999818
 21
-50.2700000000001168
 31
0.0
  0
LINE
  5
10B
100
AcDbEntity
  8
references
 62
256
370
-1
 48
1.0
  6
ByLayer
100
AcDbLine
 10
50.2699999999999818
 20
-108.2700000000000955
 30
0.0
 11
80.769999999999996
 21
-108.2700000000000955
 31
0.0
  0
LINE
  5
10C
100
AcDbEntity
  8
references
 62
256
370
-1
 48
1.0
  6
ByLayer
100
AcDbLine
 10
50.2699999999999818
 20
-50.2700000000001168
 30
0.0
 11
80.7699999999999818
 21
-108.270000000000195
 31
0.0
  0
LINE
  5
10D
100
AcDbEntity
  8
references
 62
256
370
-1
 48
1.0
  6
ByLayer
100
AcDbLine
 10
80.7699999999999818
 20
-50.2699999999999889
 30
0.0
 11
50.2699999999999818
 21
-108.2700000000000955
 31
0.0
  0
LINE
  5
10E
100
AcDbEntity
  8
references
 62
256
370
-1
 48
1.0
  6
ByLayer
100
AcDbLine
 10
50.2699999999999676
 20
-79.2700000000000671
 30
0.0
 11
80.7699999999999676
 21
-79.2700000000000813
 31
0.0
  0
LINE
  5
10F
100
AcDbEntity
  8
references
 62
256
370
-1
 48
1.0
  6
ByLayer
100
AcDbLine
 10
65.519999999999925
 20
-108.2700000000000955
 30
0.0
 11
65.5199999999999392
 21
-50.2700000000000671
 31
0.0
  0
LINE
  5
110
100
AcDbEntity
  8
references
 62
256
370
-1
 48
1.0
  6
ByLayer
100
AcDbLine
 10
65.519999999999925
 20
-108.2700000000000955
 30
0.0
 11
65.5199999999999108
 21
-100.2700000000000955
 31
0.0
  0
CIRCLE
  5
111
100
AcDbEntity
  8
references
 62
256
370
-1
 48
1.0
  6
ByLayer
100
AcDbCircle
 10
43.8999999999999133
 20
-43.8999999999999773
 30
0.0
 40
4.0
  0
CIRCLE
  5
112
100
AcDbEntity
  8
references
 62
256
370
-1
 48
1.0
  6
ByLayer
100
AcDbCircle
 10
43.8999999999998494
 20
-114.6400000000001995
 30
0.0
 40
4.0
  0
CIRCLE
  5
113
100
AcDbEntity
  8
references
 62
256
370
-1
 48
1.0
  6
ByLayer
100
AcDbCircle
 10
87.1400000000000716
 20
-114.6400000000001995
 30
0.0
 40
4.0
  0
CIRCLE
  5
114
100
AcDbEntity
  8
references
 62
256
370
-1
 48
1.0
  6
ByLayer
100
AcDbCircle
 10
87.1399999999998869
 20
-43.8999999999998494
 30
0.0
 40
4.0
  0
LINE
  5
115
100
AcDbEntity
  8
references
 62
256
370
-1
 48
1.0
  6
ByLayer
100
AcDbLine
 10
55.5199999999999108
 20
-100.2700000000000955
 30
0.0
 11
75.519999999999925
 21
-100.2700000000000955
 31
0.0
  0
LINE
  5
116
100
AcDbEntity
  8
references
 62
256
370
-1
 48
1.0
  6
ByLayer
100
AcDbLine
 10
55.5199999999999108
 20
-100.2700000000000955
 30
0.0
 11
55.5199999999999534
 21
-80.2700000000000813
 31
0.0
  0
LINE
  5
117
100
AcDbEntity
  8
references
 62
256
370
-1
 48
1.0
  6
ByLayer
100
AcDbLine
 10
75.519999999999925
 20
-100.2700000000000955
 30
0.0
 11
75.5199999999999392
 21
-80.2700000000000955
 31
0.0
  0
LINE
  5
118
100
AcDbEntity
  8
references
 62
256
370
-1
 48
1.0
  6
ByLayer
100
AcDbLine
 10
55.5199999999999534
 20
-80.2700000000000813
 30
0.0
 11
75.5199999999999392
 21
-80.2700000000000955
 31
0.0
  0
CIRCLE
  5
119
100
AcDbEntity
  8
bottom plate
 62
256
370
-1
 48
1.0
  6
ByLayer
100
AcDbCircle
 10
43.8999999999999133
 20
-43.8999999999999773
 30
0.0
 40
1.5
  0
CIRCLE
  5
11A
100
AcDbEntity
  8
bottom plate
 62
256
370
-1
 48
1.0
  6
ByLayer
100
AcDbCircle
 10
50.2700000000000031
 20
-50.270000000000131
 30
0.0
 40
1.5
  0
CIRCLE
  5
11B
100
AcDbEntity
  8
bottom plate
 62
256
370
-1
 48
1.0
  6
ByLayer
100
AcDbCircle
 10
87.1399999999998869
 20
-43.8999999999998494
 30
0.0
 40
1.5
  0
CIRCLE
  5
11C
100
AcDbEntity
  8
bottom plate
 62
256
370
-1
 48
1.0
  6
ByLayer
100
AcDbCircle
 10
80.7699999999998823
 20
-50.2700000000001168
 30
0.0
 40
1.5
  0
CIRCLE
  5
11D
100
AcDbEntity
  8
bottom plate
 62
256
370
-1
 48
1.0
  6
ByLayer
100
AcDbCircle
 10
50.2699999999999818
 20
-108.2700000000000955
 30
0.0
 40
1.5
  0
CIRCLE
  5
11E
100
AcDbEntity
  8
bottom plate
 62
256
370
-1
 48
1.0
  6
ByLayer
100
AcDbCircle
 10
43.8999999999998494
 20
-114.6400000000001995
 30
0.0
 40
1.5
  0
CIRCLE
  5
11F
100
AcDbEntity
  8
bottom plate
 62
256
370
-1
 48
1.0
  6
ByLayer
100
AcDbCircle
 10
80.769999999999996
 20
-108.2700000000000955
 30
0.0
 40
1.5
  0
CIRCLE
  5
120
100
AcDbEntity
  8
bottom plate
 62
256
370
-1
 48
1.0
  6
ByLayer
100
AcDbCircle
 10
87.1400000000000716
 20
-114.6400000000001995
 30
0.0
 40
1.5
  0
CIRCLE
  5
121
100
AcDbEntity
  8
bottom plate
 62
256
370
-1
 48
1.0
  6
ByLayer
100
AcDbCircle
 10
55.5199999999999108
 20
-100.2700000000000955
 30
0.0
 40
1.0
  0
CIRCLE
  5
122
100
AcDbEntity
  8
bottom plate
 62
256
370
-1
 48
1.0
  6
ByLayer
100
AcDbCircle
 10
75.519999999999925
 20
-100.2700000000000955
 30
0.0
 40
1.0
  0
CIRCLE
  5
123
100
AcDbEntity
  8
bottom plate
 62
256
370
-1
 48
1.0
  6
ByLayer
100
AcDbCircle
 10
75.5199999999999392
 20
-80.2700000000000955
 30
0.0
 40
1.0
  0
CIRCLE
  5
124
100
AcDbEntity
  8
bottom plate
 62
256
370
-1
 48
1.0
  6
ByLayer
100
AcDbCircle
 10
55.5199999999999534
 20
-80.2700000000000813
 30
0.0
 40
1.0
  0
LINE
  5
125
100
AcDbEntity
  8
references
 62
256
370
-1
 48
1.0
  6
ByLayer
100
AcDbLine
 10
80.7700000000000387
 20
-50.2699999999999534
 30
0.0
 11
50.2699999999999818
 21
-79.2700000000000387
 31
0.0
  0
LINE
  5
126
100
AcDbEntity
  8
references
 62
256
370
-1
 48
1.0
  6
ByLayer
100
AcDbLine
 10
75.5199999999999392
 20
-80.2700000000000955
 30
0.0
 11
55.5199999999999108
 21
-100.2700000000000955
 31
0.0
  0
CIRCLE
  5
127
100
AcDbEntity
  8
bottom plate
 62
256
370
-1
 48
1.0
  6
ByLayer
100
AcDbCircle
 10
65.5199999999999392
 20
-90.2700000000000955
 30
0.0
 40
5.1197512692828751
  0
CIRCLE
  5
128
100
AcDbEntity
  8
bottom plate
 62
256
370
-1
 48
1.0
  6
ByLayer
100
AcDbCircle
 10
65.5199999999999392
 20
-64.7700000000000955
 30
0.0
 40
6.7487630367819698
  0
ARC
  5
129
100
AcDbEntity
  8
bottom plate
 62
256
370
-1
 48
1.0
  6
ByLayer
100
AcDbCircle
 10
43.8999999999999204
 20
-43.8999999999999915
 30
0.0
 40
4.0000000000000222
100
AcDbArc
 50
45.0
 51
224.999999999999801
  0
ARC
  5
12A
100
AcDbEntity
  8
bottom plate
 62
256
370
-1
 48
1.0
  6
ByLayer
100
AcDbCircle
 10
87.140000000000029
 20
-43.8999999999999773
 30
0.0
 40
3.9999999999998361
100
AcDbArc
 50
315.0
 51
134.9999999999996021
  0
ARC
  5
12B
100
AcDbEntity
  8
bottom plate
 62
256
370
-1
 48
1.0
  6
ByLayer
100
AcDbCircle
 10
87.1400000000000858
 20
-114.6400000000001995
 30
0.0
 40
3.9999999999999218
100
AcDbArc
 50
225.000000000000199
 51
44.9999999999998366
  0
ARC
  5
12C
100
AcDbEntity
  8
bottom plate
 62
256
370
-1
 48
1.0
  6
ByLayer
100
AcDbCircle
 10
43.8999999999998565
 20
-114.6400000000001995
 30
0.0
 40
3.9999999999999272
100
AcDbArc
 50
134.9999999999996021
 51
315.0
  0
LINE
  5
12D
100
AcDbEntity
  8
references
 62
256
370
-1
 48
1.0
  6
ByLayer
100
AcDbLine
 10
41.0715728752536506
 20
-46.7284271247462328
 30
0.0
 11
50.703913812763119
 21
-56.88805349895798
 31
0.0
  0
LINE
  5
12E
100
AcDbEntity
  8
references
 62
256
370
-1
 48
1.0
  6
ByLayer
100
AcDbLine
 10
89.9684271247460572
 20
-46.728427124746041
 30
0.0
 11
80.3360861872365888
 21
-56.8880534989578024
 31
0.0
  0
SPLINE
  5
12F
100
AcDbEntity
  8
bottom plate
 62
256
370
-1
 48
1.0
  6
ByLayer
100
AcDbSpline
 70
8
 71
3
 72
8
 73
4
 74
0
 40
0.0
 40
0.0
 40
0.0
 40
0.0
 40
1.0
 40
1.0
 40
1.0
 40
1.0
 10
46.7284271247460765
 20
-41.071572875253807
 30
0.0
 10
65.5199999999999392
 20
-50.2700000000001026
 30
0.0
 10
84.3115728752539439
 20
-41.0715728752538922
 30
0.0
 10
84.3115728752537024
 20
-41.0715728752536293
 30
0.0
  0
SPLINE
  5
130
100
AcDbEntity
  8
bottom plate
 62
256
370
-1
 48
1.0
  6
ByLayer
100
AcDbSpline
 70
8
 71
3
 72
11
 73
7
 74
0
 40
0.0
 40
0.0
 40
0.0
 40
0.0
 40
1.0
 40
2.0
 40
3.0
 40
4.0
 40
4.0
 40
4.0
 40
4.0
 10
41.0715728752525919
 20
-46.7284271247450604
 30
0.0
 10
47.2718672477689879
 20
-53.2681327522310823
 30
0.0
 10
50.2699999999999676
 20
-56.4303867443359621
 30
0.0
 10
50.2700000000000102
 20
-79.2700000000000671
 30
0.0
 10
47.2718672477690518
 20
-105.2718672477691939
 30
0.0
 10
41.0715728752536791
 20
-111.8115728752540008
 30
0.0
 10
41.0715728752536791
 20
-111.8115728752540008
 30
0.0
  0
SPLINE
  5
131
100
AcDbEntity
  8
bottom plate
 62
256
370
-1
 48
1.0
  6
ByLayer
100
AcDbSpline
 70
8
 71
3
 72
11
 73
7
 74
0
 40
0.0
 40
0.0
 40
0.0
 40
0.0
 40
1.0
 40
2.0
 40
3.0
 40
4.0
 40
4.0
 40
4.0
 40
4.0
 10
89.9684271247460998
 20
-46.728427124745977
 30
0.0
 10
83.7681327522318924
 20
-53.2681327522320274
 30
0.0
 10
80.7700000000009055
 20
-56.4303867443368929
 30
0.0
 10
80.7700000000008913
 20
-79.2700000000000813
 30
0.0
 10
83.7681327522318071
 20
-105.2718672477701034
 30
0.0
 10
89.9684271247472083
 20
-111.811572875255095
 30
0.0
 10
89.9684271247472083
 20
-111.811572875255095
 30
0.0
  0
LINE
  5
132
100
AcDbEntity
  8
references
 62
256
370
-1
 48
1.0
  6
ByLayer
100
AcDbLine
 10
65.5199999999999534
 20
-119.2700000000000955
 30
0.0
 11
65.519999999999925
 21
-108.2700000000000955
 31
0.0
  0
LINE
  5
133
100
AcDbEntity
  8
references
 62
256
370
-1
 48
1.0
  6
ByLayer
100
AcDbLine
 10
61.5199999999999108
 20
-119.2700000000000955
 30
0.0
 11
69.519999999999925
 21
-119.2700000000000955
 31
0.0
  0
CIRCLE
  5
134
100
AcDbEntity
  8
bottom plate
 62
256
370
-1
 48
1.0
  6
ByLayer
100
AcDbCircle
 10
65.5199999999999534
 20
-119.2700000000000955
 30
0.0
 40
1.5
  0
ARC
  5
135
100
AcDbEntity
  8
bottom plate
 62
256
370
-1
 48
1.0
  6
ByLayer
100
AcDbCircle
 10
65.5199999999999534
 20
-119.2700000000000955
 30
0.0
 40
4.0
100
AcDbArc
 50
180.0
 51
0.0
  0
SPLINE
  5
136
100
AcDbEntity
  8
bottom plate
 62
256
370
-1
 48
1.0
  6
ByLayer
100
AcDbSpline
 70
8
 71
3
 72
8
 73
4
 74
0
 40
0.0
 40
0.0
 40
0.0
 40
0.0
 40
1.0
 40
1.0
 40
1.0
 40
1.0
 10
46.7284271247460978
 20
-117.4684271247464977
 30
0.0
 10
59.9999999999999289
 20
-112.0
 30
0.0
 10
61.5199999999999108
 20
-119.2700000000000955
 30
0.0
 10
61.5199999999999108
 20
-119.2700000000000955
 30
0.0
  0
SPLINE
  5
137
100
AcDbEntity
  8
bottom plate
 62
256
370
-1
 48
1.0
  6
ByLayer
100
AcDbSpline
 70
8
 71
3
 72
8
 73
4
 74
0
 40
0.0
 40
0.0
 40
0.0
 40
0.0
 40
1.0
 40
1.0
 40
1.0
 40
1.0
 10
84.3115728752537876
 20
-117.4684271247464977
 30
0.0
 10
71.039999999999992
 20
-112.0
 30
0.0
 10
69.519999999999925
 20
-119.2700000000000955
 30
0.0
 10
69.519999999999925
 20
-119.2700000000000955
 30
0.0
  0
LINE
  5
138
100
AcDbEntity
  8
references
 62
256
370
-1
 48
1.0
  6
ByLayer
100
AcDbLine
 10
60.0199999999999534
 20
-119.2700000000000955
 30
0.0
 11
71.0199999999999534
 21
-119.2700000000000955
 31
0.0
  0
CIRCLE
  5
139
100
AcDbEntity
  8
top plate
 62
256
370
-1
 48
1.0
  6
ByLayer
100
AcDbCircle
 10
65.5199999999999534
 20
-119.2700000000000955
 30
0.0
 40
1.5
  0
ARC
  5
13A
100
AcDbEntity
  8
top plate
 62
256
370
-1
 48
1.0
  6
ByLayer
100
AcDbCircle
 10
65.5199999999999534
 20
-119.2700000000000955
 30
0.0
 40
5.5
100
AcDbArc
 50
180.0
 51
0.0
  0
CIRCLE
  5
13B
100
AcDbEntity
  8
top plate
 62
256
370
-1
 48
1.0
  6
ByLayer
100
AcDbCircle
 10
50.2699999999999889
 20
-50.2700000000001168
 30
0.0
 40
1.5
  0
CIRCLE
  5
13C
100
AcDbEntity
  8
top plate
 62
256
370
-1
 48
1.0
  6
ByLayer
100
AcDbCircle
 10
80.7699999999998539
 20
-50.2700000000001168
 30
0.0
 40
1.5
  0
LINE
  5
13D
100
AcDbEntity
  8
references
 62
256
370
-1
 48
1.0
  6
ByLayer
100
AcDbLine
 10
45.7700000000000031
 20
-50.2700000000001168
 30
0.0
 11
54.7699999999999676
 21
-50.270000000000131
 31
0.0
  0
LINE
  5
13E
100
AcDbEntity
  8
references
 62
256
370
-1
 48
1.0
  6
ByLayer
100
AcDbLine
 10
76.2699999999998397
 20
-50.2700000000001168
 30
0.0
 11
85.2699999999998681
 21
-50.2700000000001523
 31
0.0
  0
ARC
  5
13F
100
AcDbEntity
  8
top plate
 62
256
370
-1
 48
1.0
  6
ByLayer
100
AcDbCircle
 10
50.2700000000000031
 20
-50.270000000000131
 30
0.0
 40
4.5
100
AcDbArc
 50
0.0
 51
180.0
  0
ARC
  5
140
100
AcDbEntity
  8
top plate
 62
256
370
-1
 48
1.0
  6
ByLayer
100
AcDbCircle
 10
80.7699999999998539
 20
-50.2700000000001168
 30
0.0
 40
4.5
100
AcDbArc
 50
0.0
 51
180.0
  0
SPLINE
  5
141
100
AcDbEntity
  8
top plate
 62
256
370
-1
 48
1.0
  6
ByLayer
100
AcDbSpline
 70
8
 71
3
 72
8
 73
4
 74
0
 40
0.0
 40
0.0
 40
0.0
 40
0.0
 40
1.0
 40
1.0
 40
1.0
 40
1.0
 10
45.7700000000000031
 20
-50.2700000000001168
 30
0.0
 10
50.2700000000000102
 20
-79.2700000000000671
 30
0.0
 10
60.0199999999999534
 20
-119.2700000000000955
 30
0.0
 10
60.0199999999999534
 20
-119.2700000000000955
 30
0.0
  0
SPLINE
  5
142
100
AcDbEntity
  8
top plate
 62
256
370
-1
 48
1.0
  6
ByLayer
100
AcDbSpline
 70
8
 71
3
 72
8
 73
4
 74
0
 40
0.0
 40
0.0
 40
0.0
 40
0.0
 40
1.0
 40
1.0
 40
1.0
 40
1.0
 10
85.2699999999998681
 20
-50.2700000000001523
 30
0.0
 10
80.769999999999996
 20
-79.2700000000000813
 30
0.0
 10
71.0199999999999534
 20
-119.2700000000000955
 30
0.0
 10
71.0199999999999534
 20
-119.2700000000000955
 30
0.0
  0
LINE
  5
143
100
AcDbEntity
  8
references
 62
256
370
-1
 48
1.0
  6
ByLayer
100
AcDbLine
 10
65.5199999999999392
 20
-60.2700000000001097
 30
0.0
 11
65.5199999999999392
 21
-50.2700000000001026
 31
0.0
  0
LINE
  5
144
100
AcDbEntity
  8
references
 62
256
370
-1
 48
1.0
  6
ByLayer
100
AcDbLine
 10
57.0199999999999179
 20
-60.2700000000001097
 30
0.0
 11
74.0199999999999392
 21
-60.2700000000001097
 31
0.0
  0
SPLINE
  5
145
100
AcDbEntity
  8
top plate
 62
256
370
-1
 48
1.0
  6
ByLayer
100
AcDbSpline
 70
8
 71
3
 72
9
 73
5
 74
0
 40
0.0
 40
0.0
 40
0.0
 40
0.0
 40
1.0
 40
2.0
 40
2.0
 40
2.0
 40
2.0
 10
54.7699999999999676
 20
-50.270000000000131
 30
0.0
 10
57.0199999999999179
 20
-60.2700000000001097
 30
0.0
 10
65.5199999999999392
 20
-60.2700000000001097
 30
0.0
 10
74.0199999999999392
 20
-60.2700000000001097
 30
0.0
 10
76.2699999999998397
 20
-50.2700000000001168
 30
0.0
  0
LINE
  5
146
100
AcDbEntity
  8
references
 62
256
370
-1
 48
1.0
  6
ByLayer
100
AcDbLine
 10
60.5199999999999676
 20
-79.2700000000000671
 30
0.0
 11
70.5199999999999676
 21
-79.2700000000000671
 31
0.0
  0
LINE
  5
147
100
AcDbEntity
  8
references
 62
256
370
-1
 48
1.0
  6
ByLayer
100
AcDbLine
 10
55.5199999999999392
 20
-79.2700000000000529
 30
0.0
 11
75.5199999999999534
 21
-79.2700000000000813
 31
0.0
  0
LINE
  5
148
100
AcDbEntity
  8
references
 62
256
370
-1
 48
1.0
  6
ByLayer
100
AcDbLine
 10
75.5199999999999534
 20
-79.2700000000000813
 30
0.0
 11
75.5199999999999392
 21
-59.2700000000000671
 31
0.0
  0
LINE
  5
149
100
AcDbEntity
  8
references
 62
256
370
-1
 48
1.0
  6
ByLayer
100
AcDbLine
 10
70.5199999999999676
 20
-79.2700000000000671
 30
0.0
 11
70.5199999999999676
 21
-59.2700000000001026
 31
0.0
  0
LINE
  5
14A
100
AcDbEntity
  8
references
 62
256
370
-1
 48
1.0
  6
ByLayer
100
AcDbLine
 10
60.5199999999999676
 20
-79.2700000000000671
 30
0.0
 11
60.5199999999999534
 21
-59.2700000000001026
 31
0.0
  0
LINE
  5
14B
100
AcDbEntity
  8
references
 62
256
370
-1
 48
1.0
  6
ByLayer
100
AcDbLine
 10
55.5199999999999392
 20
-79.2700000000000529
 30
0.0
 11
55.5199999999999179
 21
-59.2700000000000813
 31
0.0
  0
LINE
  5
14C
100
AcDbEntity
  8
references
 62
256
370
-1
 48
1.0
  6
ByLayer
100
AcDbLine
 10
65.5200000000001381
 20
-79.2700000000000387
 30
0.0
 11
65.5199999999999392
 21
-69.2700000000001239
 31
0.0
  0
LINE
  5
14D
100
AcDbEntity
  8
references
 62
256
370
-1
 48
1.0
  6
ByLayer
100
AcDbLine
 10
55.5200000000001026
 20
-69.2699999999999676
 30
0.0
 11
75.5199999999999534
 21
-69.2700000000001239
 31
0.0
  0
SPLINE
  5
14E
100
AcDbEntity
  8
top plate
 62
256
370
-1
 48
1.0
  6
ByLayer
100
AcDbSpline
 70
8
 71
3
 72
9
 73
5
 74
0
 40
0.0
 40
0.0
 40
0.0
 40
0.0
 40
1.0
 40
2.0
 40
2.0
 40
2.0
 40
2.0
 10
75.5199999999999392
 20
-69.2700000000001381
 30
0.0
 10
65.5199999999999392
 20
-69.2700000000001381
 30
0.0
 10
69.3109604519773512
 20
-86.4790395480226834
 30
0.0
 10
75.5199999999999392
 20
-80.2700000000000955
 30
0.0
 10
75.5199999999999392
 20
-69.2700000000001381
 30
0.0
  0
SPLINE
  5
14F
100
AcDbEntity
  8
top plate
 62
256
370
-1
 48
1.0
  6
ByLayer
100
AcDbSpline
 70
8
 71
3
 72
9
 73
5
 74
0
 40
0.0
 40
0.0
 40
0.0
 40
0.0
 40
1.0
 40
2.0
 40
2.0
 40
2.0
 40
2.0
 10
55.5200000000001026
 20
-69.2699999999999818
 30
0.0
 10
65.5199999999998965
 20
-69.2700000000000955
 30
0.0
 10
61.7290395480225769
 20
-86.479039548022655
 30
0.0
 10
55.5199999999999534
 20
-80.2700000000000813
 30
0.0
 10
55.5200000000001026
 20
-69.2699999999999818
 30
0.0
  0
LINE
  5
150
100
AcDbEntity
  8
references
 62
256
370
-1
 48
1.0
  6
ByLayer
100
AcDbLine
 10
-5.9962655044619027
 20
-3.9999999999998721
 30
0.0
 11
-5.9962655044620021
 21
4.0000000000000426
 31
0.0
  0
LINE
  5
151
100
AcDbEntity
  8
references
 62
256
370
-1
 48
1.0
  6
ByLayer
100
AcDbLine
 10
137.0362655044617952
 20
-3.9999999999998859
 30
0.0
 11
137.0362655044617952
 21
4.0000000000001137
 31
0.0
  0
LINE
  5
152
100
AcDbEntity
  8
reinforcement
 62
256
370
-1
 48
1.0
  6
ByLayer
100
AcDbLine
 10
137.0362655044617952
 20
4.0000000000001137
 30
0.0
 11
-5.9962655044620021
 21
4.0000000000000426
 31
0.0
  0
LINE
  5
153
100
AcDbEntity
  8
reinforcement
 62
256
370
-1
 48
1.0
  6
ByLayer
100
AcDbLine
 10
137.0362655044615963
 20
-154.540000000000191
 30
0.0
 11
-5.9962655044620732
 21
-154.5400000000001057
 31
0.0
  0
LINE
  5
154
100
AcDbEntity
  8
reinforcement
 62
256
370
-1
 48
1.0
  6
ByLayer
100
AcDbLine
 10
-5.9962655044619027
 20
-3.9999999999998721
 30
0.0
 11
137.0362655044617952
 21
-3.9999999999998859
 31
0.0
  0
LINE
  5
155
100
AcDbEntity
  8
reinforcement
 62
256
370
-1
 48
1.0
  6
ByLayer
100
AcDbLine
 10
-5.9962655044620448
 20
-162.5400000000001057
 30
0.0
 11
137.0362655044619089
 21
-162.539999999999992
 31
0.0
  0
CIRCLE
  5
156
100
AcDbEntity
  8
reinforcement
 62
256
370
-1
 48
1.0
  6
ByLayer
100
AcDbCircle
 10
-5.9962655044620163
 20
0.0000000000000711
 30
0.0
 40
1.0
  0
CIRCLE
  5
157
100
AcDbEntity
  8
reinforcement
 62
256
370
-1
 48
1.0
  6
ByLayer
100
AcDbCircle
 10
-5.9962655044620314
 20
-158.5400000000001057
 30
0.0
 40
1.0
  0
CIRCLE
  5
158
100
AcDbEntity
  8
reinforcement
 62
256
370
-1
 48
1.0
  6
ByLayer
100
AcDbCircle
 10
5.9962655044617748
 20
-0.0000000000000284
 30
0.0
 40
1.0
  0
CIRCLE
  5
159
100
AcDbEntity
  8
reinforcement
 62
256
370
-1
 48
1.0
  6
ByLayer
100
AcDbCircle
 10
5.996265504461725
 20
-158.5400000000001057
 30
0.0
 40
1.0
  0
CIRCLE
  5
15A
100
AcDbEntity
  8
reinforcement
 62
256
370
-1
 48
1.0
  6
ByLayer
100
AcDbCircle
 10
125.0437344955380041
 20
0.0000000000001137
 30
0.0
 40
1.0
  0
CIRCLE
  5
15B
100
AcDbEntity
  8
reinforcement
 62
256
370
-1
 48
1.0
  6
ByLayer
100
AcDbCircle
 10
125.0437344955380041
 20
-158.5400000000003047
 30
0.0
 40
1.0
  0
CIRCLE
  5
15C
100
AcDbEntity
  8
reinforcement
 62
256
370
-1
 48
1.0
  6
ByLayer
100
AcDbCircle
 10
137.0362655044617952
 20
0.0000000000000853
 30
0.0
 40
1.0
  0
CIRCLE
  5
15D
100
AcDbEntity
  8
reinforcement
 62
256
370
-1
 48
1.0
  6
ByLayer
100
AcDbCircle
 10
137.0362655044617952
 20
-158.540000000000191
 30
0.0
 40
1.0
  0
ARC
  5
15E
100
AcDbEntity
  8
reinforcement
 62
256
370
-1
 48
1.0
  6
ByLayer
100
AcDbCircle
 10
137.0362655044617952
 20
0.0000000000000853
 30
0.0
 40
3.9999999999999791
100
AcDbArc
 50
269.9999999999997726
 51
90.0000000000003979
  0
ARC
  5
15F
100
AcDbEntity
  8
reinforcement
 62
256
370
-1
 48
1.0
  6
ByLayer
100
AcDbCircle
 10
137.0362655044617952
 20
-158.540000000000191
 30
0.0
 40
3.9999999999999791
100
AcDbArc
 50
269.9999999999997726
 51
90.0000000000003979
  0
ARC
  5
160
100
AcDbEntity
  8
reinforcement
 62
256
370
-1
 48
1.0
  6
ByLayer
100
AcDbCircle
 10
-5.9962655044620163
 20
0.0000000000000711
 30
0.0
 40
4.0
100
AcDbArc
 50
90.0
 51
270.0
  0
ARC
  5
161
100
AcDbEntity
  8
reinforcement
 62
256
370
-1
 48
1.0
  6
ByLayer
100
AcDbCircle
 10
-5.9962655044620314
 20
-158.5400000000001057
 30
0.0
 40
4.0
100
AcDbArc
 50
90.0
 51
270.0
  0
DIMENSION
  5
162
100
AcDbEntity
  8
meassures
 62
256
370
-1
 48
1.0
  6
ByLayer
100
AcDbDimension
 10
0.0
 20
0.0
 30
0.0
 11
nan
 21
nan
 31
0.0
 70
1
 71
8
 72
1
 74
0
 75
0
 41
1.0
 42
0.0
  1

  3
Standard
100
AcDbAlignedDimension
 13
-0.0000000000001563
 23
-0.0000000000000568
 33
0.0
 14
-0.0000000000001563
 24
-0.0000000000000568
 34
0.0
1001
ACAD
1000
DSTYLE
1002
{
1070
144
1040
1.0
1070
40
1040
1.0
1002
}
  0
DIMENSION
  5
163
100
AcDbEntity
  8
meassures
 62
256
370
-1
 48
1.0
  6
ByLayer
100
AcDbDimension
 10
-0.0000000000001557
 20
9.0
 30
0.0
 11
-31.5000000000001634
 21
10.8749999999999858
 31
0.0
 70
1
 71
8
 72
1
 74
0
 75
0
 41
1.0
 42
0.0
  1

  3
Standard
100
AcDbAlignedDimension
 13
-0.0000000000001563
 23
-0.0000000000000568
 33
0.0
 14
-63.0000000000001705
 24
-0.0000000000000853
 34
0.0
1001
ACAD
1000
DSTYLE
1002
{
1070
144
1040
1.0
1070
40
1040
1.0
1002
}
  0
ENDSEC
  0
SECTION
  2
OBJECTS
  0
DICTIONARY
  5
C
100
AcDbDictionary
280
0
281
1
  3
ACAD_GROUP
350
D
  3
ACAD_LAYOUT
350
1A
  3
ACAD_MLINESTYLE
350
17
  3
ACAD_PLOTSETTINGS
350
19
  3
ACAD_PLOTSTYLENAME
350
E
  3
AcDbVariableDictionary
350
164
  3
QCAD_OBJECTS
350
165
  0
DICTIONARY
  5
D
100
AcDbDictionary
280
0
281
1
  0
ACDBDICTIONARYWDFLT
  5
E
100
AcDbDictionary
281
1
  3
Normal
350
F
100
AcDbDictionaryWithDefault
340
F
  0
ACDBPLACEHOLDER
  5
F
  0
DICTIONARY
  5
17
100
AcDbDictionary
280
0
281
1
  3
Standard
350
18
  0
MLINESTYLE
  5
18
100
AcDbMlineStyle
  2
STANDARD
 70
0
  3

 62
256
 51
90.0
 52
90.0
 71
2
 49
0.5
 62
256
  6
BYLAYER
 49
-0.5
 62
256
  6
BYLAYER
  0
DICTIONARY
  5
19
100
AcDbDictionary
280
0
281
1
  0
DICTIONARY
  5
1A
100
AcDbDictionary
281
1
  3
Layout1
350
1E
  3
Layout2
350
26
  3
Model
350
22
  0
LAYOUT
  5
1E
100
AcDbPlotSettings
  1

  2
none_device
  4

  6

 40
0.0
 41
0.0
 42
0.0
 43
0.0
 44
0.0
 45
0.0
 46
0.0
 47
0.0
 48
0.0
 49
0.0
140
0.0
141
0.0
142
1.0
143
1.0
 70
688
 72
0
 73
0
 74
5
  7

 75
16
147
1.0
148
0.0
149
0.0
100
AcDbLayout
  1
Layout1
 70
1
 71
1
 10
0.0
 20
0.0
 11
420.0
 21
297.0
 12
0.0
 22
0.0
 32
0.0
 14
100000000000000000000.0
 24
100000000000000000000.0
 34
100000000000000000000.0
 15
-100000000000000000000.0
 25
-100000000000000000000.0
 35
-100000000000000000000.0
146
0.0
 13
0.0
 23
0.0
 33
0.0
 16
1.0
 26
0.0
 36
0.0
 17
0.0
 27
1.0
 37
0.0
 76
0
330
1B
  0
LAYOUT
  5
22
100
AcDbPlotSettings
  1

  2
none_device
  4

  6

 40
0.0
 41
0.0
 42
0.0
 43
0.0
 44
0.0
 45
0.0
 46
0.0
 47
0.0
 48
0.0
 49
0.0
140
0.0
141
0.0
142
1.0
143
1.0
 70
1712
 72
0
 73
0
 74
0
  7

 75
0
147
1.0
148
0.0
149
0.0
100
AcDbLayout
  1
Model
 70
1
 71
0
 10
0.0
 20
0.0
 11
12.0
 21
9.0
 12
0.0
 22
0.0
 32
0.0
 14
0.0
 24
0.0
 34
0.0
 15
0.0
 25
0.0
 35
0.0
146
0.0
 13
0.0
 23
0.0
 33
0.0
 16
1.0
 26
0.0
 36
0.0
 17
0.0
 27
1.0
 37
0.0
 76
0
330
1F
  0
LAYOUT
  5
26
100
AcDbPlotSettings
  1

  2
none_device
  4

  6

 40
0.0
 41
0.0
 42
0.0
 43
0.0
 44
0.0
 45
0.0
 46
0.0
 47
0.0
 48
0.0
 49
0.0
140
0.0
141
0.0
142
1.0
143
1.0
 70
688
 72
0
 73
0
 74
5
  7

 75
16
147
1.0
148
0.0
149
0.0
100
AcDbLayout
  1
Layout2
 70
1
 71
2
 10
0.0
 20
0.0
 11
12.0
 21
9.0
 12
0.0
 22
0.0
 32
0.0
 14
0.0
 24
0.0
 34
0.0
 15
0.0
 25
0.0
 35
0.0
146
0.0
 13
0.0
 23
0.0
 33
0.0
 16
1.0
 26
0.0
 36
0.0
 17
0.0
 27
1.0
 37
0.0
 76
0
330
23
  0
DICTIONARY
  5
164
100
AcDbDictionary
281
1
  3
DIMASSOC
350
167
  3
HIDETEXT
350
166
  0
DICTIONARYVAR
  5
166
100
DictionaryVariables
280
0
  1
2
  0
DICTIONARYVAR
  5
167
100
DictionaryVariables
280
0
  1
1
  0
DICTIONARY
  5
165
100
AcDbDictionary
281
1
  3
ColorSettings/BackgroundColor
350
168
  3
ColorSettings/ColorMode
350
169
  3
Grid/DisplayGrid00
350
16A
  3
Grid/DisplayGrid01
350
16B
  3
Grid/DisplayGrid02
350
16C
  3
Grid/DisplayGrid03
350
16D
  3
Grid/GridSpacingX00
350
16E
  3
Grid/GridSpacingX01
350
16F
  3
Grid/GridSpacingX02
350
170
  3
Grid/GridSpacingX03
350
171
  3
Grid/GridSpacingY00
350
172
  3
Grid/GridSpacingY01
350
173
  3
Grid/GridSpacingY02
350
174
  3
Grid/GridSpacingY03
350
175
  3
Grid/IsometricGrid00
350
176
  3
Grid/IsometricGrid01
350
177
  3
Grid/IsometricGrid02
350
178
  3
Grid/IsometricGrid03
350
179
  3
Grid/IsometricProjection00
350
17A
  3
Grid/IsometricProjection01
350
17B
  3
Grid/IsometricProjection02
350
17C
  3
Grid/IsometricProjection03
350
17D
  3
Grid/MetaGridSpacingX00
350
17E
  3
Grid/MetaGridSpacingX01
350
17F
  3
Grid/MetaGridSpacingX02
350
180
  3
Grid/MetaGridSpacingX03
350
181
  3
Grid/MetaGridSpacingY00
350
182
  3
Grid/MetaGridSpacingY01
350
183
  3
Grid/MetaGridSpacingY02
350
184
  3
Grid/MetaGridSpacingY03
350
185
  3
MultiPageSettings/Columns
350
186
  3
MultiPageSettings/GlueMarginsBottom
350
187
  3
MultiPageSettings/GlueMarginsLeft
350
188
  3
MultiPageSettings/GlueMarginsRight
350
189
  3
MultiPageSettings/GlueMarginsTop
350
18A
  3
MultiPageSettings/PrintCropMarks
350
18B
  3
MultiPageSettings/Rows
350
18C
  3
PageSettings/OffsetX
350
18D
  3
PageSettings/OffsetY
350
18E
  3
PageSettings/PageOrientation
350
18F
  3
PageSettings/PaperHeight
350
190
  3
PageSettings/PaperWidth
350
191
  3
PageSettings/Scale
350
192
  3
PageSettings/ShowPaperBorders
350
193
  3
PageTagSettings/EnablePageTags
350
194
  3
PageTagSettings/TagAlignment
350
195
  3
PageTagSettings/TagFont
350
196
  3
PageTagSettings/TagPosition
350
197
  3
QCADVersion
350
198
  3
UnitSettings/PaperUnit
350
199
  3
ViewportCenter
350
19A
  3
ViewportHeight
350
19B
  3
ViewportWidth
350
19C
  0
XRECORD
  5
168
330
165
100
AcDbXrecord
280
1
1000
#ffffff
  0
XRECORD
  5
169
330
165
100
AcDbXrecord
280
1
1000
FullColor
  0
XRECORD
  5
16A
330
165
100
AcDbXrecord
280
1
290
1
  0
XRECORD
  5
16B
330
165
100
AcDbXrecord
280
1
290
1
  0
XRECORD
  5
16C
330
165
100
AcDbXrecord
280
1
290
1
  0
XRECORD
  5
16D
330
165
100
AcDbXrecord
280
1
290
1
  0
XRECORD
  5
16E
330
165
100
AcDbXrecord
280
1
1000
auto
  0
XRECORD
  5
16F
330
165
100
AcDbXrecord
280
1
1000
auto
  0
XRECORD
  5
170
330
165
100
AcDbXrecord
280
1
1000
auto
  0
XRECORD
  5
171
330
165
100
AcDbXrecord
280
1
1000
auto
  0
XRECORD
  5
172
330
165
100
AcDbXrecord
280
1
1000
auto
  0
XRECORD
  5
173
330
165
100
AcDbXrecord
280
1
1000
auto
  0
XRECORD
  5
174
330
165
100
AcDbXrecord
280
1
1000
auto
  0
XRECORD
  5
175
330
165
100
AcDbXrecord
280
1
1000
auto
  0
XRECORD
  5
176
330
165
100
AcDbXrecord
280
1
290
0
  0
XRECORD
  5
177
330
165
100
AcDbXrecord
280
1
290
0
  0
XRECORD
  5
178
330
165
100
AcDbXrecord
280
1
290
0
  0
XRECORD
  5
179
330
165
100
AcDbXrecord
280
1
290
0
  0
XRECORD
  5
17A
330
165
100
AcDbXrecord
280
1
 90
65537
  0
XRECORD
  5
17B
330
165
100
AcDbXrecord
280
1
 90
65537
  0
XRECORD
  5
17C
330
165
100
AcDbXrecord
280
1
 90
65537
  0
XRECORD
  5
17D
330
165
100
AcDbXrecord
280
1
 90
65537
  0
XRECORD
  5
17E
330
165
100
AcDbXrecord
280
1
1000
auto
  0
XRECORD
  5
17F
330
165
100
AcDbXrecord
280
1
1000
auto
  0
XRECORD
  5
180
330
165
100
AcDbXrecord
280
1
1000
auto
  0
XRECORD
  5
181
330
165
100
AcDbXrecord
280
1
1000
auto
  0
XRECORD
  5
182
330
165
100
AcDbXrecord
280
1
1000
auto
  0
XRECORD
  5
183
330
165
100
AcDbXrecord
280
1
1000
auto
  0
XRECORD
  5
184
330
165
100
AcDbXrecord
280
1
1000
auto
  0
XRECORD
  5
185
330
165
100
AcDbXrecord
280
1
1000
auto
  0
XRECORD
  5
186
330
165
100
AcDbXrecord
280
1
 90
1
  0
XRECORD
  5
187
330
165
100
AcDbXrecord
280
1
 40
10.0
  0
XRECORD
  5
188
330
165
100
AcDbXrecord
280
1
 40
10.0
  0
XRECORD
  5
189
330
165
100
AcDbXrecord
280
1
 40
10.0
  0
XRECORD
  5
18A
330
165
100
AcDbXrecord
280
1
 40
10.0
  0
XRECORD
  5
18B
330
165
100
AcDbXrecord
280
1
290
0
  0
XRECORD
  5
18C
330
165
100
AcDbXrecord
280
1
 90
1
  0
XRECORD
  5
18D
330
165
100
AcDbXrecord
280
1
 40
0.0
  0
XRECORD
  5
18E
330
165
100
AcDbXrecord
280
1
 40
0.0
  0
XRECORD
  5
18F
330
165
100
AcDbXrecord
280
1
1000
Portrait
  0
XRECORD
  5
190
330
165
100
AcDbXrecord
280
1
 40
297.0
  0
XRECORD
  5
191
330
165
100
AcDbXrecord
280
1
 40
210.0
  0
XRECORD
  5
192
330
165
100
AcDbXrecord
280
1
1000
1:1
  0
XRECORD
  5
193
330
165
100
AcDbXrecord
280
1
290
1
  0
XRECORD
  5
194
330
165
100
AcDbXrecord
280
1
290
0
  0
XRECORD
  5
195
330
165
100
AcDbXrecord
280
1
1000
Inside
  0
XRECORD
  5
196
330
165
100
AcDbXrecord
280
1
1000
Arial,10,-1,5,50,0,0,0,0,0
  0
XRECORD
  5
197
330
165
100
AcDbXrecord
280
1
1000
TopLeft
  0
XRECORD
  5
198
330
165
100
AcDbXrecord
280
1
1000
3.25.2
  0
XRECORD
  5
199
330
165
100
AcDbXrecord
280
1
 90
4
  0
XRECORD
  5
19B
330
165
100
AcDbXrecord
280
1
 40
304.5122991689754031
  0
XRECORD
  5
19C
330
165
100
AcDbXrecord
280
1
 40
593.6412049861502283
  0
ENDSEC
  0
EOF
