999
dxfrw 0.6.3
  0
SECTION
  2
HEADER
  9
$ACADVER
  1
AC1021
  9
$DWGCODEPAGE
  3
ANSI_1252
  9
$INSBASE
 10
0
 20
0
 30
0
  9
$EXTMIN
 10
-69.33335946574377
 20
-214.1232783174071
 30
0
  9
$EXTMAX
 10
200.373359465744
 20
55.58327831740687
 30
0
  9
$LIMMIN
 10
0
 20
0
  9
$LIMMAX
 10
12
 20
9
  9
$ORTHOMODE
 70
    0
  9
$REGENMODE
 70
    1
  9
$FILLMODE
 70
    1
  9
$QTEXTMODE
 70
    0
  9
$MIRRTEXT
 70
    0
  9
$LTSCALE
 40
1
  9
$ATTMODE
 70
    1
  9
$TEXTSIZE
 40
0.2
  9
$TRACEWID
 40
0.05
  9
$TEXTSTYLE
  7
Standard
  9
$CLAYER
  8
top plate
  9
$CELTYPE
  6
ByLayer
  9
$CECOLOR
 62
  256
  9
$CELTSCALE
 40
1
  9
$DISPSILH
 70
    0
  9
$DIMSCALE
 40
1
  9
$DIMASZ
 40
2.5
  9
$DIMEXO
 40
0.625
  9
$DIMDLI
 40
5
  9
$DIMRND
 40
0
  9
$DIMDLE
 40
0
  9
$DIMEXE
 40
1.25
  9
$DIMTP
 40
0
  9
$DIMTM
 40
0
  9
$DIMTXT
 40
2.5
  9
$DIMCEN
 40
0.09
  9
$DIMTSZ
 40
0
  9
$DIMTOL
 70
    0
  9
$DIMLIM
 70
    0
  9
$DIMTIH
 70
    1
  9
$DIMTOH
 70
    1
  9
$DIMSE1
 70
    0
  9
$DIMSE2
 70
    0
  9
$DIMTAD
 70
    0
  9
$DIMZIN
 70
    8
  9
$DIMBLK
  1

  9
$DIMASO
 70
    1
  9
$DIMSHO
 70
    1
  9
$DIMPOST
  1

  9
$DIMAPOST
  1

  9
$DIMALT
 70
    0
  9
$DIMALTD
 70
    2
  9
$DIMALTF
 40
25.4
  9
$DIMLFAC
 40
1
  9
$DIMTOFL
 70
    0
  9
$DIMTVP
 40
0
  9
$DIMTIX
 70
    0
  9
$DIMSOXD
 70
    0
  9
$DIMSAH
 70
    0
  9
$DIMBLK1
  1

  9
$DIMBLK2
  1

  9
$DIMSTYLE
  2
Standard
  9
$DIMCLRD
 70
    0
  9
$DIMCLRE
 70
    0
  9
$DIMCLRT
 70
    0
  9
$DIMTFAC
 40
1
  9
$DIMGAP
 40
0.625
  9
$DIMJUST
 70
    0
  9
$DIMSD1
 70
    0
  9
$DIMSD2
 70
    0
  9
$DIMTOLJ
 70
    1
  9
$DIMTZIN
 70
    0
  9
$DIMALTZ
 70
    0
  9
$DIMALTTZ
 70
    0
  9
$DIMUPT
 70
    0
  9
$DIMDEC
 70
    4
  9
$DIMTDEC
 70
    4
  9
$DIMALTU
 70
    2
  9
$DIMALTTD
 70
    2
  9
$DIMTXSTY
  7
Standard
  9
$DIMAUNIT
 70
    0
  9
$DIMADEC
 70
    0
  9
$DIMALTRND
 40
0
  9
$DIMAZIN
 70
    2
  9
$DIMDSEP
 70
   46
  9
$DIMATFIT
 70
    3
  9
$DIMFRAC
 70
    0
  9
$DIMLDRBLK
  1

  9
$DIMLUNIT
 70
    2
  9
$DIMLWD
 70
   -2
  9
$DIMLWE
 70
   -2
  9
$DIMTMOVE
 70
    0
  9
$DIMFXL
 40
1
  9
$DIMFXLON
 70
    0
  9
$DIMJOGANG
 40
0.7853981633974483
  9
$DIMTFILL
 70
    0
  9
$DIMTFILLCLR
 70
    0
  9
$DIMARCSYM
 70
    0
  9
$DIMLTYPE
  6

  9
$DIMLTEX1
  6

  9
$DIMLTEX2
  6

  9
$LUNITS
 70
    2
  9
$LUPREC
 70
    4
  9
$SKETCHINC
 40
0.1
  9
$FILLETRAD
 40
0.5
  9
$AUNITS
 70
    0
  9
$AUPREC
 70
    0
  9
$MENU
  1
.
  9
$ELEVATION
 40
0
  9
$PELEVATION
 40
0
  9
$THICKNESS
 40
0
  9
$LIMCHECK
 70
    0
  9
$CHAMFERA
 40
0
  9
$CHAMFERB
 40
0
  9
$CHAMFERC
 40
0
  9
$CHAMFERD
 40
0
  9
$SKPOLY
 70
    0
  9
$USRTIMER
 70
    1
  9
$ANGBASE
 50
0
  9
$ANGDIR
 70
    0
  9
$PDMODE
 70
    0
  9
$PDSIZE
 40
0
  9
$PLINEWID
 40
0
  9
$SPLFRAME
 70
    0
  9
$SPLINETYPE
 70
    6
  9
$SPLINESEGS
 70
    8
  9
$HANDSEED
  5
20000
  9
$SURFTAB1
 70
    6
  9
$SURFTAB2
 70
    6
  9
$SURFTYPE
 70
    6
  9
$SURFU
 70
    6
  9
$SURFV
 70
    6
  9
$UCSBASE
  2

  9
$UCSNAME
  2

  9
$UCSORG
 10
0
 20
0
 30
0
  9
$UCSXDIR
 10
1
 20
0
 30
0
  9
$UCSYDIR
 10
0
 20
1
 30
0
  9
$UCSORTHOREF
  2

  9
$UCSORTHOVIEW
 70
    0
  9
$UCSORGTOP
 10
0
 20
0
 30
0
  9
$UCSORGBOTTOM
 10
0
 20
0
 30
0
  9
$UCSORGLEFT
 10
0
 20
0
 30
0
  9
$UCSORGRIGHT
 10
0
 20
0
 30
0
  9
$UCSORGFRONT
 10
0
 20
0
 30
0
  9
$UCSORGBACK
 10
0
 20
0
 30
0
  9
$PUCSBASE
  2

  9
$PUCSNAME
  2

  9
$PUCSORG
 10
0
 20
0
 30
0
  9
$PUCSXDIR
 10
1
 20
0
 30
0
  9
$PUCSYDIR
 10
0
 20
1
 30
0
  9
$PUCSORTHOREF
  2

  9
$PUCSORTHOVIEW
 70
    0
  9
$PUCSORGTOP
 10
0
 20
0
 30
0
  9
$PUCSORGBOTTOM
 10
0
 20
0
 30
0
  9
$PUCSORGLEFT
 10
0
 20
0
 30
0
  9
$PUCSORGRIGHT
 10
0
 20
0
 30
0
  9
$PUCSORGFRONT
 10
0
 20
0
 30
0
  9
$PUCSORGBACK
 10
0
 20
0
 30
0
  9
$USERI1
 70
    0
  9
$USERI2
 70
    0
  9
$USERI3
 70
    0
  9
$USERI4
 70
    0
  9
$USERI5
 70
    0
  9
$USERR1
 40
0
  9
$USERR2
 40
0
  9
$USERR3
 40
0
  9
$USERR4
 40
0
  9
$USERR5
 40
0
  9
$WORLDVIEW
 70
    1
  9
$SHADEDGE
 70
    3
  9
$SHADEDIF
 70
   70
  9
$TILEMODE
 70
    1
  9
$MAXACTVP
 70
   64
  9
$PINSBASE
 10
0
 20
0
 30
0
  9
$PLIMCHECK
 70
    0
  9
$PEXTMIN
 10
0
 20
0
 30
0
  9
$PEXTMAX
 10
0
 20
0
 30
0
  9
$GRIDMODE
 70
    1
  9
$SNAPSTYLE
 70
    0
  9
$PLIMMIN
 10
0
 20
0
  9
$PLIMMAX
 10
297
 20
210
  9
$UNITMODE
 70
    0
  9
$VISRETAIN
 70
    1
  9
$PLINEGEN
 70
    0
  9
$PSLTSCALE
 70
    1
  9
$TREEDEPTH
 70
 3020
  9
$CMLSTYLE
  2
Standard
  9
$CMLJUST
 70
    0
  9
$CMLSCALE
 40
1
  9
$PROXYGRAPHICS
 70
    1
  9
$MEASUREMENT
 70
    1
  9
$CELWEIGHT
370
   -1
  9
$ENDCAPS
280
    0
  9
$JOINSTYLE
280
    0
  9
$LWDISPLAY
290
    0
  9
$INSUNITS
 70
    4
  9
$HYPERLINKBASE
  1

  9
$STYLESHEET
  1

  9
$XEDIT
290
    1
  9
$CEPSNTYPE
380
    0
  9
$PSTYLEMODE
290
    1
  9
$EXTNAMES
290
    1
  9
$PSVPSCALE
 40
0
  9
$OLESTARTUP
290
    0
  9
$SORTENTS
280
  127
  9
$INDEXCTL
280
    0
  9
$HIDETEXT
280
    1
  9
$XCLIPFRAME
290
    2
  9
$HALOGAP
280
    0
  9
$OBSCOLOR
 70
  257
  9
$OBSLTYPE
280
    0
  9
$INTERSECTIONDISPLAY
280
    0
  9
$INTERSECTIONCOLOR
 70
  257
  9
$DIMASSOC
280
    2
  9
$PROJECTNAME
  1

  9
$CAMERADISPLAY
290
    0
  9
$LENSLENGTH
 40
50
  9
$CAMERAHEIGHT
 40
0
  9
$STEPSPERSEC
 40
2
  9
$STEPSIZE
 40
6
  9
$3DDWFPREC
 40
2
  9
$PSOLWIDTH
 40
0.25
  9
$PSOLHEIGHT
 40
4
  9
$LOFTANG1
 40
1.570796326794897
  9
$LOFTANG2
 40
1.570796326794897
  9
$LOFTMAG1
 40
0
  9
$LOFTMAG2
 40
0
  9
$LOFTPARAM
 70
    7
  9
$LOFTNORMALS
280
    1
  9
$LATITUDE
 40
37.795
  9
$LONGITUDE
 40
-122.394
  9
$NORTHDIRECTION
 40
0
  9
$TIMEZONE
 70
-8000
  9
$LIGHTGLYPHDISPLAY
280
    1
  9
$TILEMODELIGHTSYNCH
280
    1
  9
$SOLIDHIST
280
    0
  9
$SHOWHIST
280
    1
  9
$DWFFRAME
280
    2
  9
$DGNFRAME
280
    2
  9
$REALWORLDSCALE
290
    1
  9
$INTERFERECOLOR
 62
  256
  9
$CSHADOW
280
    0
  9
$SHADOWPLANELOCATION
 40
0
  0
ENDSEC
  0
SECTION
  2
CLASSES
  0
ENDSEC
  0
SECTION
  2
TABLES
  0
TABLE
  2
VPORT
  5
8
330
0
100
AcDbSymbolTable
 70
    1
  0
VPORT
  5
31
330
2
100
AcDbSymbolTableRecord
100
AcDbViewportTableRecord
  2
*ACTIVE
 70
    0
 10
0
 20
0
 11
1
 21
1
 12
156.6654378563501
 22
29.45437601974061
 13
0
 23
0
 14
10
 24
10
 15
10
 25
10
 16
0
 26
0
 36
1
 17
0
 27
0
 37
0
 40
276.075070368812
 41
1.794694348327566
 42
50
 43
0
 44
0
 50
0
 51
0
 71
    0
 72
  100
 73
    1
 74
    3
 75
    0
 76
    1
 77
    0
 78
    0
281
    0
 65
    1
110
0
120
0
130
0
111
1
121
0
131
0
112
0
122
1
132
0
 79
    0
146
0
348
10020
 60
    7
 61
    5
292
1
282
    1
141
0
142
0
 63
  250
421
3358443
  0
ENDTAB
  0
TABLE
  2
LTYPE
  5
5
330
0
100
AcDbSymbolTable
 70
    4
  0
LTYPE
  5
14
330
5
100
AcDbSymbolTableRecord
100
AcDbLinetypeTableRecord
  2
ByBlock
 70
    0
  3

 72
   65
 73
    0
 40
0
  0
LTYPE
  5
15
330
5
100
AcDbSymbolTableRecord
100
AcDbLinetypeTableRecord
  2
ByLayer
 70
    0
  3

 72
   65
 73
    0
 40
0
  0
LTYPE
  5
16
330
5
100
AcDbSymbolTableRecord
100
AcDbLinetypeTableRecord
  2
Continuous
 70
    0
  3
Solid line
 72
   65
 73
    0
 40
0
  0
LTYPE
  5
32
330
5
100
AcDbSymbolTableRecord
100
AcDbLinetypeTableRecord
  2
DOT
 70
    0
  3
Dot . . . . . . . . . . . . . . . . . . . . . .
 72
   65
 73
    2
 40
6.35
 49
0
 74
    0
 49
-6.35
 74
    0
  0
LTYPE
  5
33
330
5
100
AcDbSymbolTableRecord
100
AcDbLinetypeTableRecord
  2
DOTTINY
 70
    0
  3
Dot (.15x) .....................................
 72
   65
 73
    2
 40
0.9525
 49
0
 74
    0
 49
-0.9525
 74
    0
  0
LTYPE
  5
34
330
5
100
AcDbSymbolTableRecord
100
AcDbLinetypeTableRecord
  2
DOT2
 70
    0
  3
Dot (.5x) .....................................
 72
   65
 73
    2
 40
3.175
 49
0
 74
    0
 49
-3.175
 74
    0
  0
LTYPE
  5
35
330
5
100
AcDbSymbolTableRecord
100
AcDbLinetypeTableRecord
  2
DOTX2
 70
    0
  3
Dot (2x) .  .  .  .  .  .  .  .  .  .  .  .  .
 72
   65
 73
    2
 40
12.7
 49
0
 74
    0
 49
-12.7
 74
    0
  0
LTYPE
  5
36
330
5
100
AcDbSymbolTableRecord
100
AcDbLinetypeTableRecord
  2
DASHED
 70
    0
  3
Dashed _ _ _ _ _ _ _ _ _ _ _ _ _ _ _ _ _
 72
   65
 73
    2
 40
19.05
 49
12.7
 74
    0
 49
-6.35
 74
    0
  0
LTYPE
  5
37
330
5
100
AcDbSymbolTableRecord
100
AcDbLinetypeTableRecord
  2
DASHEDTINY
 70
    0
  3
Dashed (.15x) _ _ _ _ _ _ _ _ _ _ _ _ _ _ _ _ _
 72
   65
 73
    2
 40
2.8575
 49
1.905
 74
    0
 49
-0.9525
 74
    0
  0
LTYPE
  5
38
330
5
100
AcDbSymbolTableRecord
100
AcDbLinetypeTableRecord
  2
DASHED2
 70
    0
  3
Dashed (.5x) _ _ _ _ _ _ _ _ _ _ _ _ _ _ _ _ _
 72
   65
 73
    2
 40
9.524999999999999
 49
6.35
 74
    0
 49
-3.175
 74
    0
  0
LTYPE
  5
39
330
5
100
AcDbSymbolTableRecord
100
AcDbLinetypeTableRecord
  2
DASHEDX2
 70
    0
  3
Dashed (2x) ____  ____  ____  ____  ____  ___
 72
   65
 73
    2
 40
38.09999999999999
 49
25.4
 74
    0
 49
-12.7
 74
    0
  0
LTYPE
  5
3A
330
5
100
AcDbSymbolTableRecord
100
AcDbLinetypeTableRecord
  2
DASHDOT
 70
    0
  3
Dash dot __ . __ . __ . __ . __ . __ . __ . __
 72
   65
 73
    4
 40
25.4
 49
12.7
 74
    0
 49
-6.35
 74
    0
 49
0
 74
    0
 49
-6.35
 74
    0
  0
LTYPE
  5
3B
330
5
100
AcDbSymbolTableRecord
100
AcDbLinetypeTableRecord
  2
DASHDOTTINY
 70
    0
  3
Dash dot (.15x) _._._._._._._._._._._._._._._.
 72
   65
 73
    4
 40
3.81
 49
1.905
 74
    0
 49
-0.9525
 74
    0
 49
0
 74
    0
 49
-0.9525
 74
    0
  0
LTYPE
  5
3C
330
5
100
AcDbSymbolTableRecord
100
AcDbLinetypeTableRecord
  2
DASHDOT2
 70
    0
  3
Dash dot (.5x) _._._._._._._._._._._._._._._.
 72
   65
 73
    4
 40
12.7
 49
6.35
 74
    0
 49
-3.175
 74
    0
 49
0
 74
    0
 49
-3.175
 74
    0
  0
LTYPE
  5
3D
330
5
100
AcDbSymbolTableRecord
100
AcDbLinetypeTableRecord
  2
DASHDOTX2
 70
    0
  3
Dash dot (2x) ____  .  ____  .  ____  .  ___
 72
   65
 73
    4
 40
50.8
 49
25.4
 74
    0
 49
-12.7
 74
    0
 49
0
 74
    0
 49
-12.7
 74
    0
  0
LTYPE
  5
3E
330
5
100
AcDbSymbolTableRecord
100
AcDbLinetypeTableRecord
  2
DIVIDE
 70
    0
  3
Divide ____ . . ____ . . ____ . . ____ . . ____
 72
   65
 73
    6
 40
31.75
 49
12.7
 74
    0
 49
-6.35
 74
    0
 49
0
 74
    0
 49
-6.35
 74
    0
 49
0
 74
    0
 49
-6.35
 74
    0
  0
LTYPE
  5
3F
330
5
100
AcDbSymbolTableRecord
100
AcDbLinetypeTableRecord
  2
DIVIDETINY
 70
    0
  3
Divide (.15x) __..__..__..__..__..__..__..__.._
 72
   65
 73
    6
 40
4.7625
 49
1.905
 74
    0
 49
-0.9525
 74
    0
 49
0
 74
    0
 49
-0.9525
 74
    0
 49
0
 74
    0
 49
-0.9525
 74
    0
  0
LTYPE
  5
40
330
5
100
AcDbSymbolTableRecord
100
AcDbLinetypeTableRecord
  2
DIVIDE2
 70
    0
  3
Divide (.5x) __..__..__..__..__..__..__..__.._
 72
   65
 73
    6
 40
15.875
 49
6.35
 74
    0
 49
-3.175
 74
    0
 49
0
 74
    0
 49
-3.175
 74
    0
 49
0
 74
    0
 49
-3.175
 74
    0
  0
LTYPE
  5
41
330
5
100
AcDbSymbolTableRecord
100
AcDbLinetypeTableRecord
  2
DIVIDEX2
 70
    0
  3
Divide (2x) ________  .  .  ________  .  .  _
 72
   65
 73
    6
 40
63.5
 49
25.4
 74
    0
 49
-12.7
 74
    0
 49
0
 74
    0
 49
-12.7
 74
    0
 49
0
 74
    0
 49
-12.7
 74
    0
  0
LTYPE
  5
42
330
5
100
AcDbSymbolTableRecord
100
AcDbLinetypeTableRecord
  2
BORDER
 70
    0
  3
Border __ __ . __ __ . __ __ . __ __ . __ __ .
 72
   65
 73
    6
 40
44.45
 49
12.7
 74
    0
 49
-6.35
 74
    0
 49
12.7
 74
    0
 49
-6.35
 74
    0
 49
0
 74
    0
 49
-6.35
 74
    0
  0
LTYPE
  5
43
330
5
100
AcDbSymbolTableRecord
100
AcDbLinetypeTableRecord
  2
BORDERTINY
 70
    0
  3
Border (.15x) __.__.__.__.__.__.__.__.__.__.__.
 72
   65
 73
    6
 40
6.6675
 49
1.905
 74
    0
 49
-0.9525
 74
    0
 49
1.905
 74
    0
 49
-0.9525
 74
    0
 49
0
 74
    0
 49
-0.9525
 74
    0
  0
LTYPE
  5
44
330
5
100
AcDbSymbolTableRecord
100
AcDbLinetypeTableRecord
  2
BORDER2
 70
    0
  3
Border (.5x) __.__.__.__.__.__.__.__.__.__.__.
 72
   65
 73
    6
 40
22.225
 49
6.35
 74
    0
 49
-3.175
 74
    0
 49
6.35
 74
    0
 49
-3.175
 74
    0
 49
0
 74
    0
 49
-3.175
 74
    0
  0
LTYPE
  5
45
330
5
100
AcDbSymbolTableRecord
100
AcDbLinetypeTableRecord
  2
BORDERX2
 70
    0
  3
Border (2x) ____  ____  .  ____  ____  .  ___
 72
   65
 73
    6
 40
88.89999999999999
 49
25.4
 74
    0
 49
-12.7
 74
    0
 49
25.4
 74
    0
 49
-12.7
 74
    0
 49
0
 74
    0
 49
-12.7
 74
    0
  0
LTYPE
  5
46
330
5
100
AcDbSymbolTableRecord
100
AcDbLinetypeTableRecord
  2
CENTER
 70
    0
  3
Center ____ _ ____ _ ____ _ ____ _ ____ _ ____
 72
   65
 73
    4
 40
50.8
 49
31.75
 74
    0
 49
-6.35
 74
    0
 49
6.35
 74
    0
 49
-6.35
 74
    0
  0
LTYPE
  5
47
330
5
100
AcDbSymbolTableRecord
100
AcDbLinetypeTableRecord
  2
CENTERTINY
 70
    0
  3
Center (.15x) ___ _ ___ _ ___ _ ___ _ ___ _ ___
 72
   65
 73
    4
 40
7.62
 49
4.7625
 74
    0
 49
-0.9525
 74
    0
 49
0.9525
 74
    0
 49
-0.9525
 74
    0
  0
LTYPE
  5
48
330
5
100
AcDbSymbolTableRecord
100
AcDbLinetypeTableRecord
  2
CENTER2
 70
    0
  3
Center (.5x) ___ _ ___ _ ___ _ ___ _ ___ _ ___
 72
   65
 73
    4
 40
28.575
 49
19.05
 74
    0
 49
-3.175
 74
    0
 49
3.175
 74
    0
 49
-3.175
 74
    0
  0
LTYPE
  5
49
330
5
100
AcDbSymbolTableRecord
100
AcDbLinetypeTableRecord
  2
CENTERX2
 70
    0
  3
Center (2x) ________  __  ________  __  _____
 72
   65
 73
    4
 40
101.6
 49
63.5
 74
    0
 49
-12.7
 74
    0
 49
12.7
 74
    0
 49
-12.7
 74
    0
  0
ENDTAB
  0
TABLE
  2
LAYER
  5
2
330
0
100
AcDbSymbolTable
 70
    1
  0
LAYER
  5
10
330
2
100
AcDbSymbolTableRecord
100
AcDbLayerTableRecord
  2
0
 70
    0
 62
  256
  6
CONTINUOUS
370
   25
390
F
  0
LAYER
  5
4A
330
2
100
AcDbSymbolTableRecord
100
AcDbLayerTableRecord
  2
Defpoints
 70
    0
 62
  256
  6
CONTINUOUS
290
0
370
   -3
390
F
  0
LAYER
  5
4B
330
2
100
AcDbSymbolTableRecord
100
AcDbLayerTableRecord
  2
arms
 70
    0
 62
    7
  6
CONTINUOUS
370
   25
390
F
  0
LAYER
  5
4C
330
2
100
AcDbSymbolTableRecord
100
AcDbLayerTableRecord
  2
bottom plate
 70
    0
 62
    4
  6
CONTINUOUS
370
   25
390
F
  0
LAYER
  5
4D
330
2
100
AcDbSymbolTableRecord
100
AcDbLayerTableRecord
  2
meassures
 70
    1
 62
   30
  6
CONTINUOUS
370
   25
390
F
  0
LAYER
  5
4E
330
2
100
AcDbSymbolTableRecord
100
AcDbLayerTableRecord
  2
motors
 70
    0
 62
    5
  6
CONTINUOUS
370
   25
390
F
  0
LAYER
  5
4F
330
2
100
AcDbSymbolTableRecord
100
AcDbLayerTableRecord
  2
props
 70
    0
 62
    2
  6
CONTINUOUS
370
   25
390
F
  0
LAYER
  5
50
330
2
100
AcDbSymbolTableRecord
100
AcDbLayerTableRecord
  2
references
 70
    1
 62
    1
  6
DASHED
370
   25
390
F
  0
LAYER
  5
51
330
2
100
AcDbSymbolTableRecord
100
AcDbLayerTableRecord
  2
reinforcement
 70
    0
 62
    6
  6
CONTINUOUS
370
   25
390
F
  0
LAYER
  5
52
330
2
100
AcDbSymbolTableRecord
100
AcDbLayerTableRecord
  2
top plate
 70
    0
 62
    3
  6
CONTINUOUS
370
   25
390
F
  0
ENDTAB
  0
TABLE
  2
STYLE
  5
3
330
0
100
AcDbSymbolTable
 70
    3
  0
STYLE
  5
53
330
2
100
AcDbSymbolTableRecord
100
AcDbTextStyleTableRecord
  2
standard
 70
    0
 40
0
 41
1
 50
0
 71
    0
 42
1
  3
standard
  4

  0
ENDTAB
  0
TABLE
  2
VIEW
  5
6
330
0
100
AcDbSymbolTable
 70
    0
  0
ENDTAB
  0
TABLE
  2
UCS
  5
7
330
0
100
AcDbSymbolTable
 70
    0
  0
ENDTAB
  0
TABLE
  2
APPID
  5
9
330
0
100
AcDbSymbolTable
 70
    1
  0
APPID
  5
12
330
9
100
AcDbSymbolTableRecord
100
AcDbRegAppTableRecord
  2
ACAD
 70
    0
  0
APPID
  5
54
330
9
100
AcDbSymbolTableRecord
100
AcDbRegAppTableRecord
  2
LibreCad
 70
    0
  0
ENDTAB
  0
TABLE
  2
DIMSTYLE
  5
A
330
0
100
AcDbSymbolTable
 70
    1
100
AcDbDimStyleTable
 71
    1
  0
DIMSTYLE
105
55
330
A
100
AcDbSymbolTableRecord
100
AcDbDimStyleTableRecord
  2
Standard
 70
    0
 40
1
 41
2.5
 42
0.625
 43
0.38
 44
1.25
 45
0
 46
0
 47
0
 48
0
 49
1
140
2.5
141
0.09
142
0
143
25.4
144
1
145
0
146
1
147
0.625
148
0
 71
    0
 72
    0
 73
    1
 74
    1
 75
    0
 76
    0
 77
    0
 78
    8
 79
    2
170
    0
171
    2
172
    0
173
    0
174
    0
175
    0
176
    0
177
    0
178
    0
179
    0
271
    4
272
    4
273
    2
274
    2
275
    0
276
    0
277
    2
278
   46
279
    0
280
    0
281
    0
282
    0
283
    1
284
    0
285
    0
286
    0
288
    0
289
    3
340
Standard
341

371
   -2
372
   -2
  0
ENDTAB
  0
TABLE
  2
BLOCK_RECORD
  5
1
330
0
100
AcDbSymbolTable
 70
    2
  0
BLOCK_RECORD
  5
1F
330
1
100
AcDbSymbolTableRecord
100
AcDbBlockTableRecord
  2
*Model_Space
 70
    0
280
    1
281
    0
  0
BLOCK_RECORD
  5
1E
330
1
100
AcDbSymbolTableRecord
100
AcDbBlockTableRecord
  2
*Paper_Space
 70
    0
280
    1
281
    0
  0
ENDTAB
  0
ENDSEC
  0
SECTION
  2
BLOCKS
  0
BLOCK
  5
20
330
1F
100
AcDbEntity
  8
0
100
AcDbBlockBegin
  2
*Model_Space
 70
    0
 10
0
 20
0
 30
0
  3
*Model_Space
  1

  0
ENDBLK
  5
21
330
1F
100
AcDbEntity
  8
0
100
AcDbBlockEnd
  0
BLOCK
  5
1C
330
1B
100
AcDbEntity
  8
0
100
AcDbBlockBegin
  2
*Paper_Space
 70
    0
 10
0
 20
0
 30
0
  3
*Paper_Space
  1

  0
ENDBLK
  5
1D
330
1F
100
AcDbEntity
  8
0
100
AcDbBlockEnd
  0
ENDSEC
  0
SECTION
  2
ENTITIES
  0
LINE
  5
56
100
AcDbEntity
  8
references
  6
ByLayer
 62
  256
370
   -1
100
AcDbLine
 10
50.2700000000001
 20
-50.27000000000013
 11
80.7700000000001
 21
-50.27000000000013
  0
LINE
  5
57
100
AcDbEntity
  8
references
  6
ByLayer
 62
  256
370
   -1
100
AcDbLine
 10
50.27000000000009
 20
-108.2700000000001
 11
50.27000000000009
 21
-50.27000000000013
  0
LINE
  5
58
100
AcDbEntity
  8
references
  6
ByLayer
 62
  256
370
   -1
100
AcDbLine
 10
80.7700000000001
 20
-108.2700000000001
 11
80.7700000000001
 21
-50.27000000000013
  0
LINE
  5
59
100
AcDbEntity
  8
references
  6
ByLayer
 62
  256
370
   -1
100
AcDbLine
 10
50.27000000000009
 20
-108.2700000000001
 11
80.7700000000001
 21
-108.2700000000001
  0
LINE
  5
5A
100
AcDbEntity
  8
references
  6
ByLayer
 62
  256
370
   -1
100
AcDbLine
 10
50.27000000000009
 20
-50.27000000000013
 11
80.7700000000001
 21
-108.2700000000002
  0
LINE
  5
5B
100
AcDbEntity
  8
references
  6
ByLayer
 62
  256
370
   -1
100
AcDbLine
 10
80.77000000000011
 20
-50.27
 11
50.2700000000001
 21
-108.2700000000001
  0
LINE
  5
5C
100
AcDbEntity
  8
references
  6
ByLayer
 62
  256
370
   -1
100
AcDbLine
 10
50.27000000000008
 20
-79.2700000000001
 11
80.77000000000008
 21
-79.2700000000001
  0
LINE
  5
5D
100
AcDbEntity
  8
references
  6
ByLayer
 62
  256
370
   -1
100
AcDbLine
 10
65.52000000000005
 20
-108.2700000000001
 11
65.52000000000005
 21
-50.27000000000008
  0
LINE
  5
5E
100
AcDbEntity
  8
references
  6
ByLayer
 62
  256
370
   -1
100
AcDbLine
 10
65.52000000000005
 20
-108.2700000000001
 11
65.52000000000005
 21
-100.2700000000001
  0
LINE
  5
5F
100
AcDbEntity
  8
references
  6
ByLayer
 62
  256
370
   -1
100
AcDbLine
 10
55.52000000000005
 20
-100.2700000000001
 11
75.52000000000005
 21
-100.2700000000001
  0
LINE
  5
60
100
AcDbEntity
  8
references
  6
ByLayer
 62
  256
370
   -1
100
AcDbLine
 10
55.52000000000005
 20
-100.2700000000001
 11
55.52000000000005
 21
-80.2700000000001
  0
LINE
  5
61
100
AcDbEntity
  8
references
  6
ByLayer
 62
  256
370
   -1
100
AcDbLine
 10
75.52000000000005
 20
-100.2700000000001
 11
75.52000000000005
 21
-80.2700000000001
  0
LINE
  5
62
100
AcDbEntity
  8
references
  6
ByLayer
 62
  256
370
   -1
100
AcDbLine
 10
55.52000000000005
 20
-80.2700000000001
 11
75.52000000000005
 21
-80.2700000000001
  0
CIRCLE
  5
63
100
AcDbEntity
  8
bottom plate
  6
ByLayer
 62
  256
370
   -1
100
AcDbCircle
 10
43.89999999999999
 20
-43.90000000000001
 40
1.5
  0
CIRCLE
  5
64
100
AcDbEntity
  8
bottom plate
  6
ByLayer
 62
  256
370
   -1
100
AcDbCircle
 10
87.13999999999999
 20
-43.89999999999985
 40
1.5
  0
CIRCLE
  5
65
100
AcDbEntity
  8
bottom plate
  6
ByLayer
 62
  256
370
   -1
100
AcDbCircle
 10
43.90000000000001
 20
-114.6400000000003
 40
1.5
  0
CIRCLE
  5
66
100
AcDbEntity
  8
bottom plate
  6
ByLayer
 62
  256
370
   -1
100
AcDbCircle
 10
87.14000000000027
 20
-114.6400000000002
 40
1.5
  0
CIRCLE
  5
67
100
AcDbEntity
  8
bottom plate
  6
ByLayer
 62
  256
370
   -1
100
AcDbCircle
 10
55.52000000000005
 20
-100.2700000000001
 40
1
  0
CIRCLE
  5
68
100
AcDbEntity
  8
bottom plate
  6
ByLayer
 62
  256
370
   -1
100
AcDbCircle
 10
75.52000000000005
 20
-100.2700000000001
 40
1
  0
CIRCLE
  5
69
100
AcDbEntity
  8
bottom plate
  6
ByLayer
 62
  256
370
   -1
100
AcDbCircle
 10
75.52000000000005
 20
-80.2700000000001
 40
1
  0
CIRCLE
  5
6A
100
AcDbEntity
  8
bottom plate
  6
ByLayer
 62
  256
370
   -1
100
AcDbCircle
 10
55.52000000000005
 20
-80.2700000000001
 40
1
  0
LINE
  5
6B
100
AcDbEntity
  8
references
  6
ByLayer
 62
  256
370
   -1
100
AcDbLine
 10
80.77000000000014
 20
-50.26999999999997
 11
50.2700000000001
 21
-79.27000000000011
  0
LINE
  5
6C
100
AcDbEntity
  8
references
  6
ByLayer
 62
  256
370
   -1
100
AcDbLine
 10
75.52000000000005
 20
-80.2700000000001
 11
55.52000000000005
 21
-100.2700000000001
  0
CIRCLE
  5
6D
100
AcDbEntity
  8
bottom plate
  6
ByLayer
 62
  256
370
   -1
100
AcDbCircle
 10
65.52000000000005
 20
-90.27000000000011
 40
5.119751269282875
  0
CIRCLE
  5
6E
100
AcDbEntity
  8
bottom plate
  6
ByLayer
 62
  256
370
   -1
100
AcDbCircle
 10
65.52000000000005
 20
-64.7700000000001
 40
6.74876303678197
  0
ARC
  5
6F
100
AcDbEntity
  8
bottom plate
  6
ByLayer
 62
  256
370
   -1
100
AcDbCircle
 10
43.89999999999999
 20
-43.90000000000002
 40
4.000000000000022
100
AcDbArc
 50
45
 51
224.9999999999999
  0
ARC
  5
70
100
AcDbEntity
  8
bottom plate
  6
ByLayer
 62
  256
370
   -1
100
AcDbCircle
 10
87.1400000000001
 20
-43.89999999999997
 40
3.999999999999836
100
AcDbArc
 50
314.9999999999998
 51
134.9999999999996
  0
ARC
  5
71
100
AcDbEntity
  8
bottom plate
  6
ByLayer
 62
  256
370
   -1
100
AcDbCircle
 10
87.14000000000021
 20
-114.6400000000002
 40
3.999999999999922
100
AcDbArc
 50
225.0000000000002
 51
44.99999999999986
  0
ARC
  5
72
100
AcDbEntity
  8
bottom plate
  6
ByLayer
 62
  256
370
   -1
100
AcDbCircle
 10
43.89999999999996
 20
-114.6400000000002
 40
3.999999999999927
100
AcDbArc
 50
134.9999999999996
 51
314.9999999999998
  0
LINE
  5
73
100
AcDbEntity
  8
references
  6
ByLayer
 62
  256
370
   -1
100
AcDbLine
 10
41.07157287525378
 20
-46.72842712474622
 11
50.70391381276322
 21
-56.888053498958
  0
LINE
  5
74
100
AcDbEntity
  8
references
  6
ByLayer
 62
  256
370
   -1
100
AcDbLine
 10
89.96842712474617
 20
-46.72842712474605
 11
80.3360861872367
 21
-56.88805349895781
  0
SPLINE
  5
75
100
AcDbEntity
  8
bottom plate
  6
ByLayer
 62
  256
370
   -1
100
AcDbSpline
210
0
220
0
230
0
 70
    8
 71
    3
 72
    8
 73
    4
 74
    0
 42
1e-007
 43
1e-007
 40
0
 40
0
 40
0
 40
0
 40
1
 40
1
 40
1
 40
1
 10
46.7284271247462
 20
-41.07157287525381
 30
0
 10
65.52000000000005
 20
-50.27000000000012
 30
0
 10
84.31157287525404
 20
-41.07157287525389
 30
0
 10
84.3115728752538
 20
-41.07157287525365
 30
0
  0
SPLINE
  5
76
100
AcDbEntity
  8
bottom plate
  6
ByLayer
 62
  256
370
   -1
100
AcDbSpline
210
0
220
0
230
0
 70
    8
 71
    3
 72
   11
 73
    7
 74
    0
 42
1e-007
 43
1e-007
 40
0
 40
0
 40
0
 40
0
 40
1
 40
2
 40
3
 40
4
 40
4
 40
4
 40
4
 10
41.0715728752527
 20
-46.72842712474508
 30
0
 10
47.27186724776909
 20
-53.2681327522311
 30
0
 10
50.2700000000001
 20
-56.43038674433596
 30
0
 10
50.27000000000012
 20
-79.2700000000001
 30
0
 10
47.27186724776917
 20
-105.2718672477692
 30
0
 10
41.07157287525384
 20
-111.8115728752541
 30
0
 10
41.07157287525381
 20
-111.8115728752541
 30
0
  0
SPLINE
  5
77
100
AcDbEntity
  8
bottom plate
  6
ByLayer
 62
  256
370
   -1
100
AcDbSpline
210
0
220
0
230
0
 70
    8
 71
    3
 72
   11
 73
    7
 74
    0
 42
1e-007
 43
1e-007
 40
0
 40
0
 40
0
 40
0
 40
1
 40
2
 40
3
 40
4
 40
4
 40
4
 40
4
 10
89.96842712474621
 20
-46.728427124746
 30
0
 10
83.76813275223199
 20
-53.26813275223203
 30
0
 10
80.770000000001
 20
-56.43038674433689
 30
0
 10
80.770000000001
 20
-79.27000000000103
 30
0
 10
83.76813275223196
 20
-105.2718672477701
 30
0
 10
89.96842712474735
 20
-111.811572875255
 30
0
 10
89.96842712474734
 20
-111.811572875255
 30
0
  0
LINE
  5
78
100
AcDbEntity
  8
references
  6
ByLayer
 62
  256
370
   -1
100
AcDbLine
 10
65.52000000000005
 20
-119.2700000000001
 11
65.52000000000005
 21
-108.2700000000001
  0
LINE
  5
79
100
AcDbEntity
  8
references
  6
ByLayer
 62
  256
370
   -1
100
AcDbLine
 10
61.52000000000005
 20
-119.2700000000001
 11
69.52000000000005
 21
-119.2700000000001
  0
CIRCLE
  5
7A
100
AcDbEntity
  8
bottom plate
  6
ByLayer
 62
  256
370
   -1
100
AcDbCircle
 10
65.52000000000005
 20
-119.2700000000001
 40
1.5
  0
ARC
  5
7B
100
AcDbEntity
  8
bottom plate
  6
ByLayer
 62
  256
370
   -1
100
AcDbCircle
 10
65.52000000000005
 20
-119.2700000000001
 40
4
100
AcDbArc
 50
180
 51
0
  0
SPLINE
  5
7C
100
AcDbEntity
  8
bottom plate
  6
ByLayer
 62
  256
370
   -1
100
AcDbSpline
210
0
220
0
230
0
 70
    8
 71
    3
 72
    8
 73
    4
 74
    0
 42
1e-007
 43
1e-007
 40
0
 40
0
 40
0
 40
0
 40
1
 40
1
 40
1
 40
1
 10
46.72842712474619
 20
-117.4684271247465
 30
0
 10
60
 20
-112
 30
0
 10
61.52000000000005
 20
-119.2700000000001
 30
0
 10
61.52000000000005
 20
-119.2700000000001
 30
0
  0
SPLINE
  5
7D
100
AcDbEntity
  8
bottom plate
  6
ByLayer
 62
  256
370
   -1
100
AcDbSpline
210
0
220
0
230
0
 70
    8
 71
    3
 72
    8
 73
    4
 74
    0
 42
1e-007
 43
1e-007
 40
0
 40
0
 40
0
 40
0
 40
1
 40
1
 40
1
 40
1
 10
84.31157287525392
 20
-117.4684271247465
 30
0
 10
71.04000000000011
 20
-112
 30
0
 10
69.52000000000005
 20
-119.2700000000001
 30
0
 10
69.52000000000005
 20
-119.2700000000001
 30
0
  0
LINE
  5
7E
100
AcDbEntity
  8
references
  6
ByLayer
 62
  256
370
   -1
100
AcDbLine
 10
60.02000000000005
 20
-119.2700000000001
 11
71.02000000000005
 21
-119.2700000000001
  0
CIRCLE
  5
7F
100
AcDbEntity
  8
top plate
  6
ByLayer
 62
  256
370
   -1
100
AcDbCircle
 10
65.52000000000005
 20
-119.2700000000001
 40
1.5
  0
ARC
  5
80
100
AcDbEntity
  8
top plate
  6
ByLayer
 62
  256
370
   -1
100
AcDbCircle
 10
65.52000000000005
 20
-119.2700000000001
 40
5.5
100
AcDbArc
 50
180
 51
0
  0
SPLINE
  5
81
100
AcDbEntity
  8
top plate
  6
ByLayer
 62
  256
370
   -1
100
AcDbSpline
210
0
220
0
230
0
 70
    8
 71
    3
 72
    8
 73
    4
 74
    0
 42
1e-007
 43
1e-007
 40
0
 40
0
 40
0
 40
0
 40
1
 40
1
 40
1
 40
1
 10
45.7700000000001
 20
-50.27000000000013
 30
0
 10
50.27000000000012
 20
-79.2700000000001
 30
0
 10
60.02000000000005
 20
-119.2700000000001
 30
0
 10
60.02000000000005
 20
-119.2700000000001
 30
0
  0
SPLINE
  5
82
100
AcDbEntity
  8
top plate
  6
ByLayer
 62
  256
370
   -1
100
AcDbSpline
210
0
220
0
230
0
 70
    8
 71
    3
 72
    8
 73
    4
 74
    0
 42
1e-007
 43
1e-007
 40
0
 40
0
 40
0
 40
0
 40
1
 40
1
 40
1
 40
1
 10
85.26999999999995
 20
-50.27000000000013
 30
0
 10
80.77000000000011
 20
-79.27000000000011
 30
0
 10
71.02000000000005
 20
-119.2700000000001
 30
0
 10
71.02000000000005
 20
-119.2700000000001
 30
0
  0
LINE
  5
83
100
AcDbEntity
  8
references
  6
ByLayer
 62
  256
370
   -1
100
AcDbLine
 10
65.52000000000005
 20
-60.27000000000012
 11
65.52000000000005
 21
-50.27000000000012
  0
LINE
  5
84
100
AcDbEntity
  8
references
  6
ByLayer
 62
  256
370
   -1
100
AcDbLine
 10
57.02000000000005
 20
-60.27000000000012
 11
74.02000000000005
 21
-60.27000000000012
  0
LINE
  5
85
100
AcDbEntity
  8
references
  6
ByLayer
 62
  256
370
   -1
100
AcDbLine
 10
60.52000000000008
 20
-79.27000000000011
 11
70.52000000000008
 21
-79.27000000000011
  0
LINE
  5
86
100
AcDbEntity
  8
references
  6
ByLayer
 62
  256
370
   -1
100
AcDbLine
 10
55.52000000000005
 20
-79.27000000000008
 11
75.52000000000005
 21
-79.27000000000008
  0
LINE
  5
87
100
AcDbEntity
  8
references
  6
ByLayer
 62
  256
370
   -1
100
AcDbLine
 10
75.52000000000005
 20
-79.27000000000008
 11
75.52000000000005
 21
-59.27000000000008
  0
LINE
  5
88
100
AcDbEntity
  8
references
  6
ByLayer
 62
  256
370
   -1
100
AcDbLine
 10
70.52000000000008
 20
-79.27000000000011
 11
70.52000000000008
 21
-59.27000000000011
  0
LINE
  5
89
100
AcDbEntity
  8
references
  6
ByLayer
 62
  256
370
   -1
100
AcDbLine
 10
60.52000000000008
 20
-79.27000000000011
 11
60.52000000000008
 21
-59.27000000000011
  0
LINE
  5
8A
100
AcDbEntity
  8
references
  6
ByLayer
 62
  256
370
   -1
100
AcDbLine
 10
55.52000000000005
 20
-79.27000000000008
 11
55.52000000000005
 21
-59.27000000000008
  0
LINE
  5
8B
100
AcDbEntity
  8
references
  6
ByLayer
 62
  256
370
   -1
100
AcDbLine
 10
65.52000000000005
 20
-79.27000000000014
 11
65.52000000000005
 21
-69.27000000000014
  0
LINE
  5
8C
100
AcDbEntity
  8
references
  6
ByLayer
 62
  256
370
   -1
100
AcDbLine
 10
55.52000000000005
 20
-69.27000000000014
 11
75.52000000000005
 21
-69.27000000000014
  0
LWPOLYLINE
  5
8D
100
AcDbEntity
  8
top plate
  6
ByLayer
 62
  256
370
   -1
100
AcDbPolyline
 90
    6
 70
    1
 43
0
 10
60
 20
-69
 10
57
 20
-69
 42
0.414213562373095
 10
55
 20
-71
 10
59
 20
-91
 42
0.9999999999999999
 10
62
 20
-91
 10
62
 20
-71
 42
0.414213562373095
  0
LWPOLYLINE
  5
8E
100
AcDbEntity
  8
top plate
  6
ByLayer
 62
  256
370
   -1
100
AcDbPolyline
 90
    6
 70
    1
 43
0
 10
71.04000000000011
 20
-69
 10
74.04000000000011
 20
-69
 42
-0.414213562373095
 10
76.04000000000011
 20
-71
 10
72.04000000000011
 20
-91
 42
-0.9999999999999999
 10
69.04000000000011
 20
-91
 10
69.04000000000011
 20
-71
 42
-0.414213562373095
  0
LINE
  5
8F
100
AcDbEntity
  8
references
  6
ByLayer
 62
  256
370
   -1
100
AcDbLine
 10
-14.02951288348655
 20
-158.8195128834867
 11
145.0695128834867
 21
0.2795128834864613
  0
LINE
  5
90
100
AcDbEntity
  8
references
  6
ByLayer
 62
  256
370
   -1
100
AcDbLine
 10
-14.02951288348655
 20
0.2795128834864471
 11
145.0695128834867
 21
-158.8195128834867
  0
CIRCLE
  5
91
100
AcDbEntity
  8
props
  6
ByLayer
 62
  256
370
   -1
100
AcDbCircle
 10
-6.333359465743769
 20
-7.416721682593128
 40
63
  0
LINE
  5
92
100
AcDbEntity
  8
references
  6
ByLayer
 62
  256
370
   -1
100
AcDbLine
 10
-12.25563718558461
 20
-8.3557779157745
 11
-7.272415698925144
 21
-1.494443962752285
  0
LINE
  5
93
100
AcDbEntity
  8
references
  6
ByLayer
 62
  256
370
   -1
100
AcDbLine
 10
-5.394303232562396
 20
-13.33899940243396
 11
-12.25563718558461
 21
-8.3557779157745
  0
LINE
  5
94
100
AcDbEntity
  8
references
  6
ByLayer
 62
  256
370
   -1
100
AcDbLine
 10
-0.411081745902929
 20
-6.477665449411751
 11
-7.272415698925144
 21
-1.494443962752285
  0
LINE
  5
95
100
AcDbEntity
  8
references
  6
ByLayer
 62
  256
370
   -1
100
AcDbLine
 10
-5.394303232562396
 20
-13.33899940243396
 11
-0.411081745902929
 21
-6.477665449411751
  0
CIRCLE
  5
96
100
AcDbEntity
  8
arms
  6
ByLayer
 62
  256
370
   -1
100
AcDbCircle
 10
-12.25563718558461
 20
-8.355777915774503
 40
1
  0
CIRCLE
  5
97
100
AcDbEntity
  8
arms
  6
ByLayer
 62
  256
370
   -1
100
AcDbCircle
 10
-7.272415698925144
 20
-1.494443962752285
 40
1
  0
CIRCLE
  5
98
100
AcDbEntity
  8
arms
  6
ByLayer
 62
  256
370
   -1
100
AcDbCircle
 10
-5.394303232562393
 20
-13.33899940243397
 40
1
  0
CIRCLE
  5
99
100
AcDbEntity
  8
arms
  6
ByLayer
 62
  256
370
   -1
100
AcDbCircle
 10
-0.4110817459029263
 20
-6.477665449411752
 40
1
  0
LINE
  5
9A
100
AcDbEntity
  8
references
  6
ByLayer
 62
  256
370
   -1
100
AcDbLine
 10
-5.394303232562396
 20
-13.33899940243396
 11
-7.273585394066298
 21
-1.487067131388316
  0
LINE
  5
9B
100
AcDbEntity
  8
references
  6
ByLayer
 62
  256
370
   -1
100
AcDbLine
 10
-12.25563718558461
 20
-8.3557779157745
 11
-0.4037049145389625
 21
-6.476495754270598
  0
CIRCLE
  5
9C
100
AcDbEntity
  8
arms
  6
ByLayer
 62
  256
370
   -1
100
AcDbCircle
 10
-6.333359465743769
 20
-7.416721682593128
 40
2.5
  0
LINE
  5
9D
100
AcDbEntity
  8
references
  6
ByLayer
 62
  256
370
   -1
100
AcDbLine
 10
53.68059707127492
 20
-45.7631481233041
 11
48.6973755846154
 21
-52.6244820763263
  0
CIRCLE
  5
9E
100
AcDbEntity
  8
arms
  6
ByLayer
 62
  256
370
   -1
100
AcDbCircle
 10
43.9
 20
-43.9
 40
1.5
  0
CIRCLE
  5
9F
100
AcDbEntity
  8
arms
  6
ByLayer
 62
  256
370
   -1
100
AcDbCircle
 10
51.18898632794506
 20
-49.19381509981508
 40
1.5
  0
CIRCLE
  5
A0
100
AcDbEntity
  8
motors
  6
ByLayer
 62
  256
370
   -1
100
AcDbCircle
 10
-6.333359465743769
 20
-7.416721682593128
 40
10
  0
CIRCLE
  5
A1
100
AcDbEntity
  8
references
  6
ByLayer
 62
  256
370
   -1
100
AcDbCircle
 10
6.253587097426653
 20
-16.55831761633972
 40
4
  0
LINE
  5
A2
100
AcDbEntity
  8
references
  6
ByLayer
 62
  256
370
   -1
100
AcDbLine
 10
46.74451172630306
 20
-49.89854591037915
 11
55.63346092958729
 21
-48.48908428925122
  0
LINE
  5
A3
100
AcDbEntity
  8
references
  6
ByLayer
 62
  256
370
   -1
100
AcDbLine
 10
-11.62920979841664
 20
-12.30642200612305
 11
-12.88206457275258
 21
-4.405133825425951
  0
LINE
  5
A4
100
AcDbEntity
  8
references
  6
ByLayer
 62
  256
370
   -1
100
AcDbLine
 10
-6.333359465743769
 20
-7.416721682593125
 11
51.18898632794506
 21
-49.1938150998151
  0
SPLINE
  5
A5
100
AcDbEntity
  8
arms
  6
ByLayer
 62
  256
370
   -1
100
AcDbSpline
210
0
220
0
230
0
 70
    8
 71
    2
 72
   19
 73
   16
 74
    0
 42
1e-007
 43
1e-007
 40
0
 40
0
 40
0
 40
0.07142857142857142
 40
0.1428571428571428
 40
0.2142857142857143
 40
0.2857142857142857
 40
0.3571428571428572
 40
0.4285714285714285
 40
0.5
 40
0.5714285714285714
 40
0.6428571428571429
 40
0.7142857142857143
 40
0.7857142857142857
 40
0.8571428571428571
 40
0.9285714285714286
 40
1
 40
1
 40
1
 10
48.69737558461531
 20
-52.62448207632621
 30
0
 10
16.57436209137846
 20
-29.3372377727505
 30
0
 10
1.01825161229464
 20
-17.94204601759368
 30
0
 10
-6.427629920899025
 20
-18.95659045548105
 30
0
 10
-11.43769661509008
 20
-18.333652849682
 30
0
 10
-15.88984307365531
 20
-14.77413524492263
 30
0
 10
-19.53187785403775
 20
-6.692542817418325
 30
0
 10
-22.92118153622142
 20
0.5328719618647018
 30
0
 10
-19.02443979620203
 20
5.898245842702803
 30
0
 10
-11.10496423322636
 20
4.910366806496169
 30
0
 10
-2.2931256403618
 20
3.947011150929119
 30
0
 10
2.469059473687448
 20
0.8143818069698632
 30
0
 10
4.611300018064773
 20
-3.757228958502969
 30
0
 10
5.949896099717717
 20
-11.15172777539286
 30
0
 10
21.59840419434586
 20
-22.41969843503754
 30
0
 10
53.68059707127479
 20
-45.76314812330398
 30
0
  0
LWPOLYLINE
  5
A6
100
AcDbEntity
  8
arms
  6
ByLayer
 62
  256
370
   -1
100
AcDbPolyline
 90
    2
 70
    0
 43
0
 10
48.69737558461533
 20
-52.62448207632619
 42
0.9999999999999999
 10
53.68059707127479
 20
-45.76314812330398
 42
0.9999999999999999
  0
LINE
  5
A7
100
AcDbEntity
  8
references
  6
ByLayer
 62
  256
370
   -1
100
AcDbLine
 10
77.3594029287251
 20
-45.76314812330383
 11
82.34262441538456
 21
-52.6244820763261
  0
LINE
  5
A8
100
AcDbEntity
  8
references
  6
ByLayer
 62
  256
370
   -1
100
AcDbLine
 10
75.40653907041278
 20
-48.4890842892512
 11
84.295488273697
 21
-49.89854591037913
  0
CIRCLE
  5
A9
100
AcDbEntity
  8
props
  6
ByLayer
 62
  256
370
   -1
100
AcDbCircle
 10
137.373359465744
 20
-7.416721682593149
 40
63
  0
LINE
  5
AA
100
AcDbEntity
  8
references
  6
ByLayer
 62
  256
370
   -1
100
AcDbLine
 10
138.3124156989254
 20
-1.49444396275231
 11
143.2956371855848
 21
-8.355777915774523
  0
LINE
  5
AB
100
AcDbEntity
  8
references
  6
ByLayer
 62
  256
370
   -1
100
AcDbLine
 10
131.4510817459032
 20
-6.477665449411776
 11
138.3124156989254
 21
-1.49444396275231
  0
LINE
  5
AC
100
AcDbEntity
  8
references
  6
ByLayer
 62
  256
370
   -1
100
AcDbLine
 10
136.4343032325626
 20
-13.33899940243399
 11
143.2956371855848
 21
-8.355777915774523
  0
LINE
  5
AD
100
AcDbEntity
  8
references
  6
ByLayer
 62
  256
370
   -1
100
AcDbLine
 10
131.4510817459032
 20
-6.477665449411776
 11
136.4343032325626
 21
-13.33899940243399
  0
CIRCLE
  5
AE
100
AcDbEntity
  8
arms
  6
ByLayer
 62
  256
370
   -1
100
AcDbCircle
 10
138.3124156989253
 20
-1.494443962752314
 40
1
  0
CIRCLE
  5
AF
100
AcDbEntity
  8
arms
  6
ByLayer
 62
  256
370
   -1
100
AcDbCircle
 10
143.2956371855848
 20
-8.355777915774532
 40
1
  0
CIRCLE
  5
B0
100
AcDbEntity
  8
arms
  6
ByLayer
 62
  256
370
   -1
100
AcDbCircle
 10
131.4510817459031
 20
-6.477665449411781
 40
1
  0
CIRCLE
  5
B1
100
AcDbEntity
  8
arms
  6
ByLayer
 62
  256
370
   -1
100
AcDbCircle
 10
136.4343032325626
 20
-13.33899940243399
 40
1
  0
LINE
  5
B2
100
AcDbEntity
  8
references
  6
ByLayer
 62
  256
370
   -1
100
AcDbLine
 10
131.4510817459032
 20
-6.477665449411776
 11
143.3030140169488
 21
-8.356947610915679
  0
CIRCLE
  5
B3
100
AcDbEntity
  8
arms
  6
ByLayer
 62
  256
370
   -1
100
AcDbCircle
 10
137.373359465744
 20
-7.416721682593149
 40
2.5
  0
CIRCLE
  5
B4
100
AcDbEntity
  8
arms
  6
ByLayer
 62
  256
370
   -1
100
AcDbCircle
 10
87.14000000000023
 20
-43.90000000000003
 40
1.5
  0
CIRCLE
  5
B5
100
AcDbEntity
  8
arms
  6
ByLayer
 62
  256
370
   -1
100
AcDbCircle
 10
79.85101367205517
 20
-49.1938150998151
 40
1.5
  0
CIRCLE
  5
B6
100
AcDbEntity
  8
motors
  6
ByLayer
 62
  256
370
   -1
100
AcDbCircle
 10
137.373359465744
 20
-7.416721682593149
 40
10
  0
CIRCLE
  5
B7
100
AcDbEntity
  8
references
  6
ByLayer
 62
  256
370
   -1
100
AcDbCircle
 10
124.7864129025736
 20
-16.55831761633975
 40
4
  0
LINE
  5
B8
100
AcDbEntity
  8
references
  6
ByLayer
 62
  256
370
   -1
100
AcDbLine
 10
134.3617716085768
 20
-0.8680165755843423
 11
142.2630597892739
 21
-2.120871349920277
  0
SPLINE
  5
B9
100
AcDbEntity
  8
arms
  6
ByLayer
 62
  256
370
   -1
100
AcDbSpline
210
0
220
0
230
0
 70
    8
 71
    2
 72
   19
 73
   16
 74
    0
 42
1e-007
 43
1e-007
 40
0
 40
0
 40
0
 40
0.07142857142857142
 40
0.1428571428571428
 40
0.2142857142857143
 40
0.2857142857142857
 40
0.3571428571428572
 40
0.4285714285714285
 40
0.5
 40
0.5714285714285714
 40
0.6428571428571429
 40
0.7142857142857143
 40
0.7857142857142857
 40
0.8571428571428571
 40
0.9285714285714286
 40
1
 40
1
 40
1
 10
77.35940292872542
 20
-45.76314812330398
 30
0
 10
109.4415958056544
 20
-22.41969843503756
 30
0
 10
125.0901039002825
 20
-11.15172777539289
 30
0
 10
126.4286999819354
 20
-3.75722895850299
 30
0
 10
128.5709405263128
 20
0.8143818069698348
 30
0
 10
133.333125640362
 20
3.947011150929094
 30
0
 10
142.1449642332266
 20
4.910366806496146
 30
0
 10
150.0644397962022
 20
5.898245842702784
 30
0
 10
153.9611815362217
 20
0.5328719618646747
 30
0
 10
150.571877854038
 20
-6.692542817418344
 30
0
 10
146.9298430736555
 20
-14.77413524492266
 30
0
 10
142.4776966150903
 20
-18.33365284968203
 30
0
 10
137.4676299208992
 20
-18.95659045548108
 30
0
 10
130.0217483877056
 20
-17.94204601759369
 30
0
 10
114.4656379086217
 20
-29.33723777275053
 30
0
 10
82.3426244153849
 20
-52.62448207632621
 30
0
  0
LWPOLYLINE
  5
BA
100
AcDbEntity
  8
arms
  6
ByLayer
 62
  256
370
   -1
100
AcDbPolyline
 90
    2
 70
    0
 43
0
 10
77.35940292872543
 20
-45.76314812330401
 42
0.9999999999999994
 10
82.34262441538489
 20
-52.62448207632622
 42
0.9999999999999994
  0
LINE
  5
BB
100
AcDbEntity
  8
references
  6
ByLayer
 62
  256
370
   -1
100
AcDbLine
 10
137.3338530248403
 20
-7.410457408721411
 11
79.85101367205479
 21
-49.19381509981525
  0
LINE
  5
BC
100
AcDbEntity
  8
references
  6
ByLayer
 62
  256
370
   -1
100
AcDbLine
 10
-7.272415698925105
 20
-157.0455560372478
 11
-12.25563718558457
 21
-150.1842220842256
  0
LINE
  5
BD
100
AcDbEntity
  8
references
  6
ByLayer
 62
  256
370
   -1
100
AcDbLine
 10
-0.4110817459028902
 20
-152.0623345505884
 11
-7.272415698925105
 21
-157.0455560372478
  0
LINE
  5
BE
100
AcDbEntity
  8
references
  6
ByLayer
 62
  256
370
   -1
100
AcDbLine
 10
-5.394303232562351
 20
-145.2010005975661
 11
-12.25563718558457
 21
-150.1842220842256
  0
LINE
  5
BF
100
AcDbEntity
  8
references
  6
ByLayer
 62
  256
370
   -1
100
AcDbLine
 10
-0.4110817459028902
 20
-152.0623345505884
 11
-5.394303232562351
 21
-145.2010005975661
  0
LINE
  5
C0
100
AcDbEntity
  8
references
  6
ByLayer
 62
  256
370
   -1
100
AcDbLine
 10
-0.4110817459028902
 20
-152.0623345505884
 11
-12.26301401694854
 21
-150.1830523890845
  0
LINE
  5
C1
100
AcDbEntity
  8
references
  6
ByLayer
 62
  256
370
   -1
100
AcDbLine
 10
-7.272415698925105
 20
-157.0455560372478
 11
-5.393133537421201
 21
-145.1936237662022
  0
LINE
  5
C2
100
AcDbEntity
  8
references
  6
ByLayer
 62
  256
370
   -1
100
AcDbLine
 10
48.69737558461554
 20
-105.9155179236738
 11
53.68059707127496
 21
-112.7768518766961
  0
CIRCLE
  5
C3
100
AcDbEntity
  8
references
  6
ByLayer
 62
  256
370
   -1
100
AcDbCircle
 10
6.253587097426696
 20
-141.9816823836604
 40
4
  0
LINE
  5
C4
100
AcDbEntity
  8
references
  6
ByLayer
 62
  256
370
   -1
100
AcDbLine
 10
-3.321771608576556
 20
-157.6719834244158
 11
-11.22305978927365
 21
-156.4191286500799
  0
LINE
  5
C5
100
AcDbEntity
  8
references
  6
ByLayer
 62
  256
370
   -1
100
AcDbLine
 10
-6.33335946574373
 20
-151.123278317407
 11
51.18898632794514
 21
-109.3461849001851
  0
LINE
  5
C6
100
AcDbEntity
  8
references
  6
ByLayer
 62
  256
370
   -1
100
AcDbLine
 10
143.2956371855846
 20
-150.1842220842257
 11
138.3124156989252
 21
-157.0455560372479
  0
LINE
  5
C7
100
AcDbEntity
  8
references
  6
ByLayer
 62
  256
370
   -1
100
AcDbLine
 10
136.4343032325624
 20
-145.2010005975662
 11
143.2956371855846
 21
-150.1842220842257
  0
LINE
  5
C8
100
AcDbEntity
  8
references
  6
ByLayer
 62
  256
370
   -1
100
AcDbLine
 10
131.4510817459029
 20
-152.0623345505885
 11
138.3124156989252
 21
-157.0455560372479
  0
LINE
  5
C9
100
AcDbEntity
  8
references
  6
ByLayer
 62
  256
370
   -1
100
AcDbLine
 10
136.4343032325624
 20
-145.2010005975662
 11
131.4510817459029
 21
-152.0623345505885
  0
LINE
  5
CA
100
AcDbEntity
  8
references
  6
ByLayer
 62
  256
370
   -1
100
AcDbLine
 10
136.4343032325624
 20
-145.2010005975662
 11
138.3135853940663
 21
-157.0529328686119
  0
LINE
  5
CB
100
AcDbEntity
  8
references
  6
ByLayer
 62
  256
370
   -1
100
AcDbLine
 10
143.2956371855846
 20
-150.1842220842257
 11
131.443704914539
 21
-152.0635042457296
  0
LINE
  5
CC
100
AcDbEntity
  8
references
  6
ByLayer
 62
  256
370
   -1
100
AcDbLine
 10
77.35940292872506
 20
-112.7768518766961
 11
82.34262441538459
 21
-105.9155179236739
  0
CIRCLE
  5
CD
100
AcDbEntity
  8
references
  6
ByLayer
 62
  256
370
   -1
100
AcDbCircle
 10
124.7864129025733
 20
-141.9816823836605
 40
4
  0
LINE
  5
CE
100
AcDbEntity
  8
references
  6
ByLayer
 62
  256
370
   -1
100
AcDbLine
 10
142.6692097984166
 20
-146.2335779938772
 11
143.9220645727526
 21
-154.1348661745743
  0
LINE
  5
CF
100
AcDbEntity
  8
references
  6
ByLayer
 62
  256
370
   -1
100
AcDbLine
 10
137.3733594657438
 20
-151.1232783174071
 11
79.85101367205493
 21
-109.3461849001851
  0
ARC
  5
D0
100
AcDbEntity
  8
top plate
  6
ByLayer
 62
  256
370
   -1
100
AcDbCircle
 10
80.33826953520636
 20
-49.37954214462567
 40
5.011474889647884
100
AcDbArc
 50
349.7651238637343
 51
169.7651238637343
  0
ARC
  5
D1
100
AcDbEntity
  8
top plate
  6
ByLayer
 62
  256
370
   -1
100
AcDbCircle
 10
50.7017304647937
 20
-49.37954214462567
 40
5.011474889647886
100
AcDbArc
 50
10.23487613626557
 51
190.2348761362655
  0
SPLINE
  5
D2
100
AcDbEntity
  8
top plate
  6
ByLayer
 62
  256
370
   -1
100
AcDbSpline
210
0
220
0
230
0
 70
    8
 71
    3
 72
    9
 73
    5
 74
    0
 42
1e-007
 43
1e-007
 40
0
 40
0
 40
0
 40
0
 40
1
 40
2
 40
2
 40
2
 40
2
 10
55.63346092958729
 20
-48.48908428925122
 30
0
 10
57.02000000000005
 20
-60.27000000000012
 30
0
 10
65.52000000000005
 20
-60.27000000000012
 30
0
 10
74.02000000000005
 20
-60.27000000000012
 30
0
 10
75.40653907041278
 20
-48.4890842892512
 30
0
  0
CIRCLE
  5
D3
100
AcDbEntity
  8
props
  6
ByLayer
 62
  256
370
   -1
100
AcDbCircle
 10
-6.333359465743726
 20
-151.123278317407
 40
63
  0
CIRCLE
  5
D4
100
AcDbEntity
  8
arms
  6
ByLayer
 62
  256
370
   -1
100
AcDbCircle
 10
-7.272415698925094
 20
-157.0455560372478
 40
1
  0
CIRCLE
  5
D5
100
AcDbEntity
  8
arms
  6
ByLayer
 62
  256
370
   -1
100
AcDbCircle
 10
-12.25563718558457
 20
-150.1842220842256
 40
1
  0
CIRCLE
  5
D6
100
AcDbEntity
  8
arms
  6
ByLayer
 62
  256
370
   -1
100
AcDbCircle
 10
-0.4110817459028837
 20
-152.0623345505884
 40
1
  0
CIRCLE
  5
D7
100
AcDbEntity
  8
arms
  6
ByLayer
 62
  256
370
   -1
100
AcDbCircle
 10
-5.394303232562343
 20
-145.2010005975662
 40
1
  0
CIRCLE
  5
D8
100
AcDbEntity
  8
arms
  6
ByLayer
 62
  256
370
   -1
100
AcDbCircle
 10
-6.333359465743726
 20
-151.123278317407
 40
2.5
  0
CIRCLE
  5
D9
100
AcDbEntity
  8
arms
  6
ByLayer
 62
  256
370
   -1
100
AcDbCircle
 10
43.90000000000005
 20
-114.6400000000001
 40
1.5
  0
CIRCLE
  5
DA
100
AcDbEntity
  8
arms
  6
ByLayer
 62
  256
370
   -1
100
AcDbCircle
 10
51.18898632794512
 20
-109.3461849001851
 40
1.5
  0
CIRCLE
  5
DB
100
AcDbEntity
  8
motors
  6
ByLayer
 62
  256
370
   -1
100
AcDbCircle
 10
-6.333359465743726
 20
-151.123278317407
 40
10
  0
SPLINE
  5
DC
100
AcDbEntity
  8
arms
  6
ByLayer
 62
  256
370
   -1
100
AcDbSpline
210
0
220
0
230
0
 70
    8
 71
    2
 72
   19
 73
   16
 74
    0
 42
1e-007
 43
1e-007
 40
0
 40
0
 40
0
 40
0.07142857142857142
 40
0.1428571428571428
 40
0.2142857142857143
 40
0.2857142857142857
 40
0.3571428571428572
 40
0.4285714285714285
 40
0.5
 40
0.5714285714285714
 40
0.6428571428571429
 40
0.7142857142857143
 40
0.7857142857142857
 40
0.8571428571428571
 40
0.9285714285714286
 40
1
 40
1
 40
1
 10
53.68059707127486
 20
-112.7768518766962
 30
0
 10
21.59840419434589
 20
-136.1203015649625
 30
0
 10
5.949896099717757
 20
-147.3882722246073
 30
0
 10
4.611300018064806
 20
-154.7827710414971
 30
0
 10
2.469059473687498
 20
-159.35438180697
 30
0
 10
-2.293125640361758
 20
-162.4870111509293
 30
0
 10
-11.10496423322632
 20
-163.4503668064963
 30
0
 10
-19.02443979620199
 20
-164.4382458427029
 30
0
 10
-22.92118153622137
 20
-159.0728719618648
 30
0
 10
-19.53187785403772
 20
-151.8474571825818
 30
0
 10
-15.88984307365527
 20
-143.7658647550775
 30
0
 10
-11.43769661509004
 20
-140.2063471503182
 30
0
 10
-6.427629920898982
 20
-139.5834095445191
 30
0
 10
1.018251612294677
 20
-140.5979539824065
 30
0
 10
16.57436209137851
 20
-129.2027622272497
 30
0
 10
48.69737558461537
 20
-105.9155179236739
 30
0
  0
LWPOLYLINE
  5
DD
100
AcDbEntity
  8
arms
  6
ByLayer
 62
  256
370
   -1
100
AcDbPolyline
 90
    2
 70
    0
 43
0
 10
53.68059707127483
 20
-112.7768518766962
 42
0.9999999999999992
 10
48.69737558461538
 20
-105.9155179236739
 42
0.9999999999999992
  0
CIRCLE
  5
DE
100
AcDbEntity
  8
props
  6
ByLayer
 62
  256
370
   -1
100
AcDbCircle
 10
137.3733594657438
 20
-151.1232783174071
 40
63
  0
CIRCLE
  5
DF
100
AcDbEntity
  8
arms
  6
ByLayer
 62
  256
370
   -1
100
AcDbCircle
 10
143.2956371855846
 20
-150.1842220842257
 40
1
  0
CIRCLE
  5
E0
100
AcDbEntity
  8
arms
  6
ByLayer
 62
  256
370
   -1
100
AcDbCircle
 10
138.3124156989252
 20
-157.0455560372479
 40
1
  0
CIRCLE
  5
E1
100
AcDbEntity
  8
arms
  6
ByLayer
 62
  256
370
   -1
100
AcDbCircle
 10
136.4343032325624
 20
-145.2010005975662
 40
1
  0
CIRCLE
  5
E2
100
AcDbEntity
  8
arms
  6
ByLayer
 62
  256
370
   -1
100
AcDbCircle
 10
131.4510817459029
 20
-152.0623345505884
 40
1
  0
CIRCLE
  5
E3
100
AcDbEntity
  8
arms
  6
ByLayer
 62
  256
370
   -1
100
AcDbCircle
 10
137.3733594657438
 20
-151.1232783174071
 40
2.5
  0
CIRCLE
  5
E4
100
AcDbEntity
  8
arms
  6
ByLayer
 62
  256
370
   -1
100
AcDbCircle
 10
87.14
 20
-114.6400000000002
 40
1.5
  0
CIRCLE
  5
E5
100
AcDbEntity
  8
arms
  6
ByLayer
 62
  256
370
   -1
100
AcDbCircle
 10
79.85101367205495
 20
-109.3461849001851
 40
1.5
  0
CIRCLE
  5
E6
100
AcDbEntity
  8
motors
  6
ByLayer
 62
  256
370
   -1
100
AcDbCircle
 10
137.3733594657438
 20
-151.1232783174071
 40
10
  0
SPLINE
  5
E7
100
AcDbEntity
  8
arms
  6
ByLayer
 62
  256
370
   -1
100
AcDbSpline
210
0
220
0
230
0
 70
    8
 71
    2
 72
   19
 73
   16
 74
    0
 42
1e-007
 43
1e-007
 40
0
 40
0
 40
0
 40
0.07142857142857142
 40
0.1428571428571428
 40
0.2142857142857143
 40
0.2857142857142857
 40
0.3571428571428572
 40
0.4285714285714285
 40
0.5
 40
0.5714285714285714
 40
0.6428571428571429
 40
0.7142857142857143
 40
0.7857142857142857
 40
0.8571428571428571
 40
0.9285714285714286
 40
1
 40
1
 40
1
 10
82.34262441538469
 20
-105.915517923674
 30
0
 10
114.4656379086215
 20
-129.2027622272497
 30
0
 10
130.0217483877054
 20
-140.5979539824065
 30
0
 10
137.467629920899
 20
-139.5834095445192
 30
0
 10
142.4776966150901
 20
-140.2063471503182
 30
0
 10
146.9298430736553
 20
-143.7658647550776
 30
0
 10
150.5718778540377
 20
-151.8474571825819
 30
0
 10
153.9611815362214
 20
-159.0728719618649
 30
0
 10
150.064439796202
 20
-164.438245842703
 30
0
 10
142.1449642332264
 20
-163.4503668064964
 30
0
 10
133.3331256403618
 20
-162.4870111509293
 30
0
 10
128.5709405263125
 20
-159.3543818069701
 30
0
 10
126.4286999819352
 20
-154.7827710414973
 30
0
 10
125.0901039002823
 20
-147.3882722246073
 30
0
 10
109.4415958056542
 20
-136.1203015649627
 30
0
 10
77.35940292872522
 20
-112.7768518766962
 30
0
  0
LWPOLYLINE
  5
E8
100
AcDbEntity
  8
arms
  6
ByLayer
 62
  256
370
   -1
100
AcDbPolyline
 90
    2
 70
    0
 43
0
 10
82.34262441538468
 20
-105.915517923674
 42
0.999999999999999
 10
77.35940292872522
 20
-112.7768518766962
 42
0.999999999999999
  0
CIRCLE
  5
E9
100
AcDbEntity
  8
reinforcement
  6
ByLayer
 62
  256
370
   -1
100
AcDbCircle
 10
-12.25563718558461
 20
-8.355777915774503
 40
1
  0
CIRCLE
  5
EA
100
AcDbEntity
  8
reinforcement
  6
ByLayer
 62
  256
370
   -1
100
AcDbCircle
 10
-0.4110817459029263
 20
-6.477665449411752
 40
1
  0
ARC
  5
EB
100
AcDbEntity
  8
reinforcement
  6
ByLayer
 62
  256
370
   -1
100
AcDbCircle
 10
-14.33335946574377
 20
-7.416721682593129
 40
4
100
AcDbArc
 50
90
 51
270
  0
LINE
  5
EC
100
AcDbEntity
  8
reinforcement
  6
ByLayer
 62
  256
370
   -1
100
AcDbLine
 10
144.6991715431801
 20
-3.416721682592994
 11
-14.33335946574377
 21
-3.416721682593129
  0
LINE
  5
ED
100
AcDbEntity
  8
reinforcement
  6
ByLayer
 62
  256
370
   -1
100
AcDbLine
 10
-14.33335946574377
 20
-11.41672168259313
 11
144.6991715431801
 21
-11.41672168259299
  0
ARC
  5
EE
100
AcDbEntity
  8
reinforcement
  6
ByLayer
 62
  256
370
   -1
100
AcDbCircle
 10
144.6991715431801
 20
-7.416721682592991
 40
4.000000000000004
100
AcDbArc
 50
270
 51
90
  0
CIRCLE
  5
EF
100
AcDbEntity
  8
reinforcement
  6
ByLayer
 62
  256
370
   -1
100
AcDbCircle
 10
131.4510817459032
 20
-6.477665449411776
 40
1
  0
CIRCLE
  5
F0
100
AcDbEntity
  8
reinforcement
  6
ByLayer
 62
  256
370
   -1
100
AcDbCircle
 10
143.3030140169488
 20
-8.356947610915679
 40
1
  0
CIRCLE
  5
F1
100
AcDbEntity
  8
reinforcement
  6
ByLayer
 62
  256
370
   -1
100
AcDbCircle
 10
-12.25563718558457
 20
-150.1842220842256
 40
1
  0
CIRCLE
  5
F2
100
AcDbEntity
  8
reinforcement
  6
ByLayer
 62
  256
370
   -1
100
AcDbCircle
 10
-0.4110817459028837
 20
-152.0623345505883
 40
1
  0
ARC
  5
F3
100
AcDbEntity
  8
reinforcement
  6
ByLayer
 62
  256
370
   -1
100
AcDbCircle
 10
-14.33335946574373
 20
-151.123278317407
 40
4
100
AcDbArc
 50
90.0000000000001
 51
270.0000000000001
  0
LINE
  5
F4
100
AcDbEntity
  8
reinforcement
  6
ByLayer
 62
  256
370
   -1
100
AcDbLine
 10
144.6991715431801
 20
-155.1232783174069
 11
-14.33335946574372
 21
-155.123278317407
  0
LINE
  5
F5
100
AcDbEntity
  8
reinforcement
  6
ByLayer
 62
  256
370
   -1
100
AcDbLine
 10
-14.33335946574373
 20
-147.123278317407
 11
144.6991715431801
 21
-147.1232783174069
  0
ARC
  5
F6
100
AcDbEntity
  8
reinforcement
  6
ByLayer
 62
  256
370
   -1
100
AcDbCircle
 10
144.6991715431801
 20
-151.1232783174069
 40
4.000000000000004
100
AcDbArc
 50
270.0000000000001
 51
90.0000000000001
  0
CIRCLE
  5
F7
100
AcDbEntity
  8
reinforcement
  6
ByLayer
 62
  256
370
   -1
100
AcDbCircle
 10
131.4510817459033
 20
-152.0623345505881
 40
1
  0
CIRCLE
  5
F8
100
AcDbEntity
  8
reinforcement
  6
ByLayer
 62
  256
370
   -1
100
AcDbCircle
 10
143.3030140169488
 20
-150.1830523890842
 40
1
  0
MTEXT
  5
F9
100
AcDbEntity
  8
meassures
  6
ByLayer
 62
  256
370
   -1
100
AcDbMText
 10
44.02777777777778
 20
51
 30
0
 40
1
 41
43.08333466419331
 71
    1
 72
    1
  1
9.10 rotation trasnforms this frame from Strech X to TrueX
  7
standard
210
0
220
0
230
1
 50
0
 73
    2
 44
1
  0
CIRCLE
  5
FA
100
AcDbEntity
  8
bottom plate
  6
ByLayer
 62
  256
370
   -1
100
AcDbCircle
 10
51.18898632794506
 20
-49.19381509981508
 40
1.5
  0
CIRCLE
  5
FB
100
AcDbEntity
  8
bottom plate
  6
ByLayer
 62
  256
370
   -1
100
AcDbCircle
 10
79.85101367205516
 20
-49.19381509981511
 40
1.5
  0
CIRCLE
  5
FC
100
AcDbEntity
  8
bottom plate
  6
ByLayer
 62
  256
370
   -1
100
AcDbCircle
 10
79.85101367205495
 20
-109.3461849001851
 40
1.5
  0
CIRCLE
  5
FD
100
AcDbEntity
  8
bottom plate
  6
ByLayer
 62
  256
370
   -1
100
AcDbCircle
 10
51.1889863279451
 20
-109.3461849001851
 40
1.5
  0
CIRCLE
  5
FE
100
AcDbEntity
  8
top plate
  6
ByLayer
 62
  256
370
   -1
100
AcDbCircle
 10
51.18898632794506
 20
-49.19381509981508
 40
1.5
  0
CIRCLE
  5
FF
100
AcDbEntity
  8
top plate
  6
ByLayer
 62
  256
370
   -1
100
AcDbCircle
 10
79.85101367205516
 20
-49.19381509981511
 40
1.5
  0
ENDSEC
  0
SECTION
  2
OBJECTS
  0
DICTIONARY
  5
C
330
0
100
AcDbDictionary
281
    1
  3
ACAD_GROUP
350
D
  0
DICTIONARY
  5
D
330
C
100
AcDbDictionary
281
    1
  0
ENDSEC
  0
EOF
